<svg width="280" height="340" viewBox="0 0 280 340" fill="none" xmlns="http://www.w3.org/2000/svg">
<path d="M279.879 150.061L273.697 133.818C273.697 133.818 273.697 133.697 273.576 133.697C273.455 133.212 272.97 132.727 272.485 132.727H207.758L142.061 15.5152V5.09091H141.939C141.818 2.18182 139.394 0 136.485 0C133.576 0 131.152 2.18182 130.788 5.09091H130.667V5.81818V15.7576L65.0909 132.848H1.21212C0.606061 132.848 0 133.333 0 134.061V331.879C0 332.364 0.363636 332.849 0.848485 332.97L0.969697 333.091L16.3636 339.394C16.4848 339.394 16.6061 339.515 16.8485 339.515H278.788C279.394 339.515 280 339.03 280 338.303V150.545C280 150.424 280 150.182 279.879 150.061ZM133.091 5.81818C133.091 3.87879 134.667 2.42424 136.485 2.42424C138.424 2.42424 139.879 4 139.879 5.81818C139.879 7.75758 138.303 9.21212 136.485 9.21212C134.545 9.21212 133.091 7.75758 133.091 5.81818ZM133.091 10.4242C134.061 11.1515 135.273 11.6364 136.485 11.6364C137.818 11.6364 138.909 11.1515 139.879 10.4242V21.4545C139.879 22.9091 138.667 24.2424 137.091 24.2424H135.758C134.303 24.2424 132.97 23.0303 132.97 21.4545V10.4242H133.091ZM130.667 20.4848V21.4545C130.667 24.2424 132.97 26.5455 135.758 26.5455H137.091C139.879 26.5455 142.182 24.2424 142.182 21.4545V20.3636L205.091 132.848H67.7576L130.667 20.4848ZM2.30303 135.152H63.7576L60.9697 140.121C60.4848 140 60.1212 139.879 59.6364 139.879C56.7273 139.879 54.303 142.303 54.303 145.212C54.303 148.121 56.7273 150.545 59.6364 150.545C62.5455 150.545 64.9697 148.121 64.9697 145.212C64.9697 143.515 64.2424 142.061 63.0303 141.091L66.4242 135.03H206.424L209.939 141.212C208.848 142.182 208.121 143.636 208.121 145.212C208.121 148.121 210.545 150.545 213.455 150.545C216.364 150.545 218.788 148.121 218.788 145.212C218.788 142.303 216.364 139.879 213.455 139.879C212.97 139.879 212.364 140 211.879 140.121L209.091 135.03H271.273V167.273H2.30303V135.152ZM59.0303 146.061C59.2727 146.182 59.3939 146.182 59.6364 146.182C60 146.182 60.4849 145.939 60.6061 145.576L61.8182 143.394C62.303 143.879 62.5455 144.606 62.5455 145.333C62.5455 147.03 61.2121 148.364 59.5152 148.364C57.8182 148.364 56.4848 147.03 56.4848 145.333C56.4848 143.636 57.8182 142.303 59.5152 142.303H59.6364L58.4242 144.364C58.303 144.97 58.5455 145.697 59.0303 146.061ZM214.424 144.364L213.212 142.303C213.333 142.303 213.455 142.303 213.576 142.303C215.273 142.303 216.606 143.636 216.606 145.333C216.606 147.03 215.273 148.364 213.576 148.364C211.879 148.364 210.545 147.03 210.545 145.333C210.545 144.606 210.788 144 211.152 143.515L212.242 145.576C212.485 145.939 212.848 146.182 213.212 146.182C213.455 146.182 213.576 146.182 213.818 146.061C214.545 145.697 214.667 144.97 214.424 144.364ZM169.818 252L169.333 244.364L194.667 204.364H206.788V242.182H213.697V251.879H206.788V264.97H194.788V251.879H169.818V252ZM156.485 228.848V240C156.485 248.364 154.788 254.788 151.273 259.273C147.758 263.758 142.667 265.939 136 265.939C129.333 265.939 124.364 263.758 120.848 259.394C117.333 255.03 115.515 248.727 115.515 240.606V229.455C115.515 220.97 117.333 214.545 120.848 210.182C124.364 205.818 129.455 203.636 136 203.636C142.667 203.636 147.636 205.818 151.152 210.182C154.667 214.424 156.485 220.606 156.485 228.848ZM58.9091 252L58.4242 244.364L83.7576 204.364H95.8788V242.182H102.788V251.879H95.8788V264.97H83.8788V251.879H58.9091V252ZM2.30303 301.697H271.273V330.667H2.30303V301.697ZM277.697 337.091H17.0909L7.15152 333.091H272.606C273.212 333.091 273.818 332.606 273.818 331.879V302.424L277.697 309.939V337.091ZM277.697 174.909L273.818 167.879V140.485L277.697 150.788V174.909Z" fill="#8C1D1B"/>
<path d="M194.667 220.849L193.819 222.182L181.213 242.182H194.667V220.849Z" fill="#8C1D1B"/>
<path d="M83.8784 220.849L83.0299 222.182L70.4238 242.182H83.8784V220.849Z" fill="#8C1D1B"/>
<path d="M136 213.212C133.213 213.212 131.031 214.303 129.697 216.485C128.364 218.667 127.637 222.061 127.516 226.788V241.576C127.516 246.546 128.243 250.182 129.576 252.606C130.91 255.03 133.091 256.242 136 256.242C138.91 256.242 141.091 255.03 142.425 252.727C143.758 250.424 144.364 246.909 144.485 242.182V227.758C144.485 222.667 143.758 219.03 142.425 216.727C140.97 214.424 138.91 213.212 136 213.212Z" fill="#8C1D1B"/>
<path d="M257.455 146.909C255.031 146.909 253.092 148.848 253.092 151.273C253.092 153.697 255.031 155.636 257.455 155.636C259.88 155.636 261.819 153.697 261.819 151.273C261.819 148.848 259.88 146.909 257.455 146.909ZM257.455 153.212C256.365 153.212 255.516 152.364 255.516 151.273C255.516 150.182 256.365 149.333 257.455 149.333C258.546 149.333 259.395 150.182 259.395 151.273C259.395 152.364 258.546 153.212 257.455 153.212Z" fill="#8C1D1B"/>
<path d="M244.121 146.909C241.697 146.909 239.758 148.848 239.758 151.273C239.758 153.697 241.697 155.636 244.121 155.636C246.546 155.636 248.485 153.697 248.485 151.273C248.485 148.848 246.546 146.909 244.121 146.909ZM244.121 153.212C243.031 153.212 242.182 152.364 242.182 151.273C242.182 150.182 243.031 149.333 244.121 149.333C245.212 149.333 246.061 150.182 246.061 151.273C246.061 152.364 245.212 153.212 244.121 153.212Z" fill="#8C1D1B"/>
<path d="M24.6064 145.333H12.8488C12.2428 145.333 11.6367 145.818 11.6367 146.545C11.6367 147.152 12.1216 147.758 12.8488 147.758H24.6064C25.2125 147.758 25.8185 147.273 25.8185 146.545C25.6973 145.818 25.2125 145.333 24.6064 145.333Z" fill="#8C1D1B"/>
<path d="M24.6064 150.061H12.8488C12.2428 150.061 11.6367 150.545 11.6367 151.273C11.6367 151.879 12.1216 152.485 12.8488 152.485H24.6064C25.2125 152.485 25.8185 152 25.8185 151.273C25.6973 150.545 25.2125 150.061 24.6064 150.061Z" fill="#8C1D1B"/>
<path d="M24.6064 154.788H12.8488C12.2428 154.788 11.6367 155.273 11.6367 156C11.6367 156.727 12.1216 157.212 12.8488 157.212H24.6064C25.2125 157.212 25.8185 156.727 25.8185 156C25.8185 155.273 25.2125 154.788 24.6064 154.788Z" fill="#8C1D1B"/>
</svg>
