<svg id="craftparkett" xmlns="http://www.w3.org/2000/svg" width="199.59" height="83.735" viewBox="0 0 199.59 83.735">
  <path id="Контур_11691" data-name="Контур 11691" d="M503.362,57.331V53.538H502v-1.1h4v1.1h-1.355v3.793Z" transform="translate(-312.551 -32.65)" fill="#3e0000"/>
  <path id="Контур_11692" data-name="Контур 11692" d="M518.451,57.306v-3.17l-1.242,3.181h-.555l-1.234-3.181v3.17h-1.26V52.4h1.751l1.023,2.642,1.023-2.642h1.755v4.906Z" transform="translate(-320.121 -32.625)" fill="#3e0000"/>
  <path id="Контур_11693" data-name="Контур 11693" d="M12.76,194.884V178.52h8.193a5.279,5.279,0,0,1,5.691,5.446c0,2.97-2.011,5.423-5.691,5.423H16.979v5.495Zm9.589-10.9a1.754,1.754,0,0,0-1.962-1.766h-3.4v3.506h3.4A1.762,1.762,0,0,0,22.349,183.985Z" transform="translate(-7.945 -111.148)" fill="#3e0000"/>
  <path id="Контур_11694" data-name="Контур 11694" d="M90.634,194.884l-.808-2.355H83.373l-.811,2.355H77.78l6.159-16.364h5.283L95.4,194.884ZM86.588,182.69,84.5,188.849h4.151Z" transform="translate(-48.427 -111.148)" fill="#3e0000"/>
  <path id="Контур_11695" data-name="Контур 11695" d="M169.355,194.884l-2.747-5.495h-2.159v5.495H160.23V178.52h8.193c3.63,0,5.691,2.4,5.691,5.446a4.956,4.956,0,0,1-3.261,4.906l3.336,6.012Zm.468-10.944a1.831,1.831,0,0,0-2.038-1.74h-3.336v3.506h3.336A1.819,1.819,0,0,0,169.823,183.939Z" transform="translate(-99.761 -111.148)" fill="#3e0000"/>
  <path id="Контур_11696" data-name="Контур 11696" d="M245.336,194.884l-4.291-6.159-1.106,1.374v4.785H235.72V178.52h4.219v6.721l5.031-6.721h5.2l-6.351,7.653,6.7,8.71Z" transform="translate(-146.762 -111.148)" fill="#3e0000"/>
  <path id="Контур_11697" data-name="Контур 11697" d="M310.76,194.884V178.52h12v3.68h-7.778v2.54h7.6v3.683h-7.6v2.77h7.778v3.68Z" transform="translate(-193.482 -111.148)" fill="#3e0000"/>
  <path id="Контур_11698" data-name="Контур 11698" d="M383.685,194.884V182.2H379.1v-3.68h13.371v3.68H387.9v12.684Z" transform="translate(-236.032 -111.148)" fill="#3e0000"/>
  <path id="Контур_11699" data-name="Контур 11699" d="M454.5,194.884V182.2H449.91v-3.68h13.371v3.68h-4.563v12.684Z" transform="translate(-280.119 -111.148)" fill="#3e0000"/>
  <path id="Контур_11700" data-name="Контур 11700" d="M0,71.127C0,58.9,9.261,50.65,21.428,50.65c9.559,0,14.662,5.4,17.273,10.624l-8.786,4.151a9.509,9.509,0,0,0-8.487-5.759c-6.468,0-11.039,4.989-11.039,11.458s4.57,11.458,11.039,11.458a9.522,9.522,0,0,0,8.487-5.759L38.7,80.973A18.382,18.382,0,0,1,21.428,91.6C9.261,91.6,0,83.3,0,71.127Z" transform="translate(0 -31.535)" fill="#3e0000"/>
  <path id="Контур_11701" data-name="Контур 11701" d="M133.831,91.972l-6.65-13.3h-5.223v13.3H111.75V52.38h19.824c8.786,0,13.771,5.816,13.771,13.175,0,6.887-4.212,10.567-7.891,11.873l8.072,14.545ZM134.963,65.5c0-2.672-2.264-4.215-4.929-4.215h-8.076V69.77h8.072c2.672,0,4.929-1.483,4.929-4.272Z" transform="translate(-69.577 -32.612)" fill="#3e0000"/>
  <path id="Контур_11702" data-name="Контур 11702" d="M324.16,91.972V52.38h29.025v8.914H334.368v6.163h18.413v8.9H334.368V91.972Z" transform="translate(-201.826 -32.612)" fill="#3e0000"/>
  <path id="Контур_11703" data-name="Контур 11703" d="M420.309,91.972V61.294h-11.1V52.38h32.35v8.914H430.517V91.983Z" transform="translate(-254.779 -32.612)" fill="#3e0000"/>
  <path id="Контур_11704" data-name="Контур 11704" d="M248.28,52.38h11.593l14.918,39.592H263.2Z" transform="translate(-154.582 -32.612)" fill="#94070a"/>
  <path id="Контур_11705" data-name="Контур 11705" d="M231.958,52.38h-11.59L205.45,91.972h11.586Z" transform="translate(-127.915 -32.612)" fill="#ed1c24"/>
  <path id="Контур_11706" data-name="Контур 11706" d="M221.706,0,214.26,19.768h11.59L233.3,0Z" transform="translate(-133.401)" fill="#ed1c24"/>
</svg>
