<svg width="1200" height="100" viewBox="0 0 1200 100" fill="none" xmlns="http://www.w3.org/2000/svg">
<rect width="1200" height="100" fill="#BA131A"/>
<path d="M147.088 42.2V59H144.736V44.288H134.992V59H132.616V42.2H147.088ZM158.927 46.16C160.159 46.16 161.263 46.432 162.239 46.976C163.215 47.52 163.975 48.28 164.519 49.256C165.079 50.232 165.359 51.36 165.359 52.64C165.359 53.92 165.079 55.056 164.519 56.048C163.975 57.024 163.215 57.784 162.239 58.328C161.263 58.872 160.159 59.144 158.927 59.144C158.015 59.144 157.175 58.968 156.407 58.616C155.655 58.264 155.015 57.752 154.487 57.08V63.656H152.183V46.28H154.391V48.296C154.903 47.592 155.551 47.064 156.335 46.712C157.119 46.344 157.983 46.16 158.927 46.16ZM158.735 57.128C159.551 57.128 160.279 56.944 160.919 56.576C161.575 56.192 162.087 55.664 162.455 54.992C162.839 54.304 163.031 53.52 163.031 52.64C163.031 51.76 162.839 50.984 162.455 50.312C162.087 49.624 161.575 49.096 160.919 48.728C160.279 48.36 159.551 48.176 158.735 48.176C157.935 48.176 157.207 48.368 156.551 48.752C155.911 49.12 155.399 49.64 155.015 50.312C154.647 50.984 154.463 51.76 154.463 52.64C154.463 53.52 154.647 54.304 155.015 54.992C155.383 55.664 155.895 56.192 156.551 56.576C157.207 56.944 157.935 57.128 158.735 57.128ZM174.394 59.144C173.13 59.144 171.994 58.864 170.986 58.304C169.978 57.744 169.186 56.976 168.61 56C168.05 55.008 167.77 53.888 167.77 52.64C167.77 51.392 168.05 50.28 168.61 49.304C169.186 48.312 169.978 47.544 170.986 47C171.994 46.44 173.13 46.16 174.394 46.16C175.658 46.16 176.786 46.44 177.778 47C178.786 47.544 179.57 48.312 180.13 49.304C180.706 50.28 180.994 51.392 180.994 52.64C180.994 53.888 180.706 55.008 180.13 56C179.57 56.976 178.786 57.744 177.778 58.304C176.786 58.864 175.658 59.144 174.394 59.144ZM174.394 57.128C175.21 57.128 175.938 56.944 176.578 56.576C177.234 56.192 177.746 55.664 178.114 54.992C178.482 54.304 178.666 53.52 178.666 52.64C178.666 51.76 178.482 50.984 178.114 50.312C177.746 49.624 177.234 49.096 176.578 48.728C175.938 48.36 175.21 48.176 174.394 48.176C173.578 48.176 172.842 48.36 172.186 48.728C171.546 49.096 171.034 49.624 170.65 50.312C170.282 50.984 170.098 51.76 170.098 52.64C170.098 53.52 170.282 54.304 170.65 54.992C171.034 55.664 171.546 56.192 172.186 56.576C172.842 56.944 173.578 57.128 174.394 57.128ZM190.105 59.144C188.809 59.144 187.649 58.864 186.625 58.304C185.617 57.744 184.825 56.976 184.249 56C183.673 55.008 183.385 53.888 183.385 52.64C183.385 51.392 183.673 50.28 184.249 49.304C184.825 48.312 185.617 47.544 186.625 47C187.649 46.44 188.809 46.16 190.105 46.16C191.257 46.16 192.281 46.392 193.177 46.856C194.089 47.32 194.793 47.992 195.289 48.872L193.537 50C193.137 49.392 192.641 48.936 192.049 48.632C191.457 48.328 190.801 48.176 190.081 48.176C189.249 48.176 188.497 48.36 187.825 48.728C187.169 49.096 186.649 49.624 186.265 50.312C185.897 50.984 185.713 51.76 185.713 52.64C185.713 53.536 185.897 54.328 186.265 55.016C186.649 55.688 187.169 56.208 187.825 56.576C188.497 56.944 189.249 57.128 190.081 57.128C190.801 57.128 191.457 56.976 192.049 56.672C192.641 56.368 193.137 55.912 193.537 55.304L195.289 56.408C194.793 57.288 194.089 57.968 193.177 58.448C192.281 58.912 191.257 59.144 190.105 59.144ZM207.828 48.296H203.172V59H200.868V48.296H196.212V46.28H207.828V48.296ZM210.424 46.28H212.728V55.544L220.528 46.28H222.616V59H220.312V49.736L212.536 59H210.424V46.28ZM236.808 48.296H232.152V59H229.848V48.296H225.192V46.28H236.808V48.296ZM250.338 52.712C250.338 52.888 250.322 53.12 250.29 53.408H239.97C240.114 54.528 240.602 55.432 241.434 56.12C242.282 56.792 243.33 57.128 244.578 57.128C246.098 57.128 247.322 56.616 248.25 55.592L249.522 57.08C248.946 57.752 248.226 58.264 247.362 58.616C246.514 58.968 245.562 59.144 244.506 59.144C243.162 59.144 241.97 58.872 240.93 58.328C239.89 57.768 239.082 56.992 238.506 56C237.946 55.008 237.666 53.888 237.666 52.64C237.666 51.408 237.938 50.296 238.482 49.304C239.042 48.312 239.802 47.544 240.762 47C241.738 46.44 242.834 46.16 244.05 46.16C245.266 46.16 246.346 46.44 247.29 47C248.25 47.544 248.994 48.312 249.522 49.304C250.066 50.296 250.338 51.432 250.338 52.712ZM244.05 48.104C242.946 48.104 242.018 48.44 241.266 49.112C240.53 49.784 240.098 50.664 239.97 51.752H248.13C248.002 50.68 247.562 49.808 246.81 49.136C246.074 48.448 245.154 48.104 244.05 48.104ZM254.68 55.856C255.128 55.856 255.496 56.016 255.784 56.336C256.088 56.64 256.24 57.024 256.24 57.488C256.24 57.728 256.208 57.96 256.144 58.184C256.096 58.408 255.992 58.752 255.832 59.216L254.704 62.552H253.192L254.08 58.976C253.776 58.864 253.528 58.68 253.336 58.424C253.16 58.152 253.072 57.84 253.072 57.488C253.072 57.008 253.224 56.616 253.528 56.312C253.832 56.008 254.216 55.856 254.68 55.856ZM278.299 46.28V59H275.995V48.296H268.819V59H266.515V46.28H278.299ZM288.445 59.144C287.181 59.144 286.045 58.864 285.037 58.304C284.029 57.744 283.237 56.976 282.661 56C282.101 55.008 281.821 53.888 281.821 52.64C281.821 51.392 282.101 50.28 282.661 49.304C283.237 48.312 284.029 47.544 285.037 47C286.045 46.44 287.181 46.16 288.445 46.16C289.709 46.16 290.837 46.44 291.829 47C292.837 47.544 293.621 48.312 294.181 49.304C294.757 50.28 295.045 51.392 295.045 52.64C295.045 53.888 294.757 55.008 294.181 56C293.621 56.976 292.837 57.744 291.829 58.304C290.837 58.864 289.709 59.144 288.445 59.144ZM288.445 57.128C289.261 57.128 289.989 56.944 290.629 56.576C291.285 56.192 291.797 55.664 292.165 54.992C292.533 54.304 292.717 53.52 292.717 52.64C292.717 51.76 292.533 50.984 292.165 50.312C291.797 49.624 291.285 49.096 290.629 48.728C289.989 48.36 289.261 48.176 288.445 48.176C287.629 48.176 286.893 48.36 286.237 48.728C285.597 49.096 285.085 49.624 284.701 50.312C284.333 50.984 284.149 51.76 284.149 52.64C284.149 53.52 284.333 54.304 284.701 54.992C285.085 55.664 285.597 56.192 286.237 56.576C286.893 56.944 287.629 57.128 288.445 57.128ZM313.961 52.4C315.609 52.816 316.433 53.848 316.433 55.496C316.433 56.616 316.009 57.48 315.161 58.088C314.329 58.696 313.081 59 311.417 59H305.297V46.28H311.201C312.705 46.28 313.881 46.568 314.729 47.144C315.577 47.704 316.001 48.504 316.001 49.544C316.001 50.216 315.817 50.8 315.449 51.296C315.097 51.776 314.601 52.144 313.961 52.4ZM307.553 51.752H311.009C311.889 51.752 312.553 51.592 313.001 51.272C313.465 50.952 313.697 50.488 313.697 49.88C313.697 48.664 312.801 48.056 311.009 48.056H307.553V51.752ZM311.249 57.224C312.209 57.224 312.929 57.072 313.409 56.768C313.889 56.464 314.129 55.992 314.129 55.352C314.129 54.696 313.905 54.208 313.457 53.888C313.025 53.568 312.337 53.408 311.393 53.408H307.553V57.224H311.249ZM324.816 46.16C326.576 46.16 327.92 46.592 328.848 47.456C329.792 48.32 330.264 49.608 330.264 51.32V59H328.08V57.32C327.696 57.912 327.144 58.368 326.424 58.688C325.72 58.992 324.88 59.144 323.904 59.144C322.48 59.144 321.336 58.8 320.472 58.112C319.624 57.424 319.2 56.52 319.2 55.4C319.2 54.28 319.608 53.384 320.424 52.712C321.24 52.024 322.536 51.68 324.312 51.68H327.96V51.224C327.96 50.232 327.672 49.472 327.096 48.944C326.52 48.416 325.672 48.152 324.552 48.152C323.8 48.152 323.064 48.28 322.344 48.536C321.624 48.776 321.016 49.104 320.52 49.52L319.56 47.792C320.216 47.264 321 46.864 321.912 46.592C322.824 46.304 323.792 46.16 324.816 46.16ZM324.288 57.368C325.168 57.368 325.928 57.176 326.568 56.792C327.208 56.392 327.672 55.832 327.96 55.112V53.336H324.408C322.456 53.336 321.48 53.992 321.48 55.304C321.48 55.944 321.728 56.448 322.224 56.816C322.72 57.184 323.408 57.368 324.288 57.368ZM352.772 46.28V59H334.652V46.28H336.956V56.984H342.572V46.28H344.876V56.984H350.468V46.28H352.772ZM368.982 52.712C368.982 52.888 368.966 53.12 368.934 53.408H358.614C358.758 54.528 359.246 55.432 360.078 56.12C360.926 56.792 361.974 57.128 363.222 57.128C364.742 57.128 365.966 56.616 366.894 55.592L368.166 57.08C367.59 57.752 366.87 58.264 366.006 58.616C365.158 58.968 364.206 59.144 363.15 59.144C361.806 59.144 360.614 58.872 359.574 58.328C358.534 57.768 357.726 56.992 357.15 56C356.59 55.008 356.31 53.888 356.31 52.64C356.31 51.408 356.582 50.296 357.126 49.304C357.686 48.312 358.446 47.544 359.406 47C360.382 46.44 361.478 46.16 362.694 46.16C363.91 46.16 364.99 46.44 365.934 47C366.894 47.544 367.638 48.312 368.166 49.304C368.71 50.296 368.982 51.432 368.982 52.712ZM362.694 48.104C361.59 48.104 360.662 48.44 359.91 49.112C359.174 49.784 358.742 50.664 358.614 51.752H366.774C366.646 50.68 366.206 49.808 365.454 49.136C364.718 48.448 363.798 48.104 362.694 48.104ZM387.46 46.28V59H385.372V49.712L380.62 57.56H379.612L374.908 49.688V59H372.796V46.28H375.172L380.164 54.872L385.3 46.28H387.46ZM403.537 46.28L397.369 60.272C396.825 61.568 396.185 62.48 395.449 63.008C394.729 63.536 393.857 63.8 392.833 63.8C392.209 63.8 391.601 63.696 391.009 63.488C390.433 63.296 389.953 63.008 389.569 62.624L390.553 60.896C391.209 61.52 391.969 61.832 392.833 61.832C393.393 61.832 393.857 61.68 394.225 61.376C394.609 61.088 394.953 60.584 395.257 59.864L395.665 58.976L390.049 46.28H392.449L396.889 56.456L401.281 46.28H403.537ZM419.709 52.376C420.557 52.6 421.213 52.96 421.677 53.456C422.141 53.952 422.373 54.568 422.373 55.304C422.373 56.056 422.117 56.728 421.605 57.32C421.093 57.896 420.381 58.352 419.469 58.688C418.573 59.008 417.565 59.168 416.445 59.168C415.501 59.168 414.573 59.048 413.661 58.808C412.765 58.552 411.965 58.192 411.261 57.728L411.957 55.976C412.565 56.36 413.261 56.664 414.045 56.888C414.829 57.096 415.621 57.2 416.421 57.2C417.509 57.2 418.373 57.016 419.013 56.648C419.669 56.264 419.997 55.752 419.997 55.112C419.997 54.52 419.733 54.064 419.205 53.744C418.693 53.424 417.965 53.264 417.021 53.264H414.693V51.608H416.853C417.717 51.608 418.397 51.456 418.893 51.152C419.389 50.848 419.637 50.432 419.637 49.904C419.637 49.328 419.341 48.88 418.749 48.56C418.173 48.24 417.389 48.08 416.397 48.08C415.133 48.08 413.797 48.408 412.389 49.064L411.765 47.288C413.317 46.504 414.941 46.112 416.637 46.112C417.661 46.112 418.581 46.256 419.397 46.544C420.213 46.832 420.853 47.24 421.317 47.768C421.781 48.296 422.013 48.896 422.013 49.568C422.013 50.192 421.805 50.752 421.389 51.248C420.973 51.744 420.413 52.12 419.709 52.376ZM430.652 46.16C432.412 46.16 433.756 46.592 434.684 47.456C435.628 48.32 436.1 49.608 436.1 51.32V59H433.916V57.32C433.532 57.912 432.98 58.368 432.26 58.688C431.556 58.992 430.716 59.144 429.74 59.144C428.316 59.144 427.172 58.8 426.308 58.112C425.46 57.424 425.036 56.52 425.036 55.4C425.036 54.28 425.444 53.384 426.26 52.712C427.076 52.024 428.372 51.68 430.148 51.68H433.796V51.224C433.796 50.232 433.508 49.472 432.932 48.944C432.356 48.416 431.508 48.152 430.388 48.152C429.636 48.152 428.9 48.28 428.18 48.536C427.46 48.776 426.852 49.104 426.356 49.52L425.396 47.792C426.052 47.264 426.836 46.864 427.748 46.592C428.66 46.304 429.628 46.16 430.652 46.16ZM430.124 57.368C431.004 57.368 431.764 57.176 432.404 56.792C433.044 56.392 433.508 55.832 433.796 55.112V53.336H430.244C428.292 53.336 427.316 53.992 427.316 55.304C427.316 55.944 427.564 56.448 428.06 56.816C428.556 57.184 429.244 57.368 430.124 57.368ZM452.273 46.28V59H449.969V48.296H442.793V59H440.489V46.28H452.273ZM463.715 46.16C464.947 46.16 466.051 46.432 467.027 46.976C468.003 47.52 468.763 48.28 469.307 49.256C469.867 50.232 470.147 51.36 470.147 52.64C470.147 53.92 469.867 55.056 469.307 56.048C468.763 57.024 468.003 57.784 467.027 58.328C466.051 58.872 464.947 59.144 463.715 59.144C462.803 59.144 461.963 58.968 461.195 58.616C460.443 58.264 459.803 57.752 459.275 57.08V63.656H456.971V46.28H459.179V48.296C459.691 47.592 460.339 47.064 461.123 46.712C461.907 46.344 462.771 46.16 463.715 46.16ZM463.523 57.128C464.339 57.128 465.067 56.944 465.707 56.576C466.363 56.192 466.875 55.664 467.243 54.992C467.627 54.304 467.819 53.52 467.819 52.64C467.819 51.76 467.627 50.984 467.243 50.312C466.875 49.624 466.363 49.096 465.707 48.728C465.067 48.36 464.339 48.176 463.523 48.176C462.723 48.176 461.995 48.368 461.339 48.752C460.699 49.12 460.187 49.64 459.803 50.312C459.435 50.984 459.251 51.76 459.251 52.64C459.251 53.52 459.435 54.304 459.803 54.992C460.171 55.664 460.683 56.192 461.339 56.576C461.995 56.944 462.723 57.128 463.523 57.128ZM479.182 59.144C477.918 59.144 476.782 58.864 475.774 58.304C474.766 57.744 473.974 56.976 473.398 56C472.838 55.008 472.558 53.888 472.558 52.64C472.558 51.392 472.838 50.28 473.398 49.304C473.974 48.312 474.766 47.544 475.774 47C476.782 46.44 477.918 46.16 479.182 46.16C480.446 46.16 481.574 46.44 482.566 47C483.574 47.544 484.358 48.312 484.918 49.304C485.494 50.28 485.782 51.392 485.782 52.64C485.782 53.888 485.494 55.008 484.918 56C484.358 56.976 483.574 57.744 482.566 58.304C481.574 58.864 480.446 59.144 479.182 59.144ZM479.182 57.128C479.998 57.128 480.726 56.944 481.366 56.576C482.022 56.192 482.534 55.664 482.902 54.992C483.27 54.304 483.454 53.52 483.454 52.64C483.454 51.76 483.27 50.984 482.902 50.312C482.534 49.624 482.022 49.096 481.366 48.728C480.726 48.36 479.998 48.176 479.182 48.176C478.366 48.176 477.63 48.36 476.974 48.728C476.334 49.096 475.822 49.624 475.438 50.312C475.07 50.984 474.886 51.76 474.886 52.64C474.886 53.52 475.07 54.304 475.438 54.992C475.822 55.664 476.334 56.192 476.974 56.576C477.63 56.944 478.366 57.128 479.182 57.128ZM494.893 59.144C493.597 59.144 492.437 58.864 491.413 58.304C490.405 57.744 489.613 56.976 489.037 56C488.461 55.008 488.173 53.888 488.173 52.64C488.173 51.392 488.461 50.28 489.037 49.304C489.613 48.312 490.405 47.544 491.413 47C492.437 46.44 493.597 46.16 494.893 46.16C496.045 46.16 497.069 46.392 497.965 46.856C498.877 47.32 499.581 47.992 500.077 48.872L498.325 50C497.925 49.392 497.429 48.936 496.837 48.632C496.245 48.328 495.589 48.176 494.869 48.176C494.037 48.176 493.285 48.36 492.613 48.728C491.957 49.096 491.437 49.624 491.053 50.312C490.685 50.984 490.501 51.76 490.501 52.64C490.501 53.536 490.685 54.328 491.053 55.016C491.437 55.688 491.957 56.208 492.613 56.576C493.285 56.944 494.037 57.128 494.869 57.128C495.589 57.128 496.245 56.976 496.837 56.672C497.429 56.368 497.925 55.912 498.325 55.304L500.077 56.408C499.581 57.288 498.877 57.968 497.965 58.448C497.069 58.912 496.045 59.144 494.893 59.144ZM514.488 46.28L508.32 60.272C507.776 61.568 507.136 62.48 506.4 63.008C505.68 63.536 504.808 63.8 503.784 63.8C503.16 63.8 502.552 63.696 501.96 63.488C501.384 63.296 500.904 63.008 500.52 62.624L501.504 60.896C502.16 61.52 502.92 61.832 503.784 61.832C504.344 61.832 504.808 61.68 505.176 61.376C505.56 61.088 505.904 60.584 506.208 59.864L506.616 58.976L501 46.28H503.4L507.84 56.456L512.232 46.28H514.488ZM523.772 46.28H526.076V51.68H533.324V46.28H535.628V59H533.324V53.672H526.076V59H523.772V46.28ZM540.348 46.28H542.652V55.544L550.452 46.28H552.54V59H550.236V49.736L542.46 59H540.348V46.28ZM567.404 46.28V59H565.1V53.864C563.724 54.504 562.356 54.824 560.996 54.824C559.412 54.824 558.188 54.456 557.324 53.72C556.46 52.984 556.028 51.88 556.028 50.408V46.28H558.332V50.264C558.332 51.144 558.604 51.808 559.148 52.256C559.708 52.704 560.484 52.928 561.476 52.928C562.596 52.928 563.804 52.648 565.1 52.088V46.28H567.404ZM583.613 52.712C583.613 52.888 583.597 53.12 583.565 53.408H573.245C573.389 54.528 573.877 55.432 574.709 56.12C575.557 56.792 576.605 57.128 577.853 57.128C579.373 57.128 580.597 56.616 581.525 55.592L582.797 57.08C582.221 57.752 581.501 58.264 580.637 58.616C579.789 58.968 578.837 59.144 577.781 59.144C576.437 59.144 575.245 58.872 574.205 58.328C573.165 57.768 572.357 56.992 571.781 56C571.221 55.008 570.941 53.888 570.941 52.64C570.941 51.408 571.213 50.296 571.757 49.304C572.317 48.312 573.077 47.544 574.037 47C575.013 46.44 576.109 46.16 577.325 46.16C578.541 46.16 579.621 46.44 580.565 47C581.525 47.544 582.269 48.312 582.797 49.304C583.341 50.296 583.613 51.432 583.613 52.712ZM577.325 48.104C576.221 48.104 575.293 48.44 574.541 49.112C573.805 49.784 573.373 50.664 573.245 51.752H581.405C581.277 50.68 580.837 49.808 580.085 49.136C579.349 48.448 578.429 48.104 577.325 48.104ZM596.788 48.296H589.732V59H587.428V46.28H596.788V48.296ZM604.272 59.144C603.008 59.144 601.872 58.864 600.864 58.304C599.856 57.744 599.064 56.976 598.488 56C597.928 55.008 597.648 53.888 597.648 52.64C597.648 51.392 597.928 50.28 598.488 49.304C599.064 48.312 599.856 47.544 600.864 47C601.872 46.44 603.008 46.16 604.272 46.16C605.536 46.16 606.664 46.44 607.656 47C608.664 47.544 609.448 48.312 610.008 49.304C610.584 50.28 610.872 51.392 610.872 52.64C610.872 53.888 610.584 55.008 610.008 56C609.448 56.976 608.664 57.744 607.656 58.304C606.664 58.864 605.536 59.144 604.272 59.144ZM604.272 57.128C605.088 57.128 605.816 56.944 606.456 56.576C607.112 56.192 607.624 55.664 607.992 54.992C608.36 54.304 608.544 53.52 608.544 52.64C608.544 51.76 608.36 50.984 607.992 50.312C607.624 49.624 607.112 49.096 606.456 48.728C605.816 48.36 605.088 48.176 604.272 48.176C603.456 48.176 602.72 48.36 602.064 48.728C601.424 49.096 600.912 49.624 600.528 50.312C600.16 50.984 599.976 51.76 599.976 52.64C599.976 53.52 600.16 54.304 600.528 54.992C600.912 55.664 601.424 56.192 602.064 56.576C602.72 56.944 603.456 57.128 604.272 57.128ZM621.124 46.28H623.428V51.68H630.676V46.28H632.98V59H630.676V53.672H623.428V59H621.124V46.28ZM649.196 52.712C649.196 52.888 649.18 53.12 649.148 53.408H638.828C638.972 54.528 639.46 55.432 640.292 56.12C641.14 56.792 642.188 57.128 643.436 57.128C644.956 57.128 646.18 56.616 647.108 55.592L648.38 57.08C647.804 57.752 647.084 58.264 646.22 58.616C645.372 58.968 644.42 59.144 643.364 59.144C642.02 59.144 640.828 58.872 639.788 58.328C638.748 57.768 637.94 56.992 637.364 56C636.804 55.008 636.524 53.888 636.524 52.64C636.524 51.408 636.796 50.296 637.34 49.304C637.9 48.312 638.66 47.544 639.62 47C640.596 46.44 641.692 46.16 642.908 46.16C644.124 46.16 645.204 46.44 646.148 47C647.108 47.544 647.852 48.312 648.38 49.304C648.924 50.296 649.196 51.432 649.196 52.712ZM642.908 48.104C641.804 48.104 640.876 48.44 640.124 49.112C639.388 49.784 638.956 50.664 638.828 51.752H646.988C646.86 50.68 646.42 49.808 645.668 49.136C644.932 48.448 644.012 48.104 642.908 48.104ZM659.696 46.28H662V51.68H669.248V46.28H671.552V59H669.248V53.672H662V59H659.696V46.28ZM680.808 46.16C682.568 46.16 683.912 46.592 684.84 47.456C685.784 48.32 686.256 49.608 686.256 51.32V59H684.072V57.32C683.688 57.912 683.136 58.368 682.416 58.688C681.712 58.992 680.872 59.144 679.896 59.144C678.472 59.144 677.328 58.8 676.464 58.112C675.616 57.424 675.192 56.52 675.192 55.4C675.192 54.28 675.6 53.384 676.416 52.712C677.232 52.024 678.528 51.68 680.304 51.68H683.952V51.224C683.952 50.232 683.664 49.472 683.088 48.944C682.512 48.416 681.664 48.152 680.544 48.152C679.792 48.152 679.056 48.28 678.336 48.536C677.616 48.776 677.008 49.104 676.512 49.52L675.552 47.792C676.208 47.264 676.992 46.864 677.904 46.592C678.816 46.304 679.784 46.16 680.808 46.16ZM680.28 57.368C681.16 57.368 681.92 57.176 682.56 56.792C683.2 56.392 683.664 55.832 683.952 55.112V53.336H680.4C678.448 53.336 677.472 53.992 677.472 55.304C677.472 55.944 677.72 56.448 678.216 56.816C678.712 57.184 679.4 57.368 680.28 57.368ZM690.644 46.28H692.948V55.544L700.748 46.28H702.836V59H700.532V49.736L692.756 59H690.644V46.28ZM696.596 44.624C695.412 44.624 694.492 44.344 693.836 43.784C693.18 43.208 692.844 42.384 692.828 41.312H694.388C694.404 41.904 694.604 42.384 694.988 42.752C695.388 43.104 695.916 43.28 696.572 43.28C697.228 43.28 697.756 43.104 698.156 42.752C698.556 42.384 698.764 41.904 698.78 41.312H700.388C700.372 42.384 700.028 43.208 699.356 43.784C698.684 44.344 697.764 44.624 696.596 44.624ZM720.485 56.984V61.952H718.325V59H707.693V61.952H705.509V56.984H706.181C706.997 56.936 707.557 56.36 707.861 55.256C708.165 54.152 708.373 52.592 708.485 50.576L708.677 46.28H718.541V56.984H720.485ZM710.597 50.744C710.533 52.344 710.397 53.672 710.189 54.728C709.997 55.768 709.637 56.52 709.109 56.984H716.237V48.296H710.717L710.597 50.744ZM735.222 52.712C735.222 52.888 735.206 53.12 735.174 53.408H724.854C724.998 54.528 725.486 55.432 726.318 56.12C727.166 56.792 728.214 57.128 729.462 57.128C730.982 57.128 732.206 56.616 733.134 55.592L734.406 57.08C733.83 57.752 733.11 58.264 732.246 58.616C731.398 58.968 730.446 59.144 729.39 59.144C728.046 59.144 726.854 58.872 725.814 58.328C724.774 57.768 723.966 56.992 723.39 56C722.83 55.008 722.55 53.888 722.55 52.64C722.55 51.408 722.822 50.296 723.366 49.304C723.926 48.312 724.686 47.544 725.646 47C726.622 46.44 727.718 46.16 728.934 46.16C730.15 46.16 731.23 46.44 732.174 47C733.134 47.544 733.878 48.312 734.406 49.304C734.95 50.296 735.222 51.432 735.222 52.712ZM728.934 48.104C727.83 48.104 726.902 48.44 726.15 49.112C725.414 49.784 724.982 50.664 724.854 51.752H733.014C732.886 50.68 732.446 49.808 731.694 49.136C730.958 48.448 730.038 48.104 728.934 48.104ZM739.036 46.28H741.34V51.68H748.588V46.28H750.892V59H748.588V53.672H741.34V59H739.036V46.28ZM761.06 59.144C759.796 59.144 758.66 58.864 757.652 58.304C756.644 57.744 755.852 56.976 755.276 56C754.716 55.008 754.436 53.888 754.436 52.64C754.436 51.392 754.716 50.28 755.276 49.304C755.852 48.312 756.644 47.544 757.652 47C758.66 46.44 759.796 46.16 761.06 46.16C762.324 46.16 763.452 46.44 764.444 47C765.452 47.544 766.236 48.312 766.796 49.304C767.372 50.28 767.66 51.392 767.66 52.64C767.66 53.888 767.372 55.008 766.796 56C766.236 56.976 765.452 57.744 764.444 58.304C763.452 58.864 762.324 59.144 761.06 59.144ZM761.06 57.128C761.876 57.128 762.604 56.944 763.244 56.576C763.9 56.192 764.412 55.664 764.78 54.992C765.148 54.304 765.332 53.52 765.332 52.64C765.332 51.76 765.148 50.984 764.78 50.312C764.412 49.624 763.9 49.096 763.244 48.728C762.604 48.36 761.876 48.176 761.06 48.176C760.244 48.176 759.508 48.36 758.852 48.728C758.212 49.096 757.7 49.624 757.316 50.312C756.948 50.984 756.764 51.76 756.764 52.64C756.764 53.52 756.948 54.304 757.316 54.992C757.7 55.664 758.212 56.192 758.852 56.576C759.508 56.944 760.244 57.128 761.06 57.128ZM771.45 59.144C771.002 59.144 770.618 58.992 770.298 58.688C769.978 58.368 769.818 57.968 769.818 57.488C769.818 57.024 769.978 56.64 770.298 56.336C770.618 56.016 771.002 55.856 771.45 55.856C771.898 55.856 772.274 56.008 772.578 56.312C772.882 56.616 773.034 57.008 773.034 57.488C773.034 57.968 772.874 58.368 772.554 58.688C772.25 58.992 771.882 59.144 771.45 59.144ZM798.165 42.2V59H795.813V44.288H786.069V59H783.693V42.2H798.165ZM808.708 59.144C807.444 59.144 806.308 58.864 805.3 58.304C804.292 57.744 803.5 56.976 802.924 56C802.364 55.008 802.084 53.888 802.084 52.64C802.084 51.392 802.364 50.28 802.924 49.304C803.5 48.312 804.292 47.544 805.3 47C806.308 46.44 807.444 46.16 808.708 46.16C809.972 46.16 811.1 46.44 812.092 47C813.1 47.544 813.884 48.312 814.444 49.304C815.02 50.28 815.308 51.392 815.308 52.64C815.308 53.888 815.02 55.008 814.444 56C813.884 56.976 813.1 57.744 812.092 58.304C811.1 58.864 809.972 59.144 808.708 59.144ZM808.708 57.128C809.524 57.128 810.252 56.944 810.892 56.576C811.548 56.192 812.06 55.664 812.428 54.992C812.796 54.304 812.98 53.52 812.98 52.64C812.98 51.76 812.796 50.984 812.428 50.312C812.06 49.624 811.548 49.096 810.892 48.728C810.252 48.36 809.524 48.176 808.708 48.176C807.892 48.176 807.156 48.36 806.5 48.728C805.86 49.096 805.348 49.624 804.964 50.312C804.596 50.984 804.412 51.76 804.412 52.64C804.412 53.52 804.596 54.304 804.964 54.992C805.348 55.664 805.86 56.192 806.5 56.576C807.156 56.944 807.892 57.128 808.708 57.128ZM830.659 46.28V59H828.355V48.296H821.179V59H818.875V46.28H830.659ZM842.101 46.16C843.333 46.16 844.437 46.432 845.413 46.976C846.389 47.52 847.149 48.28 847.693 49.256C848.253 50.232 848.533 51.36 848.533 52.64C848.533 53.92 848.253 55.056 847.693 56.048C847.149 57.024 846.389 57.784 845.413 58.328C844.437 58.872 843.333 59.144 842.101 59.144C841.189 59.144 840.349 58.968 839.581 58.616C838.829 58.264 838.189 57.752 837.661 57.08V63.656H835.357V46.28H837.565V48.296C838.077 47.592 838.725 47.064 839.509 46.712C840.293 46.344 841.157 46.16 842.101 46.16ZM841.909 57.128C842.725 57.128 843.453 56.944 844.093 56.576C844.749 56.192 845.261 55.664 845.629 54.992C846.013 54.304 846.205 53.52 846.205 52.64C846.205 51.76 846.013 50.984 845.629 50.312C845.261 49.624 844.749 49.096 844.093 48.728C843.453 48.36 842.725 48.176 841.909 48.176C841.109 48.176 840.381 48.368 839.725 48.752C839.085 49.12 838.573 49.64 838.189 50.312C837.821 50.984 837.637 51.76 837.637 52.64C837.637 53.52 837.821 54.304 838.189 54.992C838.557 55.664 839.069 56.192 839.725 56.576C840.381 56.944 841.109 57.128 841.909 57.128ZM857.568 59.144C856.304 59.144 855.168 58.864 854.16 58.304C853.152 57.744 852.36 56.976 851.784 56C851.224 55.008 850.944 53.888 850.944 52.64C850.944 51.392 851.224 50.28 851.784 49.304C852.36 48.312 853.152 47.544 854.16 47C855.168 46.44 856.304 46.16 857.568 46.16C858.832 46.16 859.96 46.44 860.952 47C861.96 47.544 862.744 48.312 863.304 49.304C863.88 50.28 864.168 51.392 864.168 52.64C864.168 53.888 863.88 55.008 863.304 56C862.744 56.976 861.96 57.744 860.952 58.304C859.96 58.864 858.832 59.144 857.568 59.144ZM857.568 57.128C858.384 57.128 859.112 56.944 859.752 56.576C860.408 56.192 860.92 55.664 861.288 54.992C861.656 54.304 861.84 53.52 861.84 52.64C861.84 51.76 861.656 50.984 861.288 50.312C860.92 49.624 860.408 49.096 859.752 48.728C859.112 48.36 858.384 48.176 857.568 48.176C856.752 48.176 856.016 48.36 855.36 48.728C854.72 49.096 854.208 49.624 853.824 50.312C853.456 50.984 853.272 51.76 853.272 52.64C853.272 53.52 853.456 54.304 853.824 54.992C854.208 55.664 854.72 56.192 855.36 56.576C856.016 56.944 856.752 57.128 857.568 57.128ZM874.215 46.712C875.399 46.712 876.455 46.976 877.383 47.504C878.311 48.032 879.031 48.768 879.543 49.712C880.071 50.64 880.335 51.704 880.335 52.904C880.335 54.136 880.055 55.232 879.495 56.192C878.951 57.136 878.175 57.872 877.167 58.4C876.175 58.928 875.039 59.192 873.759 59.192C871.599 59.192 869.927 58.456 868.743 56.984C867.575 55.496 866.991 53.408 866.991 50.72C866.991 48.112 867.527 46.072 868.599 44.6C869.671 43.112 871.311 42.128 873.519 41.648L879.327 40.352L879.663 42.464L874.311 43.616C872.647 43.984 871.407 44.608 870.591 45.488C869.775 46.368 869.311 47.632 869.199 49.28C869.743 48.464 870.447 47.832 871.311 47.384C872.175 46.936 873.143 46.712 874.215 46.712ZM873.807 57.272C874.623 57.272 875.343 57.088 875.967 56.72C876.607 56.352 877.103 55.848 877.455 55.208C877.807 54.552 877.983 53.808 877.983 52.976C877.983 51.712 877.599 50.696 876.831 49.928C876.063 49.16 875.055 48.776 873.807 48.776C872.559 48.776 871.543 49.16 870.759 49.928C869.991 50.696 869.607 51.712 869.607 52.976C869.607 53.808 869.783 54.552 870.135 55.208C870.503 55.848 871.007 56.352 871.647 56.72C872.287 57.088 873.007 57.272 873.807 57.272ZM894.866 46.28L888.698 60.272C888.154 61.568 887.514 62.48 886.778 63.008C886.058 63.536 885.186 63.8 884.162 63.8C883.538 63.8 882.93 63.696 882.338 63.488C881.762 63.296 881.282 63.008 880.898 62.624L881.882 60.896C882.538 61.52 883.298 61.832 884.162 61.832C884.722 61.832 885.186 61.68 885.554 61.376C885.938 61.088 886.282 60.584 886.586 59.864L886.994 58.976L881.378 46.28H883.778L888.218 56.456L892.61 46.28H894.866ZM897.465 46.28H899.769V55.544L907.569 46.28H909.657V59H907.353V49.736L899.577 59H897.465V46.28ZM903.417 44.624C902.233 44.624 901.313 44.344 900.657 43.784C900.001 43.208 899.665 42.384 899.649 41.312H901.209C901.225 41.904 901.425 42.384 901.809 42.752C902.209 43.104 902.737 43.28 903.393 43.28C904.049 43.28 904.577 43.104 904.977 42.752C905.377 42.384 905.585 41.904 905.601 41.312H907.209C907.193 42.384 906.849 43.208 906.177 43.784C905.505 44.344 904.585 44.624 903.417 44.624ZM923.85 48.296H919.194V59H916.89V48.296H912.234V46.28H923.85V48.296ZM937.379 52.712C937.379 52.888 937.363 53.12 937.331 53.408H927.011C927.155 54.528 927.643 55.432 928.475 56.12C929.323 56.792 930.371 57.128 931.619 57.128C933.139 57.128 934.363 56.616 935.291 55.592L936.563 57.08C935.987 57.752 935.267 58.264 934.403 58.616C933.555 58.968 932.603 59.144 931.547 59.144C930.203 59.144 929.011 58.872 927.971 58.328C926.931 57.768 926.123 56.992 925.547 56C924.987 55.008 924.707 53.888 924.707 52.64C924.707 51.408 924.979 50.296 925.523 49.304C926.083 48.312 926.843 47.544 927.803 47C928.779 46.44 929.875 46.16 931.091 46.16C932.307 46.16 933.387 46.44 934.331 47C935.291 47.544 936.035 48.312 936.563 49.304C937.107 50.296 937.379 51.432 937.379 52.712ZM931.091 48.104C929.987 48.104 929.059 48.44 928.307 49.112C927.571 49.784 927.139 50.664 927.011 51.752H935.171C935.043 50.68 934.603 49.808 933.851 49.136C933.115 48.448 932.195 48.104 931.091 48.104ZM953.423 59.144C952.127 59.144 950.967 58.864 949.943 58.304C948.935 57.744 948.143 56.976 947.567 56C946.991 55.008 946.703 53.888 946.703 52.64C946.703 51.392 946.991 50.28 947.567 49.304C948.143 48.312 948.935 47.544 949.943 47C950.967 46.44 952.127 46.16 953.423 46.16C954.575 46.16 955.599 46.392 956.495 46.856C957.407 47.32 958.111 47.992 958.607 48.872L956.855 50C956.455 49.392 955.959 48.936 955.367 48.632C954.775 48.328 954.119 48.176 953.399 48.176C952.567 48.176 951.815 48.36 951.143 48.728C950.487 49.096 949.967 49.624 949.583 50.312C949.215 50.984 949.031 51.76 949.031 52.64C949.031 53.536 949.215 54.328 949.583 55.016C949.967 55.688 950.487 56.208 951.143 56.576C951.815 56.944 952.567 57.128 953.399 57.128C954.119 57.128 954.775 56.976 955.367 56.672C955.959 56.368 956.455 55.912 956.855 55.304L958.607 56.408C958.111 57.288 957.407 57.968 956.495 58.448C955.599 58.912 954.575 59.144 953.423 59.144ZM961.829 46.28H964.133V51.68H971.381V46.28H973.685V59H971.381V53.672H964.133V59H961.829V46.28ZM983.853 59.144C982.589 59.144 981.453 58.864 980.445 58.304C979.437 57.744 978.645 56.976 978.069 56C977.509 55.008 977.229 53.888 977.229 52.64C977.229 51.392 977.509 50.28 978.069 49.304C978.645 48.312 979.437 47.544 980.445 47C981.453 46.44 982.589 46.16 983.853 46.16C985.117 46.16 986.245 46.44 987.237 47C988.245 47.544 989.029 48.312 989.589 49.304C990.165 50.28 990.453 51.392 990.453 52.64C990.453 53.888 990.165 55.008 989.589 56C989.029 56.976 988.245 57.744 987.237 58.304C986.245 58.864 985.117 59.144 983.853 59.144ZM983.853 57.128C984.669 57.128 985.397 56.944 986.037 56.576C986.693 56.192 987.205 55.664 987.573 54.992C987.941 54.304 988.125 53.52 988.125 52.64C988.125 51.76 987.941 50.984 987.573 50.312C987.205 49.624 986.693 49.096 986.037 48.728C985.397 48.36 984.669 48.176 983.853 48.176C983.037 48.176 982.301 48.36 981.645 48.728C981.005 49.096 980.493 49.624 980.109 50.312C979.741 50.984 979.557 51.76 979.557 52.64C979.557 53.52 979.741 54.304 980.109 54.992C980.493 55.664 981.005 56.192 981.645 56.576C982.301 56.944 983.037 57.128 983.853 57.128ZM1002.68 52.4C1004.33 52.816 1005.16 53.848 1005.16 55.496C1005.16 56.616 1004.73 57.48 1003.88 58.088C1003.05 58.696 1001.8 59 1000.14 59H994.02V46.28H999.924C1001.43 46.28 1002.6 46.568 1003.45 47.144C1004.3 47.704 1004.72 48.504 1004.72 49.544C1004.72 50.216 1004.54 50.8 1004.17 51.296C1003.82 51.776 1003.32 52.144 1002.68 52.4ZM996.276 51.752H999.732C1000.61 51.752 1001.28 51.592 1001.72 51.272C1002.19 50.952 1002.42 50.488 1002.42 49.88C1002.42 48.664 1001.52 48.056 999.732 48.056H996.276V51.752ZM999.972 57.224C1000.93 57.224 1001.65 57.072 1002.13 56.768C1002.61 56.464 1002.85 55.992 1002.85 55.352C1002.85 54.696 1002.63 54.208 1002.18 53.888C1001.75 53.568 1001.06 53.408 1000.12 53.408H996.276V57.224H999.972ZM1013.54 46.16C1015.3 46.16 1016.64 46.592 1017.57 47.456C1018.51 48.32 1018.99 49.608 1018.99 51.32V59H1016.8V57.32C1016.42 57.912 1015.87 58.368 1015.15 58.688C1014.44 58.992 1013.6 59.144 1012.63 59.144C1011.2 59.144 1010.06 58.8 1009.19 58.112C1008.35 57.424 1007.92 56.52 1007.92 55.4C1007.92 54.28 1008.33 53.384 1009.15 52.712C1009.96 52.024 1011.26 51.68 1013.03 51.68H1016.68V51.224C1016.68 50.232 1016.39 49.472 1015.82 48.944C1015.24 48.416 1014.39 48.152 1013.27 48.152C1012.52 48.152 1011.79 48.28 1011.07 48.536C1010.35 48.776 1009.74 49.104 1009.24 49.52L1008.28 47.792C1008.94 47.264 1009.72 46.864 1010.63 46.592C1011.55 46.304 1012.51 46.16 1013.54 46.16ZM1013.01 57.368C1013.89 57.368 1014.65 57.176 1015.29 56.792C1015.93 56.392 1016.39 55.832 1016.68 55.112V53.336H1013.13C1011.18 53.336 1010.2 53.992 1010.2 55.304C1010.2 55.944 1010.45 56.448 1010.95 56.816C1011.44 57.184 1012.13 57.368 1013.01 57.368Z" fill="white"/>
<g clip-path="url(#clip0)">
<path d="M93.3079 37.5099C90.155 35.4142 86.3698 34.5919 82.637 35.1905C82.572 35.1918 82.507 35.198 82.4421 35.2093C78.4956 35.894 75.0515 38.0747 72.7434 41.3488C70.4378 44.6242 69.5442 48.6006 70.2278 52.5484C70.3416 53.1994 70.5002 53.8555 70.7002 54.4928C71.5263 57.1758 71.3225 60.0513 70.1279 62.5894C69.9192 63.0292 69.9879 63.5516 70.3016 63.9253C70.6153 64.2989 71.1126 64.4539 71.5875 64.3264L77.1897 62.7968C79.5616 64.2489 82.2396 65 84.9738 65C85.9673 65 86.9683 64.9013 87.9643 64.7C91.892 63.909 95.2761 61.6371 97.493 58.3018C102.071 51.4162 100.194 42.0899 93.3079 37.5099ZM95.4123 56.9184C93.564 59.6989 90.7436 61.5922 87.4719 62.2508C84.2028 62.9093 80.8687 62.2545 78.087 60.405C77.8796 60.2676 77.6383 60.1963 77.3947 60.1963C77.2847 60.1963 77.1735 60.2113 77.0647 60.2413L73.2508 61.2823C73.8943 58.8254 73.8468 56.2236 73.087 53.7506C72.9184 53.212 72.7846 52.6634 72.6909 52.121C72.121 48.8319 72.8659 45.5178 74.7878 42.7885C76.6773 40.1055 79.4828 38.3047 82.7032 37.7036C82.7632 37.701 82.8219 37.6948 82.8819 37.6848C86.0423 37.1387 89.2539 37.8173 91.9257 39.5931C97.6642 43.4083 99.2275 51.18 95.4123 56.9184Z" fill="white"/>
<path d="M85.0036 42.3773C84.3125 42.3773 83.7539 42.9359 83.7539 43.627V51.125C83.7539 51.816 84.3125 52.3746 85.0036 52.3746C85.6946 52.3746 86.2532 51.8148 86.2532 51.125V43.627C86.2532 42.9359 85.6947 42.3773 85.0036 42.3773Z" fill="white"/>
<path d="M86.1539 55.7724C86.0915 55.61 86.004 55.4725 85.8915 55.3601C85.829 55.3101 85.7665 55.2476 85.6916 55.2101C85.6291 55.1601 85.5541 55.1239 85.4791 55.0976C85.4041 55.0589 85.3292 55.0352 85.2417 55.0226C84.843 54.9351 84.4044 55.0738 84.1183 55.3601C84.0058 55.4725 83.9183 55.61 83.8558 55.7724C83.7934 55.9224 83.7559 56.0848 83.7559 56.2473C83.7559 56.4098 83.7934 56.5722 83.8558 56.7222C83.9183 56.8722 84.0058 57.0096 84.1183 57.1346C84.2432 57.247 84.3807 57.3345 84.5306 57.397C84.6806 57.4595 84.843 57.497 85.0055 57.497C85.168 57.497 85.3292 57.4595 85.4791 57.397C85.6291 57.3346 85.7653 57.2471 85.8915 57.1346C86.004 57.0096 86.0914 56.8722 86.1539 56.7222C86.2164 56.5723 86.2539 56.4098 86.2539 56.2473C86.2539 56.0848 86.2164 55.9224 86.1539 55.7724Z" fill="white"/>
</g>
<defs>
<clipPath id="clip0">
<rect width="30" height="30" fill="white" transform="translate(70 35)"/>
</clipPath>
</defs>
</svg>
