<svg width="230" height="230" viewBox="0 0 230 230" fill="none" xmlns="http://www.w3.org/2000/svg">
<rect width="230" height="230" fill="white"/>
<path fill-rule="evenodd" clip-rule="evenodd" d="M87.062 37.239C85.2125 37.681 83.4269 38.7048 82.0684 40.1024C79.7152 42.5232 78.8843 45.2489 78.8843 50.5467V53.6385L72.767 53.8003C66.0581 53.9777 64.4949 54.2959 60.8828 56.2179C55.5968 59.0309 52.0892 63.5552 50.5823 69.505C49.9642 71.9458 49.9505 72.9198 50.0402 107.835C50.1266 141.607 50.1654 143.76 50.7154 145.405C52.523 150.811 56.369 155.421 61.0099 157.744C65.6968 160.089 64.0879 159.991 97.7921 159.988C125.92 159.986 128.027 159.949 128.659 159.438C130.284 158.123 130.462 156.35 129.119 154.849L128.192 153.813L97.5798 153.655C69.2006 153.507 66.8643 153.455 65.5512 152.931C60.8812 151.071 57.6719 147.34 56.6763 142.614C56.4285 141.437 56.322 130.664 56.322 106.749C56.322 69.9685 56.2851 70.8553 57.949 67.5988C59.7279 64.1177 63.841 61.1433 67.8999 60.4031C70.5527 59.9192 157.467 59.9221 160.098 60.4059C162.944 60.9297 165.249 62.1633 167.408 64.3195C169.564 66.4719 170.793 68.7572 171.344 71.6396C171.607 73.0169 171.681 83.103 171.612 108.126L171.517 142.709L170.78 144.529C169.114 148.649 165.994 151.659 162.049 152.952C160.004 153.622 159.398 153.655 149.027 153.656C138.716 153.657 138.096 153.69 137.109 154.29C135.228 155.436 135.035 157.439 136.643 159.128L137.474 160H148.638C155.237 160 160.572 159.86 161.686 159.658C162.724 159.47 164.908 158.687 166.541 157.919C171.452 155.609 175.086 151.423 177.13 145.723L177.869 143.66L177.961 108.285C178.064 68.6109 178.134 70.0139 175.813 65.2941C173.841 61.2863 171.201 58.4991 167.324 56.3302C163.796 54.3571 161.999 53.9815 155.23 53.8013L149.113 53.6385L149.111 50.8998C149.108 47.2902 148.625 44.4639 147.699 42.6402C146.774 40.8169 144.48 38.6581 142.496 37.7425C141.014 37.0588 140.94 37.0569 114.634 37.0048C99.8713 36.976 87.7318 37.0791 87.062 37.239ZM140.019 43.6837C140.6 43.9258 141.411 44.595 141.821 45.1711C142.48 46.0944 142.584 46.6636 142.702 49.9661L142.836 53.7137H113.999H85.1613L85.2973 49.9064C85.4496 45.6464 85.7858 44.8272 87.8046 43.7996C88.8148 43.2853 90.7228 43.2446 113.929 43.2443C134.557 43.2437 139.151 43.3211 140.019 43.6837ZM76.1812 82.9827C75.6172 83.4672 75.2908 84.1325 75.1675 85.0504L74.9858 86.4039L78.5916 90.0528L82.1974 93.7018L79.1553 96.7892C77.4822 98.4875 75.8787 100.23 75.5921 100.661C74.9025 101.7 74.9355 102.824 75.6925 104.064C76.3646 105.164 77.8982 105.679 79.2538 105.259C79.6622 105.133 81.5339 103.521 83.4129 101.678L86.8294 98.3263L90.4349 101.878C93.7296 105.124 94.1421 105.429 95.2254 105.429C96.9534 105.429 98.2687 104.047 98.2687 102.232C98.2687 100.95 98.1127 100.732 94.7868 97.3666L91.3049 93.843L94.7868 90.3279C98.1162 86.967 98.2687 86.7541 98.2687 85.4679C98.2687 83.7004 96.9499 82.2682 95.322 82.2682C93.9616 82.2682 92.5745 83.2698 89.2241 86.6707L86.694 89.239L83.1555 85.7535C79.8119 82.4598 79.5459 82.2682 78.3151 82.2682C77.4228 82.2682 76.7513 82.4929 76.1812 82.9827ZM130.658 83.1956C129.923 83.9288 129.729 84.4044 129.729 85.4679C129.729 86.7541 129.881 86.967 133.211 90.3279L136.693 93.843L133.211 97.3666C129.885 100.732 129.729 100.95 129.729 102.232C129.729 104.047 131.044 105.429 132.772 105.429C133.855 105.429 134.268 105.123 137.569 101.871L141.181 98.3136L144.591 101.706C147.064 104.166 148.284 105.154 149.032 105.303C151.786 105.85 153.911 102.927 152.405 100.661C152.119 100.23 150.515 98.4875 148.842 96.7892L145.8 93.7018L149.406 90.0528L153.012 86.4039L152.83 85.0504C152.59 83.2622 151.465 82.2682 149.682 82.2682C148.452 82.2682 148.186 82.4598 144.842 85.7535L141.304 89.239L138.773 86.6707C134.169 81.9966 132.552 81.3043 130.658 83.1956ZM83.9687 124.37C81.5828 125.253 81.1233 128.307 83.132 129.931C83.7637 130.442 85.8687 130.48 113.999 130.48C142.129 130.48 144.234 130.442 144.866 129.931C146.496 128.613 146.604 126.472 145.111 125.071L144.295 124.307L114.371 124.25C97.9116 124.219 84.2309 124.273 83.9687 124.37Z" fill="#8C1E1B"/>
<path d="M41.2832 180.4V193H38.9432V187.6H32.4272V193H30.0872V180.4H32.4272V185.602H38.9432V180.4H41.2832ZM53.5657 188.248C53.5657 188.404 53.5537 188.626 53.5297 188.914H45.9877C46.1197 189.622 46.4617 190.186 47.0137 190.606C47.5777 191.014 48.2737 191.218 49.1017 191.218C50.1577 191.218 51.0277 190.87 51.7117 190.174L52.9177 191.56C52.4857 192.076 51.9397 192.466 51.2797 192.73C50.6197 192.994 49.8757 193.126 49.0477 193.126C47.9917 193.126 47.0617 192.916 46.2577 192.496C45.4537 192.076 44.8297 191.494 44.3857 190.75C43.9537 189.994 43.7377 189.142 43.7377 188.194C43.7377 187.258 43.9477 186.418 44.3677 185.674C44.7997 184.918 45.3937 184.33 46.1497 183.91C46.9057 183.49 47.7577 183.28 48.7057 183.28C49.6417 183.28 50.4757 183.49 51.2077 183.91C51.9517 184.318 52.5277 184.9 52.9357 185.656C53.3557 186.4 53.5657 187.264 53.5657 188.248ZM48.7057 185.08C47.9857 185.08 47.3737 185.296 46.8697 185.728C46.3777 186.148 46.0777 186.712 45.9697 187.42H51.4237C51.3277 186.724 51.0337 186.16 50.5417 185.728C50.0497 185.296 49.4377 185.08 48.7057 185.08ZM63.2891 185.296H59.9231V193H57.6731V185.296H54.2891V183.388H63.2891V185.296ZM69.8958 183.388H72.1458V189.724L77.4558 183.388H79.5078V193H77.2578V186.664L71.9658 193H69.8958V183.388ZM88.1534 187.996C88.7534 188.164 89.2154 188.44 89.5394 188.824C89.8754 189.196 90.0434 189.646 90.0434 190.174C90.0434 190.762 89.8454 191.284 89.4494 191.74C89.0534 192.184 88.5074 192.532 87.8114 192.784C87.1154 193.036 86.3234 193.162 85.4354 193.162C84.6914 193.162 83.9654 193.078 83.2574 192.91C82.5494 192.73 81.9074 192.478 81.3314 192.154L81.9794 190.48C82.4474 190.744 82.9754 190.948 83.5634 191.092C84.1514 191.236 84.7394 191.308 85.3274 191.308C86.0834 191.308 86.6714 191.194 87.0914 190.966C87.5234 190.726 87.7394 190.402 87.7394 189.994C87.7394 189.622 87.5714 189.334 87.2354 189.13C86.9114 188.926 86.4494 188.824 85.8494 188.824H83.9774V187.312H85.6694C86.2334 187.312 86.6714 187.216 86.9834 187.024C87.3074 186.832 87.4694 186.562 87.4694 186.214C87.4694 185.866 87.2774 185.59 86.8934 185.386C86.5094 185.182 85.9814 185.08 85.3094 185.08C84.3494 185.08 83.3354 185.314 82.2674 185.782L81.6914 184.126C82.9514 183.538 84.2234 183.244 85.5074 183.244C86.3234 183.244 87.0554 183.358 87.7034 183.586C88.3514 183.802 88.8554 184.114 89.2154 184.522C89.5874 184.918 89.7734 185.374 89.7734 185.89C89.7734 186.358 89.6294 186.778 89.3414 187.15C89.0534 187.51 88.6574 187.792 88.1534 187.996ZM96.6622 193.126C95.6902 193.126 94.8142 192.916 94.0342 192.496C93.2542 192.076 92.6422 191.494 92.1982 190.75C91.7662 189.994 91.5502 189.142 91.5502 188.194C91.5502 187.246 91.7662 186.4 92.1982 185.656C92.6422 184.912 93.2542 184.33 94.0342 183.91C94.8142 183.49 95.6902 183.28 96.6622 183.28C97.6462 183.28 98.5282 183.49 99.3082 183.91C100.088 184.33 100.694 184.912 101.126 185.656C101.57 186.4 101.792 187.246 101.792 188.194C101.792 189.142 101.57 189.994 101.126 190.75C100.694 191.494 100.088 192.076 99.3082 192.496C98.5282 192.916 97.6462 193.126 96.6622 193.126ZM96.6622 191.2C97.4902 191.2 98.1742 190.924 98.7142 190.372C99.2542 189.82 99.5242 189.094 99.5242 188.194C99.5242 187.294 99.2542 186.568 98.7142 186.016C98.1742 185.464 97.4902 185.188 96.6622 185.188C95.8342 185.188 95.1502 185.464 94.6102 186.016C94.0822 186.568 93.8182 187.294 93.8182 188.194C93.8182 189.094 94.0822 189.82 94.6102 190.372C95.1502 190.924 95.8342 191.2 96.6622 191.2ZM109.217 183.856C110.129 183.856 110.933 184.054 111.629 184.45C112.325 184.834 112.865 185.374 113.249 186.07C113.645 186.766 113.843 187.564 113.843 188.464C113.843 189.388 113.627 190.21 113.195 190.93C112.763 191.638 112.157 192.19 111.377 192.586C110.597 192.982 109.709 193.18 108.713 193.18C107.045 193.18 105.755 192.628 104.843 191.524C103.931 190.42 103.475 188.83 103.475 186.754C103.475 184.822 103.889 183.292 104.717 182.164C105.545 181.036 106.811 180.292 108.515 179.932L112.979 178.978L113.303 180.994L109.253 181.822C108.089 182.062 107.219 182.47 106.643 183.046C106.067 183.622 105.731 184.432 105.635 185.476C106.067 184.96 106.589 184.564 107.201 184.288C107.813 184 108.485 183.856 109.217 183.856ZM108.767 191.362C109.595 191.362 110.261 191.098 110.765 190.57C111.281 190.03 111.539 189.346 111.539 188.518C111.539 187.69 111.281 187.024 110.765 186.52C110.261 186.016 109.595 185.764 108.767 185.764C107.927 185.764 107.249 186.016 106.733 186.52C106.217 187.024 105.959 187.69 105.959 188.518C105.959 189.358 106.217 190.042 106.733 190.57C107.261 191.098 107.939 191.362 108.767 191.362ZM121.349 183.28C122.285 183.28 123.119 183.484 123.851 183.892C124.595 184.3 125.177 184.876 125.597 185.62C126.017 186.364 126.227 187.222 126.227 188.194C126.227 189.166 126.017 190.03 125.597 190.786C125.177 191.53 124.595 192.106 123.851 192.514C123.119 192.922 122.285 193.126 121.349 193.126C120.053 193.126 119.027 192.694 118.271 191.83V196.492H116.021V183.388H118.163V184.648C118.535 184.192 118.991 183.85 119.531 183.622C120.083 183.394 120.689 183.28 121.349 183.28ZM121.097 191.2C121.925 191.2 122.603 190.924 123.131 190.372C123.671 189.82 123.941 189.094 123.941 188.194C123.941 187.294 123.671 186.568 123.131 186.016C122.603 185.464 121.925 185.188 121.097 185.188C120.557 185.188 120.071 185.314 119.639 185.566C119.207 185.806 118.865 186.154 118.613 186.61C118.361 187.066 118.235 187.594 118.235 188.194C118.235 188.794 118.361 189.322 118.613 189.778C118.865 190.234 119.207 190.588 119.639 190.84C120.071 191.08 120.557 191.2 121.097 191.2ZM131.925 183.28C133.341 183.28 134.421 183.622 135.165 184.306C135.921 184.978 136.299 185.998 136.299 187.366V193H134.175V191.83C133.899 192.25 133.503 192.574 132.987 192.802C132.483 193.018 131.871 193.126 131.151 193.126C130.431 193.126 129.801 193.006 129.261 192.766C128.721 192.514 128.301 192.172 128.001 191.74C127.713 191.296 127.569 190.798 127.569 190.246C127.569 189.382 127.887 188.692 128.523 188.176C129.171 187.648 130.185 187.384 131.565 187.384H134.049V187.24C134.049 186.568 133.845 186.052 133.437 185.692C133.041 185.332 132.447 185.152 131.655 185.152C131.115 185.152 130.581 185.236 130.053 185.404C129.537 185.572 129.099 185.806 128.739 186.106L127.857 184.468C128.361 184.084 128.967 183.79 129.675 183.586C130.383 183.382 131.133 183.28 131.925 183.28ZM131.619 191.488C132.183 191.488 132.681 191.362 133.113 191.11C133.557 190.846 133.869 190.474 134.049 189.994V188.878H131.727C130.431 188.878 129.783 189.304 129.783 190.156C129.783 190.564 129.945 190.888 130.269 191.128C130.593 191.368 131.043 191.488 131.619 191.488ZM148.209 189.148H146.589V193H144.357V189.148H142.737L140.397 193H137.733L140.883 188.032L137.967 183.388H140.361L142.701 187.276H144.357V183.388H146.589V187.276H148.227L150.585 183.388H152.979L150.063 188.032L153.231 193H150.549L148.209 189.148ZM163.587 188.248C163.587 188.404 163.575 188.626 163.551 188.914H156.009C156.141 189.622 156.483 190.186 157.035 190.606C157.599 191.014 158.295 191.218 159.123 191.218C160.179 191.218 161.049 190.87 161.733 190.174L162.939 191.56C162.507 192.076 161.961 192.466 161.301 192.73C160.641 192.994 159.897 193.126 159.069 193.126C158.013 193.126 157.083 192.916 156.279 192.496C155.475 192.076 154.851 191.494 154.407 190.75C153.975 189.994 153.759 189.142 153.759 188.194C153.759 187.258 153.969 186.418 154.389 185.674C154.821 184.918 155.415 184.33 156.171 183.91C156.927 183.49 157.779 183.28 158.727 183.28C159.663 183.28 160.497 183.49 161.229 183.91C161.973 184.318 162.549 184.9 162.957 185.656C163.377 186.4 163.587 187.264 163.587 188.248ZM158.727 185.08C158.007 185.08 157.395 185.296 156.891 185.728C156.399 186.148 156.099 186.712 155.991 187.42H161.445C161.349 186.724 161.055 186.16 160.563 185.728C160.071 185.296 159.459 185.08 158.727 185.08ZM166.048 183.388H168.298V187.294H173.14V183.388H175.39V193H173.14V189.202H168.298V193H166.048V183.388ZM178.406 183.388H180.656V189.724L185.966 183.388H188.018V193H185.768V186.664L180.476 193H178.406V183.388ZM199.162 183.388V193H197.146V190.102H194.608L192.646 193H190.234L192.502 189.796C191.806 189.556 191.272 189.19 190.9 188.698C190.54 188.194 190.36 187.576 190.36 186.844C190.36 185.74 190.75 184.888 191.53 184.288C192.31 183.688 193.384 183.388 194.752 183.388H199.162ZM194.824 185.278C193.372 185.278 192.646 185.824 192.646 186.916C192.646 187.996 193.348 188.536 194.752 188.536H197.146V185.278H194.824Z" fill="#828282"/>
</svg>
