<svg data-name="Layer 1" xmlns="http://www.w3.org/2000/svg" width="299" height="77"><path data-name="Прямоугольник 1" fill="#231f20" d="M157.59 17.242H299v42.485H157.59z"/><path data-name="Прямоугольник 2" fill="#ba131a" d="M0 17.242h158.09v42.485H0z"/><path data-name="Контур 1" d="M31.493 31.283h-8.027v18.709h-5.217v-18.7h-8.027v-4.77h21.271z" fill="#fff"/><path data-name="Контур 2" d="M41.895 49.992h-5.3v-23.47h5.3z" fill="#fff"/><path data-name="Контур 3" d="M60.51 37.167l6.511-10.6h5.637v23.424h-5.15V34.548H67.2l-5.429 8.928h-2.735l-5.429-8.928h-.318v15.481h-5.111V26.521h5.747z" fill="#fff"/><path data-name="Контур 4" d="M95.373 28.24a5.662 5.662 0 012.121 4.687 5.716 5.716 0 01-.583 2.683 4.093 4.093 0 01-1.622 1.665v.316a5.175 5.175 0 012.736 2.025 5.493 5.493 0 011.06 3.361 7.963 7.963 0 01-.5 2.736 5.715 5.715 0 01-1.612 2.206 7.825 7.825 0 01-2.745 1.472 11.76 11.76 0 01-3.881.562H78.98V26.522h10.37a9.2 9.2 0 016.023 1.718zm-5.813 7.529a3.266 3.266 0 002.121-.636 2.322 2.322 0 00.732-1.781c0-1.58-1.06-2.343-3.011-2.343h-5.2v4.761zm.838 9.734c2.312 0 3.467-.912 3.467-2.768a2.343 2.343 0 00-.912-1.993 4.019 4.019 0 00-2.587-.7h-6.158v5.461z" fill="#fff"/><path data-name="Контур 5" d="M121.667 31.251h-12.363v4.411h11.038v4.591h-11.038v5h12.958v4.739h-18.133v-23.47h17.538z" fill="#fff"/><path data-name="Контур 6" d="M142.048 27.125a8.9 8.9 0 012.905 1.612 7.825 7.825 0 011.856 2.513 7.709 7.709 0 01.668 3.3 7.423 7.423 0 01-1.262 4.241 7.783 7.783 0 01-3.531 2.8l5.7 8.409h-6.362l-4.324-6.969h-4.719v7.009h-5.3V26.521h10.6a11.134 11.134 0 013.764.6zm-4.1 11.24a4.549 4.549 0 003.011-.944 3.637 3.637 0 00.064-5.3 4.4 4.4 0 00-2.937-.912h-5.111v7.115z" fill="#fff"/><path data-name="Контур 7" d="M180.276 31.209a12.3 12.3 0 00-3.573-.52 6.924 6.924 0 00-3.3.594 1.93 1.93 0 00-.976 1.718 1.686 1.686 0 00.732 1.506 5.3 5.3 0 002.343.732l3.436.456a10 10 0 015.779 2.386 6.288 6.288 0 011.9 4.793 7 7 0 01-.668 3.117 6.225 6.225 0 01-1.93 2.343 8.483 8.483 0 01-3.181 1.538 14.537 14.537 0 01-4.337.562 22.627 22.627 0 01-5.3-.594 14.347 14.347 0 01-4.655-2.121l2.206-4.305a15.025 15.025 0 003.923 1.75 15.906 15.906 0 004.135.52 6.956 6.956 0 003.467-.7 2.121 2.121 0 001.06-1.887 1.9 1.9 0 00-.763-1.612 5.874 5.874 0 00-2.566-.838l-3.605-.456a9.883 9.883 0 01-5.3-2.121 6.129 6.129 0 01-1.866-4.825 6.363 6.363 0 01.7-3.086 5.938 5.938 0 011.887-2.269 8.4 8.4 0 012.948-1.368 13.477 13.477 0 013.849-.488 17.623 17.623 0 015.217.732 11.664 11.664 0 014.167 2.237l-2.587 3.754a10.985 10.985 0 00-3.139-1.548z" fill="#fff"/><path data-name="Контур 8" d="M210.876 31.283h-8.016v18.709h-5.217v-18.7h-8.027v-4.77h21.207z" fill="#fff"/><path data-name="Контур 9" d="M231.355 26.946a11.452 11.452 0 013.923 2.587 10.922 10.922 0 012.555 3.849 13.117 13.117 0 01.912 4.867 12.481 12.481 0 01-.912 4.729 11.844 11.844 0 01-2.555 3.923 12.237 12.237 0 01-3.923 2.6 12.724 12.724 0 01-5.079.976 13.562 13.562 0 01-5-.912 12.1 12.1 0 01-3.923-2.587 11.059 11.059 0 01-2.6-3.892 13.063 13.063 0 01-.9-4.835 12.841 12.841 0 01.9-4.761 11.017 11.017 0 012.6-3.881 11.961 11.961 0 013.923-2.6 12.226 12.226 0 015-.976 13.7 13.7 0 015.079.912zm-8.123 4.418a6.839 6.839 0 00-3.679 4 8.842 8.842 0 00-.488 2.937 9.193 9.193 0 00.488 2.98 6.7 6.7 0 001.432 2.386 7.9 7.9 0 002.28 1.612 8.069 8.069 0 003.011.562 7.422 7.422 0 003.054-.6 6.436 6.436 0 002.3-1.644 7.793 7.793 0 001.41-2.375 10.1 10.1 0 00.456-2.916 8.9 8.9 0 00-.5-2.969 6.638 6.638 0 00-3.669-4 7.836 7.836 0 00-3.054-.562 7.751 7.751 0 00-3.043.594z" fill="#fff"/><path data-name="Контур 10" d="M265.111 49.992h-5.249l-10.826-15v15h-5.111v-23.47h4.75l11.378 15.831V26.522h5.079z" fill="#fff"/><path data-name="Контур 11" d="M288.972 31.251h-12.335v4.411h11.035v4.591h-11.035v5h12.968v4.739h-18.153v-23.47h17.52z" fill="#fff"/><path data-name="Контур 12" d="M8.801 2.375v8.568H7.242V3.658H3.785v7.285H2.216V2.375z" fill="#231f20"/><path data-name="Контур 13" d="M13.604 8.483l-.732 2.428H11.25l2.746-8.536h2l2.778 8.568h-1.671l-.774-2.46zm2.46-1.177l-.679-2.121c-.17-.52-.308-1.06-.435-1.6-.127.488-.254 1.06-.414 1.6l-.656 2.121z" fill="#231f20"/><path data-name="Контур 14" d="M21.207 2.492a13.17 13.17 0 012.4-.18 3.913 3.913 0 012.534.7 2.428 2.428 0 01.838 1.9 2.577 2.577 0 01-.742 1.94 3.775 3.775 0 01-2.7.923 5.058 5.058 0 01-.763 0v3.181h-1.567zm1.559 3.987a3.054 3.054 0 00.763.064c1.166 0 1.877-.573 1.877-1.569s-.657-1.463-1.739-1.463a4 4 0 00-.9.074z" fill="#231f20"/><path data-name="Контур 15" d="M31.175 2.375v3.679h.254l2.619-3.679h1.9l-3.077 3.87a2.715 2.715 0 012.119 2.121 27.12 27.12 0 00.965 2.577h-1.674a14.04 14.04 0 01-.71-1.94c-.35-1.06-.806-1.792-2.025-1.792h-.371v3.732H29.69V2.375z" fill="#231f20"/><path data-name="Контур 16" d="M43.051 7.147h-3.234V9.66h3.661v1.283h-5.22V2.375h4.984v1.283h-3.425v2.216h3.234z" fill="#231f20"/><path data-name="Контур 17" d="M47.717 3.69h-2.439V2.375h6.468V3.69h-2.46v7.253h-1.569z" fill="#231f20"/><path data-name="Контур 18" d="M67.08 2.375v8.568h-1.57V3.658h-2.333v2.29c0 2.057-.191 3.913-1.453 4.7a3.086 3.086 0 01-1.527.414l-.19-1.264a1.718 1.718 0 00.944-.456c.594-.594.689-1.94.689-3.277v-3.69z" fill="#231f20"/><path data-name="Контур 19" d="M71.866 8.483l-.742 2.428h-1.612l2.746-8.568h1.994l2.79 8.568h-1.687l-.774-2.428zm2.449-1.15l-.679-2.121c-.159-.52-.3-1.06-.424-1.6-.127.488-.254 1.06-.4 1.6l-.66 2.121z" fill="#231f20"/><path data-name="Контур 20" d="M86.725 7.422c0-1.06-.117-2.449-.1-3.605a29.528 29.528 0 01-1.06 3.287l-1.236 3.711H83.12l-1.145-3.637a41.715 41.715 0 01-.87-3.33c0 1.124-.1 2.481-.159 3.648l-.191 3.446h-1.484l.573-8.568h2.067l1.113 3.446c.307 1.06.573 2.025.8 2.98.233-.933.52-1.983.859-2.99l1.173-3.435h2.036l.5 8.568h-1.5z" fill="#231f20"/><path data-name="Контур 21" d="M92.718 2.376v3.022c0 1.368 0 2.619-.106 3.775.445-.965 1.06-2 1.559-2.969l2.269-3.839h1.591v8.57h-1.422V7.911a33.731 33.731 0 01.117-3.552 23.8 23.8 0 01-1.527 2.969l-2.121 3.616h-1.813V2.376z" fill="#231f20"/><path data-name="Контур 22" d="M102.678 2.375v3.436h3.626V2.375h1.559v8.568h-1.559V7.168h-3.626v3.775h-1.569V2.375z" fill="#231f20"/><path data-name="Контур 23" d="M112.64 8.483l-.742 2.428h-1.612l2.746-8.568h1.993l2.789 8.568h-1.686l-.742-2.428zm2.449-1.177l-.679-2.121c-.159-.52-.3-1.06-.424-1.6-.127.488-.254 1.06-.4 1.6l-.657 2.121z" fill="#231f20"/><path data-name="Контур 24" d="M121.194 3.69h-2.439V2.375h6.468V3.69h-2.428v7.253h-1.569z" fill="#231f20"/><path data-name="Контур 25" d="M134.019 2.492a12.725 12.725 0 012.28-.18 4.051 4.051 0 012.46.551 1.8 1.8 0 01.891 1.6 2 2 0 01-1.431 1.9 2.121 2.121 0 011.728 2.121 2.216 2.216 0 01-.827 1.771 4.708 4.708 0 01-3.181.806 14.845 14.845 0 01-1.919-.117zm1.559 3.383h.8c1.06 0 1.7-.509 1.7-1.241s-.615-1.166-1.6-1.166a4.73 4.73 0 00-.891.064zm0 3.945a8.2 8.2 0 00.827 0c1 0 1.887-.382 1.887-1.431s-.859-1.4-1.94-1.4h-.774z" fill="#231f20"/><path data-name="Контур 26" d="M144.056 2.376v3.022c0 1.368 0 2.619-.1 3.775.445-.965 1.007-2 1.569-2.969l2.261-3.839h1.591v8.57h-1.451V7.911a33.736 33.736 0 01.117-3.552 27.073 27.073 0 01-1.527 2.969l-2.121 3.616h-1.739V2.376z" fill="#231f20"/><path data-name="Контур 27" d="M154.017 2.375v3.436h3.626V2.375h1.559v8.568h-1.559V7.168h-3.626v3.775h-1.591V2.375z" fill="#231f20"/><path data-name="Контур 28" d="M163.712 2.376v3.022c0 1.368 0 2.619-.106 3.775.445-.965 1.007-2 1.569-2.969l2.259-3.839h1.591v8.57h-1.442V7.911c0-1.347 0-2.449.106-3.552a23.806 23.806 0 01-1.5 2.969l-2.115 3.615h-1.74V2.376z" fill="#231f20"/><path data-name="Контур 29" d="M178.213 2.375v8.568h-1.569V3.658h-2.334v2.29c0 2.057-.2 3.913-1.453 4.7a3.086 3.086 0 01-1.527.414l-.191-1.262a1.76 1.76 0 00.944-.456c.594-.594.679-1.94.679-3.277V2.375z" fill="#231f20"/><path data-name="Контур 30" d="M189.625 2.375v3.436h3.616V2.375h1.538v8.568h-1.569V7.168h-3.616v3.775h-1.57V2.375z" fill="#231f20"/><path data-name="Контур 31" d="M199.575 8.483l-.732 2.428h-1.611l2.746-8.568h1.993l2.778 8.568h-1.675l-.772-2.428zm2.46-1.177l-.679-2.121c-.159-.52-.3-1.06-.424-1.6-.127.488-.254 1.06-.4 1.6l-.668 2.121z" fill="#231f20"/><path data-name="Контур 32" d="M208.774 2.375v3.436h3.626V2.375h1.569v8.568H212.4V7.168h-3.626v3.775h-1.559V2.375z" fill="#231f20"/><path data-name="Контур 33" d="M224.619 6.574c0 2.874-1.739 4.517-4.1 4.517s-3.948-1.845-3.948-4.364 1.654-4.485 4.072-4.485 3.976 1.893 3.976 4.332zm-6.362.127c0 1.739.88 3.128 2.375 3.128s2.365-1.4 2.365-3.181c0-1.622-.8-3.181-2.365-3.181s-2.407 1.463-2.407 3.234z" fill="#231f20"/><path data-name="Контур 34" d="M233.817 2.375v8.568h-1.555V3.658h-3.467v7.285h-1.563V2.375z" fill="#231f20"/><path data-name="Контур 35" d="M244.529 6.574c0 2.874-1.739 4.517-4.1 4.517s-3.948-1.845-3.948-4.364 1.654-4.485 4.072-4.485 3.976 1.893 3.976 4.332zm-6.362.127c0 1.739.87 3.128 2.375 3.128s2.365-1.4 2.365-3.181c0-1.622-.8-3.181-2.365-3.181s-2.449 1.463-2.449 3.234z" fill="#231f20"/><path data-name="Контур 36" d="M248.558 2.375v3.679h.254l2.619-3.679h1.887l-3.1 3.87a2.736 2.736 0 012.121 2.121 27.119 27.119 0 00.965 2.577h-1.686a17.46 17.46 0 01-.71-1.94c-.339-1.06-.8-1.792-2.015-1.792h-.371v3.732h-1.533V2.375z" fill="#231f20"/><path data-name="Контур 37" d="M255.631 2.492a13.169 13.169 0 012.4-.18 3.87 3.87 0 012.524.7 2.428 2.428 0 01.848 1.9 2.619 2.619 0 01-.732 1.94 3.785 3.785 0 01-2.714.923 5.3 5.3 0 01-.763 0v3.181h-1.548zm1.527 3.987a3.054 3.054 0 00.763.064c1.177 0 1.887-.573 1.887-1.569s-.667-1.464-1.737-1.464a4.242 4.242 0 00-.912.074z" fill="#231f20"/><path data-name="Контур 38" d="M265.567 2.375v3.086a7.2 7.2 0 011-.074c1.75 0 3.34.838 3.34 2.768a2.577 2.577 0 01-.668 1.824 4.666 4.666 0 01-3.308 1.06 14.506 14.506 0 01-1.909-.117V2.375zm0 7.423a3.775 3.775 0 00.763 0 1.718 1.718 0 001.93-1.654c0-1.135-1-1.58-1.93-1.58a6.086 6.086 0 00-.763 0zm6.765-7.423v8.568h-1.559V2.375z" fill="#231f20"/><path data-name="Контур 39" d="M277.177 3.69h-2.449V2.375h6.479V3.69h-2.471v7.253h-1.559z" fill="#231f20"/><path data-name="Контур 40" d="M284.939 2.376v3.022c0 1.368 0 2.619-.106 3.775.445-.965 1.007-2 1.569-2.969l2.257-3.839h1.591v8.57h-1.442V7.911c0-1.347 0-2.449.106-3.552a23.808 23.808 0 01-1.527 2.969l-2.121 3.616h-1.737V2.376z" fill="#231f20"/><path data-name="Контур 41" d="M298.141 7.147h-3.181V9.66h3.552v1.283h-5.174V2.375h4.98v1.283h-3.414v2.216h3.181z" fill="#231f20"/><path data-name="Контур 42" d="M51.736 68.294v8.568h-1.57v-7.285h-2.333v2.29c0 2.057-.2 3.913-1.453 4.687a2.98 2.98 0 01-1.527.424l-.191-1.262a1.834 1.834 0 00.944-.456c.594-.594.679-1.951.679-3.277v-3.689z" fill="#ba131a"/><path data-name="Контур 43" d="M56.898 68.294l1.442 3.308c.233.551.414 1.06.615 1.569.127-.392.286-.933.488-1.612l1.124-3.266h1.644l-1.686 4.241a15.312 15.312 0 01-1.654 3.34 2.608 2.608 0 01-2.121 1.06 2.025 2.025 0 01-.806-.117l.159-1.188a2.2 2.2 0 00.53 0 1.633 1.633 0 001.4-1.06.445.445 0 000-.456l-2.863-5.83z" fill="#ba131a"/><path data-name="Контур 44" d="M67.144 68.294v2.577a1.453 1.453 0 001.6 1.633 3.117 3.117 0 001.453-.392v-3.818h1.56v8.568h-1.548v-3.531a4.008 4.008 0 01-1.983.477 2.375 2.375 0 01-2.599-2.672v-2.842z" fill="#ba131a"/><path data-name="Контур 45" d="M77.622 68.294v7.285h2.418v-7.285h1.538v7.285h2.417v-7.285h1.538v8.568h-9.438v-8.568z" fill="#ba131a"/><path data-name="Контур 46" d="M91.31 68.294v3.022c0 1.357 0 2.619-.1 3.764.445-.965 1.06-1.993 1.569-2.958l2.259-3.839h1.591v8.568h-1.427v-3.033a33.526 33.526 0 01.117-3.542 26 26 0 01-1.527 2.958l-2.124 3.627h-1.8v-8.567z" fill="#ba131a"/><path data-name="Контур 47" d="M102.424 68.293v3.022c0 1.357 0 2.619-.1 3.764.445-.965 1.06-1.993 1.569-2.958l2.259-3.839h1.591v8.568h-1.453v-3.032a33.528 33.528 0 01.117-3.542 26 26 0 01-1.525 2.96l-2.121 3.626h-1.779v-8.569zm1.315-1.887c0 .445.18.774.668.774s.636-.318.668-.774h1.06c-.085.986-.7 1.474-1.813 1.474a1.516 1.516 0 01-1.74-1.474z" fill="#ba131a"/><path data-name="Контур 48" d="M123.858 68.294v8.568h-1.559v-7.285h-3.457v7.285h-1.569v-8.568z" fill="#ba131a"/><path data-name="Контур 49" d="M135.789 72.482c0 2.884-1.739 4.517-4.1 4.517s-3.945-1.845-3.945-4.358 1.654-4.5 4.072-4.5 3.973 1.902 3.973 4.341zm-6.362.127c0 1.75.88 3.181 2.375 3.181s2.365-1.389 2.365-3.181c0-1.622-.8-3.181-2.365-3.181s-2.407 1.421-2.407 3.181z" fill="#ba131a"/><path data-name="Контур 50" d="M145.661 68.294v8.568h-1.569v-7.285h-2.331v2.29c0 2.057-.191 3.913-1.453 4.687a2.98 2.98 0 01-1.527.424l-.191-1.262a1.834 1.834 0 00.944-.456c.594-.594.689-1.951.689-3.277v-3.689z" fill="#ba131a"/><path data-name="Контур 51" d="M156.071 68.294l1.453 3.308c.223.551.4 1.06.6 1.569.127-.392.276-.933.488-1.612l1.113-3.266h1.654l-1.7 4.241a15.311 15.311 0 01-1.644 3.34 2.619 2.619 0 01-2.121 1.06 2.057 2.057 0 01-.806-.117l.127-1.251a2.236 2.236 0 00.541 0 1.654 1.654 0 001.4-1.06.445.445 0 000-.456l-2.855-5.83z" fill="#ba131a"/><path data-name="Контур 52" d="M169.967 68.4a13.922 13.922 0 012.28-.17 4.083 4.083 0 012.449.541 1.824 1.824 0 01.891 1.6 2 2 0 01-1.421 1.9 2.121 2.121 0 011.728 2.121 2.237 2.237 0 01-.827 1.771 4.793 4.793 0 01-3.181.8 17.335 17.335 0 01-1.919-.106zm1.548 3.393h.806c1.06 0 1.686-.509 1.686-1.241s-.6-1.166-1.6-1.166a4.008 4.008 0 00-.891.064zm0 3.934a5.716 5.716 0 00.827 0c1.007 0 1.9-.382 1.9-1.442s-.87-1.4-1.951-1.4h-.806z" fill="#ba131a"/><path data-name="Контур 53" d="M181.539 74.39l-.742 2.428h-1.612l2.746-8.568h1.993l2.789 8.568h-1.675l-.774-2.428zm2.449-1.188l-.668-2.121c-.17-.52-.307-1.06-.435-1.6-.127.5-.254 1.06-.414 1.6l-.657 2.121z" fill="#ba131a"/><path data-name="Контур 54" d="M191.961 68.294v7.285h2.418v-7.285h1.538v7.285h2.418v-7.285h1.538v8.568h-9.439v-8.568z" fill="#ba131a"/><path data-name="Контур 55" d="M205.661 68.294v3.022c0 1.357 0 2.619-.106 3.764.445-.965 1-1.993 1.559-2.958l2.269-3.839h1.591v8.568h-1.379v-3.033a33.524 33.524 0 01.117-3.542 22.965 22.965 0 01-1.527 2.958l-2.121 3.626h-1.739v-8.566z" fill="#ba131a"/><path data-name="Контур 56" d="M219.916 76.861l-.933-1.707c-.361-.657-.6-1.06-.848-1.612a16.289 16.289 0 01-.774 1.612l-.848 1.707h-1.793l2.545-4.337-2.449-4.241h1.8l.923 1.76c.276.541.488.954.71 1.442.223-.53.4-.912.668-1.442l.923-1.76h1.792l-2.513 4.188 2.609 4.39z" fill="#ba131a"/><path data-name="Контур 57" d="M232.146 68.294v3.425h3.626v-3.425h1.559v8.568h-1.559v-3.775h-3.626v3.775h-1.57v-8.568z" fill="#ba131a"/><path data-name="Контур 58" d="M249.173 72.482c0 2.884-1.739 4.517-4.114 4.517s-3.934-1.845-3.934-4.358 1.654-4.5 4.061-4.5a4.021 4.021 0 013.987 4.341zm-6.362.127c0 1.75.87 3.181 2.375 3.181s2.365-1.389 2.365-3.181c0-1.622-.806-3.181-2.365-3.181s-2.407 1.421-2.407 3.181z" fill="#ba131a"/><path data-name="Контур 59" d="M257.964 68.294v1.283h-3.33v7.285h-1.569v-8.568z" fill="#ba131a"/><path data-name="Контур 60" d="M261.251 76.013a.965.965 0 11.954.986.923.923 0 01-.954-.986zm.361-1.792l-.212-5.927h1.654l-.233 5.927z" fill="#ba131a"/><path data-name="Линия 1" fill="none" stroke="#be1e2d" stroke-miterlimit="10" d="M55.775 0v12.936"/><path data-name="Линия 2" fill="none" stroke="#be1e2d" stroke-miterlimit="10" d="M129.112 0v12.936"/><path data-name="Линия 3" fill="none" stroke="#be1e2d" stroke-miterlimit="10" d="M183.829 0v12.936"/><path data-name="Контур 61" d="M291.387 23.713v-4.125h2.365a1.771 1.771 0 011.209.435 1.388 1.388 0 01.361.435 1.06 1.06 0 01-.138 1.23 1.389 1.389 0 01-.7.477l1.219 1.548h-1.166l-1.06-1.378h-1.06v1.378zm1.06-2.121h1.294a.615.615 0 00.276-.053.668.668 0 00.212-.138.732.732 0 00.138-.212.562.562 0 00.053-.265.743.743 0 00-.053-.265.657.657 0 00-.17-.212.572.572 0 00-.233-.138.742.742 0 00-.265-.053h-1.252z" fill="#fff"/><ellipse data-name="Эллипс 1" cx="3.701" cy="3.584" rx="3.701" ry="3.584" transform="translate(289.648 18.332)" fill="none" stroke="#fff" stroke-miterlimit="10"/></svg>