<svg xmlns="http://www.w3.org/2000/svg" width="22" height="14" viewBox="0 0 22 14">
  <g id="Сгруппировать_6668" data-name="Сгруппировать 6668" transform="translate(-3.375 -7.875)">
    <g id="Сгруппировать_6667" data-name="Сгруппировать 6667">
      <g id="Сгруппировать_6666" data-name="Сгруппировать 6666">
        <path id="Контур_11685" data-name="Контур 11685" d="M25.2,10.343,19.5,15.626a.088.088,0,0,0,0,.135l3.982,3.865a.587.587,0,0,1,0,.887.738.738,0,0,1-.973,0l-3.966-3.851a.116.116,0,0,0-.153,0l-.968.9a4.472,4.472,0,0,1-3.036,1.166,4.559,4.559,0,0,1-3.1-1.2l-.931-.863a.116.116,0,0,0-.153,0L6.241,20.513a.738.738,0,0,1-.973,0,.587.587,0,0,1,0-.887L9.25,15.761a.1.1,0,0,0,0-.135l-5.7-5.282a.106.106,0,0,0-.18.067v10.57a1.627,1.627,0,0,0,1.692,1.542H23.683a1.627,1.627,0,0,0,1.692-1.542V10.411A.108.108,0,0,0,25.2,10.343Z" transform="translate(0 -0.647)" fill="#4267b2"/>
        <path id="Контур_11686" data-name="Контур 11686" d="M14.6,17.329a2.917,2.917,0,0,0,2.071-.847l8.31-8.246a1.691,1.691,0,0,0-1.049-.361H5.274a1.68,1.68,0,0,0-1.049.361l8.31,8.246A2.917,2.917,0,0,0,14.6,17.329Z" transform="translate(-0.226)" fill="#4267b2"/>
      </g>
    </g>
  </g>
</svg>
