<svg xmlns="http://www.w3.org/2000/svg" width="24" height="16" viewBox="0 0 24 16">
  <g id="Icon_ionic-ios-mail" data-name="Icon ionic-ios-mail" transform="translate(-3.375 -7.875)">
    <path id="Контур_11685" data-name="Контур 11685" d="M27.179,10.348l-6.208,6.04a.1.1,0,0,0,0,.154l4.344,4.42a.693.693,0,0,1,0,1.014.777.777,0,0,1-1.062,0l-4.327-4.4a.122.122,0,0,0-.167,0L18.7,18.6a4.755,4.755,0,0,1-3.312,1.334,4.849,4.849,0,0,1-3.381-1.372L11,17.573a.122.122,0,0,0-.167,0L6.5,21.976a.777.777,0,0,1-1.062,0,.693.693,0,0,1,0-1.014l4.344-4.42a.113.113,0,0,0,0-.154l-6.213-6.04a.114.114,0,0,0-.2.077V22.51a1.812,1.812,0,0,0,1.846,1.764H25.529a1.812,1.812,0,0,0,1.846-1.764V10.425A.116.116,0,0,0,27.179,10.348Z" transform="translate(0 -0.399)" fill="#7b7879"/>
    <path id="Контур_11686" data-name="Контур 11686" d="M15.514,18.644a3.1,3.1,0,0,0,2.253-.965l9.041-9.392a1.789,1.789,0,0,0-1.141-.412H5.367a1.777,1.777,0,0,0-1.141.412l9.041,9.392A3.1,3.1,0,0,0,15.514,18.644Z" transform="translate(-0.139 0)" fill="#7b7879"/>
  </g>
</svg>
