<svg xmlns="http://www.w3.org/2000/svg" width="19.104" height="12.736" viewBox="0 0 19.104 12.736">
  <g id="Icon_ionic-ios-mail" data-name="Icon ionic-ios-mail" transform="translate(-3.375 -7.875)">
    <path id="Контур_11685" data-name="Контур 11685" d="M22.322,10.341l-4.941,4.808a.082.082,0,0,0,0,.123l3.458,3.518a.551.551,0,0,1,0,.807.619.619,0,0,1-.845,0l-3.444-3.5a.1.1,0,0,0-.133,0l-.84.816a3.785,3.785,0,0,1-2.636,1.062,3.86,3.86,0,0,1-2.691-1.092l-.808-.785a.1.1,0,0,0-.133,0L5.864,19.6a.619.619,0,0,1-.845,0,.551.551,0,0,1,0-.807l3.458-3.518a.09.09,0,0,0,0-.123L3.531,10.341a.091.091,0,0,0-.156.061v9.62a1.442,1.442,0,0,0,1.47,1.4H21.009a1.442,1.442,0,0,0,1.469-1.4V10.4A.093.093,0,0,0,22.322,10.341Z" transform="translate(0 -0.815)" fill="#353535"/>
    <path id="Контур_11686" data-name="Контур 11686" d="M13.211,16.447A2.469,2.469,0,0,0,15,15.679L22.2,8.2a1.424,1.424,0,0,0-.908-.328H5.134a1.414,1.414,0,0,0-.908.328l7.2,7.476A2.469,2.469,0,0,0,13.211,16.447Z" transform="translate(-0.284)" fill="#353535"/>
  </g>
</svg>
