<svg id="terhurne5dec872c90a7e" xmlns="http://www.w3.org/2000/svg" width="212.724" height="57.705" viewBox="0 0 212.724 57.705">
  <path id="Контур_11729" data-name="Контур 11729" d="M149.595,63.035c-3.766,0-4.9-1.154-4.9-4.316V51.025H141.32V48.663h3.374V44.173l3.762-.823v5.313h4.666v2.358h-4.616V57.78c0,2.1.535,2.67,2.308,2.67a11.8,11.8,0,0,0,2.308-.227v2.5a22.894,22.894,0,0,1-3.528.312Z" transform="translate(-86.954 -26.673)" fill="#7c4529"/>
  <path id="Контур_11730" data-name="Контур 11730" d="M193.507,63.977H182.255c-.108,3.266,1.7,4.743,5.217,4.743a14.807,14.807,0,0,0,5.147-.9l.358,2.412a19.751,19.751,0,0,1-6.109.912c-5.5,0-8.517-2.274-8.517-7.244,0-4.262,2.908-7.444,8.056-7.444,5.043-.015,7.2,2.739,7.2,6.094A10.818,10.818,0,0,1,193.507,63.977Zm-7.244-5.286a3.73,3.73,0,0,0-3.939,3.151h7.49C189.887,59.911,188.5,58.691,186.263,58.691Z" transform="translate(-109.739 -34.74)" fill="#7c4529"/>
  <path id="Контур_11731" data-name="Контур 11731" d="M237.449,59.366c-3.87-.512-5.609,1.446-5.609,5.678V68.53a25.271,25.271,0,0,1,3.078.385v1.877H225V68.914a25.272,25.272,0,0,1,3.078-.385V59.024c-.854-.115-2.062-.227-3.078-.285V56.866a57.123,57.123,0,0,1,6.709-.2,18.38,18.38,0,0,1-.354,3.124h.035c.816-1.9,2.593-3.662,6.248-3.408Z" transform="translate(-138.442 -34.676)" fill="#7c4529"/>
  <path id="Контур_11732" data-name="Контур 11732" d="M301.785,63.181V61.258a20.5,20.5,0,0,1,2.735-.342V54.572H293.195v6.355a20.507,20.507,0,0,1,2.735.342v1.924h-9.66V61.312a25.455,25.455,0,0,1,3.078-.385V46.25a25.454,25.454,0,0,1-3.078-.385V44h9.66v1.924a19.893,19.893,0,0,1-2.735.342v5.667H304.52V46.25a19.891,19.891,0,0,1-2.735-.327V44h9.694v1.873a25.271,25.271,0,0,1-3.078.385V60.927a25.273,25.273,0,0,1,3.078.385v1.877Z" transform="translate(-176.142 -27.073)" fill="#7c4529"/>
  <path id="Контур_11733" data-name="Контур 11733" d="M369.636,61.508a14.773,14.773,0,0,1,.25-2.758l-.069-.027c-1.066,1.82-3.162,3.078-6.155,3.078-4.012,0-5.255-2.02-5.255-4.52V49.747c-.85-.115-2.024-.227-2.947-.285V47.589a55.307,55.307,0,0,1,6.713-.2v9.09c0,1.762.6,2.781,2.624,2.781a4.764,4.764,0,0,0,4.616-5.055V49.716c-.746-.085-1.812-.2-2.735-.254V47.589a48.445,48.445,0,0,1,6.54-.2v11.76c.85.112,1.985.227,2.943.285v1.873A54.434,54.434,0,0,1,369.636,61.508Zm-7.594-16.788a1.759,1.759,0,1,1,0-3.439,1.974,1.974,0,0,1,2.166,1.708A1.993,1.993,0,0,1,362.042,44.719Zm6.994,0a1.974,1.974,0,0,1-2.166-1.731,1.958,1.958,0,0,1,2.166-1.708,1.935,1.935,0,0,1,2.127,1.708A1.976,1.976,0,0,1,369.036,44.719Z" transform="translate(-218.714 -25.4)" fill="#7c4529"/>
  <path id="Контур_11734" data-name="Контур 11734" d="M428.468,59.366c-3.87-.512-5.609,1.446-5.609,5.678V68.53a25.271,25.271,0,0,1,3.078.385v1.877H416V68.914a25.271,25.271,0,0,1,3.078-.385V59.024c-.854-.115-2.058-.227-3.078-.285V56.866a57.151,57.151,0,0,1,6.709-.2,18.379,18.379,0,0,1-.354,3.124h.035c.816-1.9,2.593-3.662,6.248-3.408Z" transform="translate(-255.965 -34.676)" fill="#7c4529"/>
  <path id="Контур_11735" data-name="Контур 11735" d="M470.468,61.72c0-1.762-.6-2.785-2.628-2.785a4.794,4.794,0,0,0-4.616,5.059v4.563a20.363,20.363,0,0,1,2.731.342v1.924H456.38V68.941a25.3,25.3,0,0,1,3.078-.385V59.051c-.85-.115-2.058-.227-3.078-.285V56.892a57.125,57.125,0,0,1,6.709-.2,15,15,0,0,1-.285,2.754l.069.031c1.031-1.82,3.162-3.078,6.109-3.078,4.012,0,5.29,2.016,5.29,4.516v7.64a22.9,22.9,0,0,1,2.947.385v1.877h-6.751Z" transform="translate(-280.81 -34.703)" fill="#7c4529"/>
  <path id="Контур_11736" data-name="Контур 11736" d="M528.437,63.977H517.185c-.108,3.266,1.7,4.743,5.217,4.743a14.846,14.846,0,0,0,5.151-.9l.354,2.412a19.724,19.724,0,0,1-6.105.912c-5.505,0-8.521-2.274-8.521-7.244,0-4.262,2.908-7.444,8.056-7.444,5.043,0,7.209,2.754,7.209,6.109A10.816,10.816,0,0,1,528.437,63.977Zm-7.24-5.286a3.731,3.731,0,0,0-3.943,3.151h7.49C524.817,59.911,523.432,58.691,521.2,58.691Z" transform="translate(-315.821 -34.74)" fill="#7c4529"/>
  <rect id="Прямоугольник_2217" data-name="Прямоугольник 2217" width="14.176" height="54.524" transform="translate(17.446)" fill="#aec5e7"/>
  <rect id="Прямоугольник_2218" data-name="Прямоугольник 2218" width="14.176" height="54.524" transform="translate(34.896)" fill="#7c4529"/>
  <rect id="Прямоугольник_2219" data-name="Прямоугольник 2219" width="14.176" height="54.524" fill="#acad2c"/>
  <path id="Контур_11737" data-name="Контур 11737" d="M154.023,131.619a9.53,9.53,0,0,1,.115-1.512h-.027a2.366,2.366,0,0,1-2.308,1.639c-1.458,0-1.923-.9-1.923-2.031v-4.4h.673v4.112c0,1.116.3,1.766,1.358,1.766,1.258,0,2.12-1.2,2.12-2.858v-3.02h.673v6.309Z" transform="translate(-92.221 -77.103)" fill="#808285"/>
  <path id="Контур_11738" data-name="Контур 11738" d="M180.011,131.4v-4.12c0-1.119-.3-1.766-1.358-1.766-1.258,0-2.12,1.193-2.12,2.854v3.024h-.673V125.08h.7a9.484,9.484,0,0,1-.112,1.508h.023a2.366,2.366,0,0,1,2.308-1.639c1.462,0,1.924.9,1.924,2.031v4.393Z" transform="translate(-108.207 -76.881)" fill="#808285"/>
  <path id="Контур_11739" data-name="Контур 11739" d="M201.878,120.376a.508.508,0,1,1,.508-.508A.508.508,0,0,1,201.878,120.376Zm-.342,7.579v-6.309h.673v6.309Z" transform="translate(-123.903 -73.442)" fill="#808285"/>
  <path id="Контур_11740" data-name="Контур 11740" d="M219.789,134.685V131a5.386,5.386,0,0,1,.088-1.031h-.027a2.347,2.347,0,0,1-2.231,1.623c-1.473,0-2.339-.989-2.339-2.981,0-2.308,1.27-3.5,3.228-3.5a12.444,12.444,0,0,1,1.954.165v9.41Zm0-8.89a6.217,6.217,0,0,0-1.4-.165c-1.462,0-2.4.877-2.4,2.924,0,1.539.535,2.485,1.7,2.485,1.423,0,2.1-1.673,2.1-2.816Z" transform="translate(-132.462 -76.98)" fill="#808285"/>
  <path id="Контур_11741" data-name="Контур 11741" d="M246.253,131.619a9.529,9.529,0,0,1,.115-1.512h-.027a2.366,2.366,0,0,1-2.308,1.639c-1.462,0-1.923-.9-1.923-2.031v-4.4h.669v4.112c0,1.116.308,1.766,1.362,1.766,1.254,0,2.12-1.2,2.12-2.858v-3.02h.673v6.309Z" transform="translate(-148.97 -77.103)" fill="#808285"/>
  <path id="Контур_11742" data-name="Контур 11742" d="M271.459,127.9h-4.343c-.089,2.185.723,3.078,2.235,3.078a4.344,4.344,0,0,0,1.827-.408l.069.6a5.194,5.194,0,0,1-2,.365c-1.866,0-2.843-1.027-2.843-3.235,0-1.881,1-3.278,2.693-3.278a2.265,2.265,0,0,1,2.389,2.5C271.47,127.605,271.47,127.732,271.459,127.9Zm-2.427-2.347a1.911,1.911,0,0,0-1.854,1.8h3.555a1.623,1.623,0,0,0-1.7-1.8Z" transform="translate(-163.916 -76.925)" fill="#808285"/>
  <path id="Контур_11743" data-name="Контур 11743" d="M307.854,131.428a9.317,9.317,0,0,1,.077-1.435H307.9a2.37,2.37,0,0,1-2.274,1.539c-.95,0-1.7-.481-1.7-1.47,0-1.246,1.32-2.2,3.924-2.2v-.6c0-1.077-.385-1.689-1.539-1.689a3.685,3.685,0,0,0-1.943.573l-.073-.635a4.893,4.893,0,0,1,2.158-.516c1.612,0,2.07.877,2.07,2.008v2.4c0,.673,0,1.423.023,2.008Zm0-3.024c-2.654,0-3.224.854-3.224,1.5a1.035,1.035,0,0,0,1.154,1.054,2.326,2.326,0,0,0,2.07-2.477Z" transform="translate(-187.008 -76.912)" fill="#808285"/>
  <path id="Контур_11744" data-name="Контур 11744" d="M329.373,131.583a6.253,6.253,0,0,1-1.346-.127l.027-.685a4.97,4.97,0,0,0,1.42.215c1.043,0,1.766-.469,1.766-1.231,0-1.689-3.289-.623-3.289-2.908,0-1.027.854-1.777,2.374-1.777a6.259,6.259,0,0,1,1.273.154l-.027.623a4.474,4.474,0,0,0-1.358-.231c-1.043,0-1.573.446-1.573,1.154,0,1.727,3.285.685,3.285,2.881C331.924,130.683,330.985,131.583,329.373,131.583Z" transform="translate(-201.787 -76.956)" fill="#808285"/>
  <path id="Контур_11745" data-name="Контур 11745" d="M364.38,126.887V117.62h.673v9.267Z" transform="translate(-224.203 -72.372)" fill="#808285"/>
  <path id="Контур_11746" data-name="Контур 11746" d="M379.608,120.376a.5.5,0,1,1,.36-.148A.508.508,0,0,1,379.608,120.376Zm-.342,7.579v-6.309h.673v6.309Z" transform="translate(-233.26 -73.442)" fill="#808285"/>
  <path id="Контур_11747" data-name="Контур 11747" d="M396.364,118.18a3.847,3.847,0,0,0-1.066-.154c-1.081,0-1.539.65-1.539,2.02v.446h2.02v.531h-2.02v5.771h-.673v-5.771h-1.5v-.531h1.5v-.419c0-1.777.9-2.593,2.308-2.593a4.617,4.617,0,0,1,1.043.115Z" transform="translate(-240.945 -72.285)" fill="#808285"/>
  <path id="Контур_11748" data-name="Контур 11748" d="M415.517,127.934h-4.343c-.088,2.185.723,3.078,2.235,3.078a4.363,4.363,0,0,0,1.831-.408l.062.623a5.225,5.225,0,0,1-2,.365c-1.87,0-2.847-1.027-2.847-3.235,0-1.881,1-3.278,2.693-3.278a2.264,2.264,0,0,1,2.385,2.5C415.528,127.642,415.528,127.769,415.517,127.934Zm-2.424-2.347a1.908,1.908,0,0,0-1.854,1.8h3.555a1.627,1.627,0,0,0-1.7-1.8Z" transform="translate(-252.55 -76.962)" fill="#808285"/>
  <path id="Контур_11749" data-name="Контур 11749" d="M449.568,120.376a.5.5,0,1,1,.36-.148A.508.508,0,0,1,449.568,120.376Zm-.342,7.579v-6.309h.673v6.309Z" transform="translate(-276.306 -73.442)" fill="#808285"/>
  <path id="Контур_11750" data-name="Контур 11750" d="M464.405,127.948c-1.208,0-1.539-.569-1.539-1.816v-4.051h-1.5v-.531h1.5v-2.158l.673-.192v2.351h1.993v.531h-2v3.67c0,1.27.215,1.589,1.043,1.589a3.886,3.886,0,0,0,.95-.127v.619a5.847,5.847,0,0,1-1.123.115Z" transform="translate(-283.881 -73.344)" fill="#808285"/>
  <path id="Контур_11751" data-name="Контур 11751" d="M483.65,131.583a6.279,6.279,0,0,1-1.346-.127l.027-.685a5,5,0,0,0,1.423.215c1.039,0,1.762-.469,1.762-1.231,0-1.689-3.285-.623-3.285-2.908,0-1.027.85-1.777,2.374-1.777a6.221,6.221,0,0,1,1.27.154l-.027.623a4.451,4.451,0,0,0-1.358-.231c-1.039,0-1.573.446-1.573,1.154,0,1.727,3.289.685,3.289,2.881C486.2,130.683,485.261,131.583,483.65,131.583Z" transform="translate(-296.716 -76.956)" fill="#808285"/>
  <path id="Контур_11752" data-name="Контур 11752" d="M508.017,127.934h-4.343c-.088,2.185.723,3.078,2.235,3.078a4.329,4.329,0,0,0,1.827-.408l.065.623a5.232,5.232,0,0,1-2.008.365c-1.866,0-2.843-1.027-2.843-3.235,0-1.881,1-3.278,2.693-3.278a2.264,2.264,0,0,1,2.385,2.5C508.028,127.642,508.028,127.769,508.017,127.934Zm-2.424-2.347a1.905,1.905,0,0,0-1.854,1.8h3.555a1.627,1.627,0,0,0-1.7-1.8Z" transform="translate(-309.465 -76.962)" fill="#808285"/>
  <path id="Контур_11753" data-name="Контур 11753" d="M528,126.887V117.62h.673v9.267Z" transform="translate(-324.878 -72.372)" fill="#808285"/>
  <path id="Контур_11754" data-name="Контур 11754" d="M544.8,118.18a3.846,3.846,0,0,0-1.066-.154c-1.077,0-1.539.65-1.539,2.02v.446h2.02v.531H542.2v5.771h-.669v-5.771H540v-.531h1.5v-.419c0-1.777.9-2.593,2.308-2.593a4.618,4.618,0,0,1,1.039.115Z" transform="translate(-332.262 -72.285)" fill="#808285"/>
</svg>
