<svg xmlns="http://www.w3.org/2000/svg" width="196.333" height="94.482" viewBox="0 0 196.333 94.482">
  <g id="hafro" transform="translate(0 0.001)">
    <path id="Контур_11709" data-name="Контур 11709" d="M35.928,23,26.854,50.7c.374-.345,7.451-6.923,15.637-6.923a13.3,13.3,0,0,1,2.936.316c9.257,2.048,4.236,13.816,3.972,14.433-.36,1.064-7.172,21.165-7.238,21.348a9.8,9.8,0,0,0-.455,2.2,2.79,2.79,0,0,0,.448,1.909,3.274,3.274,0,0,0,1.615,1.006,12.165,12.165,0,0,0,2.019.4l-.514,1.982H24.894l.734-2.114c.235,0,4.647-.184,6.079-2.107A10.623,10.623,0,0,0,33.7,79.608c.976-3.039,2.07-6.042,3.105-9.059l2.276-6.607c.991-2.878,2.239-5.778,2.658-8.809.279-2.011.154-4.581-2.114-5.352a6.365,6.365,0,0,0-2.026-.3,10.88,10.88,0,0,0-3.472.609c-.154,0-3.091.609-8.464,4.86-.7,2.026-1.38,4.023-2.048,6.012L19.821,72.186c-.5,1.468-1.006,2.936-1.512,4.471a28.829,28.829,0,0,0-1.468,4.838,6.886,6.886,0,0,0-.081,1.167,2.342,2.342,0,0,0,.235,1.123c.507.925,1.725,1.05,2.643,1.241.1,0,1.468.3,1.769.3l-.6,2.063H0l.8-2.114a9.132,9.132,0,0,0,5.308-1.593c2.386-1.74,4.361-9.118,4.463-9.544l1.52-4.463q1.8-5.286,3.59-10.557L19.909,46.7c1.131-3.34,2.276-6.673,3.406-10.021.639-1.857,1.586-3.671,1.733-5.653a1.865,1.865,0,0,0-.485-1.424,2.092,2.092,0,0,0-1.468-.455,18.626,18.626,0,0,0-2.136.25,4.742,4.742,0,0,0-1.1.162l.815-2.371Z" transform="translate(0 -6.116)" fill="#1a1a18"/>
    <path id="Контур_11710" data-name="Контур 11710" d="M101.08,79.073l-1.542,4.735a14.009,14.009,0,0,0-1.16,4.4,1.189,1.189,0,0,0,1.292,1.365h.2a8.45,8.45,0,0,0,3.443-1.365c.264-.154,1.659-.734,1.74-.991l-.947,3.3a28.741,28.741,0,0,1-5.873,3.817,10.726,10.726,0,0,1-4.4.984,6.467,6.467,0,0,1-1-.066,3.817,3.817,0,0,1-2.841-1.622c-.83-1.468-.58-3.149-.433-4.647-3.531,2.687-7.936,5.271-12.392,6.108a16.2,16.2,0,0,1-2.973.294,7.491,7.491,0,0,1-5.763-2.144c-1.989-2.239-2.019-5.667-1.028-8.354a19.52,19.52,0,0,1,5.264-7.341c.47-.44.962-.866,1.468-1.277A33.022,33.022,0,0,1,82.1,72.048c1.138-.485,2.283-1,3.443-1.468.918-.338,11.012-3.942,11.518-4.126l2.011-6.306c.081-.213,1.622-4.309-1-5.719a6.409,6.409,0,0,0-2.936-.624,13.794,13.794,0,0,0-3.928.624,6.379,6.379,0,0,0-4.684,4.295c-.191.771-.051,1.556-.22,2.327a7.885,7.885,0,0,1-2.2,3.59,4.9,4.9,0,0,1-3.215,1.4h-.345c-2.2,0-3.942-1.094-3.538-3.56.433-2.6,2.114-4.588,4.676-6.673a23.139,23.139,0,0,1,14.624-5,24.13,24.13,0,0,1,2.936.169,8.706,8.706,0,0,1,1.468.264c2.841.793,4.948,1.835,5.924,4.522,1.153,3.179.147,6.607-.918,9.632-1.175,3.355-2.276,6.725-3.384,10.094Zm-9.294,2.76,4.06-12.106a59.375,59.375,0,0,0-10.153,4.016,20,20,0,0,0-7.936,7.3,8.531,8.531,0,0,0-1.16,3.245,4.566,4.566,0,0,0,.837,3.274,4.632,4.632,0,0,0,3.81,1.586,12.48,12.48,0,0,0,2.856-.389,11.122,11.122,0,0,0,5.66-3.01,10.439,10.439,0,0,0,2.026-3.928" transform="translate(-17.75 -13.509)" fill="#1a1a18"/>
    <path id="Контур_11711" data-name="Контур 11711" d="M159.26,0a4.251,4.251,0,0,1,2.246.587,4.522,4.522,0,0,1,1.784,2.2c1.41,3.274.338,6.475-1.307,9.426a48.454,48.454,0,0,1-2.782,4.4c-.477.683-.991,1.343-1.468,2.026a7.091,7.091,0,0,1-1.571,1.8h-1.38c.066-.316,1.241-6.328,1.4-7.275a12.634,12.634,0,0,0,0-5.007,3.186,3.186,0,0,0-.837-1.556,1.865,1.865,0,0,0-1.336-.529,3.391,3.391,0,0,0-.536.051c-1.417.279-2.76,2.063-2.834,2.158a26.429,26.429,0,0,0-2.43,4.566c-.668,1.879-1.813,5.278-2.312,7.481s-3.259,13.794-3.392,14.4c0,.088-.389,1.74-.551,2.254A27.408,27.408,0,0,0,141,40.156a12.127,12.127,0,0,1,.874,4.221c.294.206,5.873,4.06,8.075,10.278L146.8,55.749c0-.162-.455-3.326-6.923-8.435a88.418,88.418,0,0,0-10.718-7.525,21.761,21.761,0,0,1,10.674,3.318c-.059-.213-1.211-4.309-6.548-5.638a22.5,22.5,0,0,0-5.469-.734,23.683,23.683,0,0,0-7.062,1.226c.162.389,3.208,7.782,6.849,11.012,2.459,2.2,4.1,3.127,5.631,3.127a4.684,4.684,0,0,0,2.2-.6l2.613.734-.595.338c-.191.617-3.869,12.252-6.306,17.391s-5.08,10.586-7.385,13.735a42.578,42.578,0,0,1-4.684,5.41,17.78,17.78,0,0,1-5.065,3.671c-2.658,1.138-3.531,1.336-4.6,1.41H109a8.08,8.08,0,0,1-4.287-1.1,5.065,5.065,0,0,1-1.681-4.4,5.2,5.2,0,0,1,2.114-3.186,4.265,4.265,0,0,1,2.2-.6,5.33,5.33,0,0,1,1.762.316c1.857.661,2.687,3.105,2.936,3.568s.44,1.16,1.153,1.16a1.468,1.468,0,0,0,.455-.088,4.77,4.77,0,0,0,3.465-2.65,37.762,37.762,0,0,0,2.613-5.521c.543-1.314,2.746-7.209,3-8.141s2.885-9.419,3.069-10.175,2.731-10.432,2.892-10.938c-.184-.11-3.671-2.2-6.813-7.554a55.477,55.477,0,0,1-4.2-8.009,36.287,36.287,0,0,1,12.1-2.305,21.664,21.664,0,0,1,3.575.279,91.5,91.5,0,0,1,4.214-10.41c2.063-4,3.414-6.658,4.4-8.362a82.369,82.369,0,0,1,5.7-8.347,35.783,35.783,0,0,1,6.189-5.829A10.872,10.872,0,0,1,159.26,0Z" transform="translate(-27.383)" fill="#1a1a18"/>
    <path id="Контур_11712" data-name="Контур 11712" d="M192.917,51.21h.316a4.757,4.757,0,0,1,3.436,1.652,4.346,4.346,0,0,1,.551,3.083,8.221,8.221,0,0,1-1.6,2.936,5.667,5.667,0,0,1-3.531,2.3,5.057,5.057,0,0,1-.808.066,3.686,3.686,0,0,1-2.856-1.072c-.5-.786-.925-1.7-1.865-2.041a2.092,2.092,0,0,0-.734-.117,2.936,2.936,0,0,0-1.248.294,13.215,13.215,0,0,0-2.3,1.637,23.332,23.332,0,0,0-2.525,2.129c-2.386,2.4-3.069,6.056-4.126,9.184-1.241,3.671-2.5,7.393-3.759,11.093q-.785,2.312-1.571,4.61c-.117.257-2.246,5.007,2.562,5.506l3.311.117-.83,2.276H152.21L153,92.607A27.61,27.61,0,0,0,157.312,92a4.794,4.794,0,0,0,3.48-2.694c.888-1.828,2.305-6.02,2.379-6.24l6.607-19.087a19.305,19.305,0,0,0,.6-3.788c-.073-.844-.374-2.048-1.982-2.048a3.744,3.744,0,0,0-.668.059c-2.2.367-2.878.448-2.936.455l.778-2.29c.492-.139,9.94-2.753,14.932-4.816a2.2,2.2,0,0,1,.991-.33c.3,0,.543.147.521.653,0,.081-.462,1.7-.962,3.348s-1.292,3.568-1.329,3.671c.279-.242,5.638-4.955,8.384-6.233C190.6,51.482,191.882,51.21,192.917,51.21Z" transform="translate(-40.47 -13.616)" fill="#1a1a18"/>
    <path id="Контур_11713" data-name="Контур 11713" d="M248.588,57.265c4.64,6.049,1.336,14.947,1.16,15.417a30.15,30.15,0,0,1-4.588,9.235,35.428,35.428,0,0,1-10.747,10.461,23.859,23.859,0,0,1-12.4,3.861c-.565,0-1.131.051-1.7.051a15.879,15.879,0,0,1-9.206-2.878c-4.456-2.87-4.948-8.5-5.19-10.461a29.067,29.067,0,0,1,3.171-13.706A38.664,38.664,0,0,1,219.443,57.03a29.489,29.489,0,0,1,10.322-4.838,22.883,22.883,0,0,1,5.139-.6,18.716,18.716,0,0,1,1.872.059h.308A14.778,14.778,0,0,1,248.588,57.265Zm-8.552,16.65a26.5,26.5,0,0,0,.808-12.172,9.316,9.316,0,0,0-2.481-5.139,6.915,6.915,0,0,0-4.75-1.615,12.553,12.553,0,0,0-7.275,2.408,17.832,17.832,0,0,0-3.531,3.56,31.141,31.141,0,0,0-4.794,8.552,46.984,46.984,0,0,0-2.415,9.764,20.717,20.717,0,0,0,.976,9.485,6.3,6.3,0,0,0,5.711,4.221,9.351,9.351,0,0,0,.969.044,10.8,10.8,0,0,0,7.62-3.047,29.17,29.17,0,0,0,5.616-7.282c1.769-2.76,3.458-8.5,3.546-8.809" transform="translate(-54.736 -13.717)" fill="#1a1a18"/>
    <path id="Контур_11714" data-name="Контур 11714" d="M137.026,119.016v2.863h1.593a1.314,1.314,0,0,0,.83-.184,1.226,1.226,0,0,0,.308-.866h.206v2.525h-.206a2.4,2.4,0,0,0-.147-.675.661.661,0,0,0-.316-.3,1.586,1.586,0,0,0-.675-.11h-1.593v2.393a2.143,2.143,0,0,0,.044.587.286.286,0,0,0,.147.161.888.888,0,0,0,.411.066h1.226a3.282,3.282,0,0,0,.9-.088,1.365,1.365,0,0,0,.536-.33,4.162,4.162,0,0,0,.675-1.006h.213l-.624,1.821H135v-.2h.25a1.043,1.043,0,0,0,.492-.125.448.448,0,0,0,.235-.257,2.738,2.738,0,0,0,.059-.7v-4.713a1.557,1.557,0,0,0-.14-.852.844.844,0,0,0-.646-.213H135v-.2h5.587l.081,1.593h-.206a2.563,2.563,0,0,0-.25-.793.852.852,0,0,0-.4-.323,2.526,2.526,0,0,0-.734-.081Z" transform="translate(-35.894 -31.539)" fill="#1a1a18"/>
    <path id="Контур_11715" data-name="Контур 11715" d="M144,125.871v-.2h.272a.734.734,0,0,0,.653-.294,1.747,1.747,0,0,0,.117-.793V119.9a1.468,1.468,0,0,0-.147-.844.786.786,0,0,0-.624-.242H144v-.2h2.936a6.519,6.519,0,0,1,2.474.367,3,3,0,0,1,1.358,1.233,3.729,3.729,0,0,1,.521,1.989,3.612,3.612,0,0,1-.9,2.562,4.03,4.03,0,0,1-3.142,1.138Zm2.07-.529a5.307,5.307,0,0,0,1.138.154,2.694,2.694,0,0,0,2.056-.874,3.81,3.81,0,0,0,0-4.728,2.738,2.738,0,0,0-2.1-.866,4.544,4.544,0,0,0-1.094.154Z" transform="translate(-38.287 -31.537)" fill="#1a1a18"/>
    <path id="Контур_11716" data-name="Контур 11716" d="M160.886,123.856h.184l-.631,1.967H154.83v-.2h.272a.734.734,0,0,0,.661-.3,1.784,1.784,0,0,0,.11-.793v-4.676a1.424,1.424,0,0,0-.154-.844.734.734,0,0,0-.617-.242h-.272v-.2h3.282v.2a1.953,1.953,0,0,0-.808.1.646.646,0,0,0-.316.286,2.3,2.3,0,0,0-.088.822v4.552a1.66,1.66,0,0,0,.081.617.4.4,0,0,0,.2.162,3.473,3.473,0,0,0,.837.051h.529a3.869,3.869,0,0,0,1.167-.117,1.527,1.527,0,0,0,.617-.44,3.524,3.524,0,0,0,.558-.947Z" transform="translate(-41.166 -31.526)" fill="#1a1a18"/>
    <path id="Контур_11717" data-name="Контур 11717" d="M166.026,119.016v2.863h1.593a1.314,1.314,0,0,0,.83-.184,1.226,1.226,0,0,0,.308-.866h.2v2.525h-.2a2.093,2.093,0,0,0-.154-.675.617.617,0,0,0-.308-.3,1.586,1.586,0,0,0-.675-.11h-1.593v2.393a2.144,2.144,0,0,0,.044.587.264.264,0,0,0,.147.162.888.888,0,0,0,.411.066h1.226a3.186,3.186,0,0,0,.888-.088,1.344,1.344,0,0,0,.543-.33,4.162,4.162,0,0,0,.675-1.006h.213l-.624,1.821H164v-.2h.25a1.042,1.042,0,0,0,.492-.125.448.448,0,0,0,.235-.257,2.738,2.738,0,0,0,.059-.7v-4.713a1.556,1.556,0,0,0-.139-.852.844.844,0,0,0-.646-.213H164v-.2h5.587l.081,1.593h-.206a2.782,2.782,0,0,0-.25-.793.888.888,0,0,0-.4-.323,2.525,2.525,0,0,0-.734-.081Z" transform="translate(-43.605 -31.539)" fill="#1a1a18"/>
    <path id="Контур_11718" data-name="Контур 11718" d="M178.808,121.987h3.37V119.9a2.438,2.438,0,0,0-.073-.734.462.462,0,0,0-.22-.228.962.962,0,0,0-.485-.132h-.264v-.2h3.142v.2h-.257a1.035,1.035,0,0,0-.485.125.448.448,0,0,0-.235.257,2.488,2.488,0,0,0-.059.734v4.684a2.517,2.517,0,0,0,.066.734.551.551,0,0,0,.22.235,1.065,1.065,0,0,0,.492.125h.257v.2h-3.105v-.2h.264a.734.734,0,0,0,.639-.264,1.556,1.556,0,0,0,.139-.822v-2.2h-3.37v2.2a2.518,2.518,0,0,0,.066.734.529.529,0,0,0,.228.235,1.035,1.035,0,0,0,.485.125h.25v.2H176.76v-.2h.264a.734.734,0,0,0,.646-.264,1.579,1.579,0,0,0,.132-.822v-4.684a2.518,2.518,0,0,0-.066-.734.5.5,0,0,0-.22-.228,1.013,1.013,0,0,0-.492-.132h-.264v-.2h3.113v.2h-.264a1.035,1.035,0,0,0-.485.125.5.5,0,0,0-.235.257,2.8,2.8,0,0,0-.059.734Z" transform="translate(-46.997 -31.536)" fill="#1a1a18"/>
    <path id="Контур_11719" data-name="Контур 11719" d="M191.4,118.39a3.3,3.3,0,0,1,2.445,1.072,3.715,3.715,0,0,1,1.035,2.68,3.8,3.8,0,0,1-1.042,2.746,3.494,3.494,0,0,1-5.036,0,3.817,3.817,0,0,1-1.02-2.76,3.67,3.67,0,0,1,1.175-2.812,3.45,3.45,0,0,1,2.445-.925Zm-.1.4a1.894,1.894,0,0,0-1.564.734,4.06,4.06,0,0,0-.734,2.628,4.243,4.243,0,0,0,.734,2.731,1.843,1.843,0,0,0,1.534.734,2.1,2.1,0,0,0,1.688-.8,3.847,3.847,0,0,0,.668-2.511,4.361,4.361,0,0,0-.734-2.775A1.953,1.953,0,0,0,191.3,118.786Z" transform="translate(-49.926 -31.478)" fill="#1a1a18"/>
    <path id="Контур_11720" data-name="Контур 11720" d="M204.392,123.869h.184l-.609,2H198.35v-.2h.272a.734.734,0,0,0,.661-.3,1.784,1.784,0,0,0,.11-.793V119.9a1.424,1.424,0,0,0-.154-.844.734.734,0,0,0-.617-.242h-.272v-.2h3.282v.2a1.975,1.975,0,0,0-.808.1.675.675,0,0,0-.316.286,2.305,2.305,0,0,0-.088.822v4.552a1.659,1.659,0,0,0,.081.617.4.4,0,0,0,.2.161,3.473,3.473,0,0,0,.837.051h.529a3.956,3.956,0,0,0,1.175-.117,1.556,1.556,0,0,0,.609-.44A3.348,3.348,0,0,0,204.392,123.869Z" transform="translate(-52.738 -31.539)" fill="#1a1a18"/>
    <path id="Контур_11721" data-name="Контур 11721" d="M213.5,118.612l-4.764,6.813h2.981a1.586,1.586,0,0,0,1.05-.3,2.591,2.591,0,0,0,.646-1.211h.176l-.338,1.923H207.38v-.2l4.654-6.607h-2.32a2.151,2.151,0,0,0-.837.117.874.874,0,0,0-.4.367,3.039,3.039,0,0,0-.25.888h-.206l.154-1.813Z" transform="translate(-55.138 -31.531)" fill="#1a1a18"/>
    <path id="Контур_11722" data-name="Контур 11722" d="M221.382,122.178a2.29,2.29,0,0,1,1.123.514,1.578,1.578,0,0,1,.514,1.2,1.8,1.8,0,0,1-.338,1.042,1.923,1.923,0,0,1-.94.734,5.322,5.322,0,0,1-1.813.228H216.5v-.2h.272a.734.734,0,0,0,.661-.286,1.813,1.813,0,0,0,.117-.8v-4.684a1.468,1.468,0,0,0-.154-.844.786.786,0,0,0-.624-.242H216.5v-.2h3.135a6.028,6.028,0,0,1,1.41.132,2.2,2.2,0,0,1,1.226.683,1.666,1.666,0,0,1,.418,1.123,1.571,1.571,0,0,1-.33.976A1.967,1.967,0,0,1,221.382,122.178Zm-2.8-.294a3.511,3.511,0,0,0,.448.059h.565a3.134,3.134,0,0,0,1.167-.169,1.292,1.292,0,0,0,.609-.521,1.424,1.424,0,0,0,.206-.734,1.373,1.373,0,0,0-.521-1.087,2.239,2.239,0,0,0-1.512-.448,3.524,3.524,0,0,0-.962.117Zm0,3.465a5.043,5.043,0,0,0,1.226.147,2.2,2.2,0,0,0,1.468-.433,1.38,1.38,0,0,0,.507-1.079,1.556,1.556,0,0,0-.228-.815,1.652,1.652,0,0,0-.734-.617,3.267,3.267,0,0,0-1.277-.22h-.573l-.374.044Z" transform="translate(-57.563 -31.544)" fill="#1a1a18"/>
    <path id="Контур_11723" data-name="Контур 11723" d="M230.348,117.77a3.3,3.3,0,0,1,2.445,1.072,3.715,3.715,0,0,1,1.035,2.68,3.8,3.8,0,0,1-1.042,2.746,3.494,3.494,0,0,1-5.036,0,3.847,3.847,0,0,1-1.02-2.76A3.671,3.671,0,0,1,227.9,118.7a3.45,3.45,0,0,1,2.445-.925Zm-.1.4a1.894,1.894,0,0,0-1.564.734,4.06,4.06,0,0,0-.734,2.628,4.243,4.243,0,0,0,.734,2.731,1.843,1.843,0,0,0,1.534.734,2.1,2.1,0,0,0,1.688-.8,3.847,3.847,0,0,0,.668-2.511,4.4,4.4,0,0,0-.734-2.775,1.975,1.975,0,0,0-1.593-.741Zm-.932-2.107a.576.576,0,1,1,.007,1.153.558.558,0,0,1-.411-.162.551.551,0,0,1-.176-.418.543.543,0,0,1,.176-.4.521.521,0,0,1,.4-.169Zm1.887,0a.551.551,0,0,1,.411.169.558.558,0,0,1,.169.4.587.587,0,0,1-.991.418.551.551,0,0,1-.176-.418.543.543,0,0,1,.176-.4A.551.551,0,0,1,231.207,116.06Z" transform="translate(-60.282 -30.858)" fill="#1a1a18"/>
    <path id="Контур_11724" data-name="Контур 11724" d="M237.24,125.871v-.2h.272a.734.734,0,0,0,.653-.294,1.747,1.747,0,0,0,.117-.793V119.9a1.468,1.468,0,0,0-.147-.844.786.786,0,0,0-.624-.242h-.272v-.2h2.936a6.519,6.519,0,0,1,2.474.367,3,3,0,0,1,1.358,1.233,3.8,3.8,0,0,1,.521,1.989,3.612,3.612,0,0,1-.925,2.525,4.03,4.03,0,0,1-3.142,1.138Zm2.07-.529a5.307,5.307,0,0,0,1.138.154,2.694,2.694,0,0,0,2.056-.874,3.81,3.81,0,0,0,0-4.728,2.738,2.738,0,0,0-2.1-.866,4.543,4.543,0,0,0-1.094.154Z" transform="translate(-63.078 -31.537)" fill="#1a1a18"/>
    <path id="Контур_11725" data-name="Контур 11725" d="M250.122,119.016v2.863h1.556a1.321,1.321,0,0,0,.837-.184,1.226,1.226,0,0,0,.308-.866h.2v2.525h-.2a2.606,2.606,0,0,0-.154-.675.617.617,0,0,0-.308-.3,1.6,1.6,0,0,0-.683-.11h-1.586v2.393a2.144,2.144,0,0,0,.044.587.264.264,0,0,0,.147.162.866.866,0,0,0,.411.066h1.226a3.222,3.222,0,0,0,.888-.088,1.344,1.344,0,0,0,.543-.33,4.4,4.4,0,0,0,.675-1.006h.213l-.624,1.821H248.03v-.2h.25a1.042,1.042,0,0,0,.492-.125.418.418,0,0,0,.228-.257,2.341,2.341,0,0,0,.066-.7v-4.713a1.556,1.556,0,0,0-.139-.852.852.852,0,0,0-.646-.213h-.25v-.2h5.587l.081,1.593h-.206a2.782,2.782,0,0,0-.25-.793.888.888,0,0,0-.4-.323,2.524,2.524,0,0,0-.734-.081Z" transform="translate(-65.946 -31.539)" fill="#1a1a18"/>
    <path id="Контур_11726" data-name="Контур 11726" d="M256.67,118.62h1.975l4.4,5.44v-4.177a1.468,1.468,0,0,0-.147-.837.771.771,0,0,0-.624-.228h-.228v-.2h2.525v.2h-.25a.734.734,0,0,0-.661.279,1.74,1.74,0,0,0-.11.785v6.108h-.2l-4.779-5.873v4.463a1.468,1.468,0,0,0,.147.83.8.8,0,0,0,.624.228h.257v.2h-2.525v-.2h.25a.734.734,0,0,0,.653-.279,1.556,1.556,0,0,0,.125-.778v-5.043a2.936,2.936,0,0,0-.477-.485,1.879,1.879,0,0,0-.485-.228,1.791,1.791,0,0,0-.47-.044Z" transform="translate(-68.244 -31.539)" fill="#1a1a18"/>
    <path id="Контур_11727" data-name="Контур 11727" d="M259.556,0a4.566,4.566,0,1,0,4.566,4.566A4.566,4.566,0,0,0,259.556,0Zm0,8.648a4.082,4.082,0,1,1,4.074-4.082,4.082,4.082,0,0,1-4.074,4.082Z" transform="translate(-67.797 0)" fill="#1a1a18"/>
    <path id="Контур_11728" data-name="Контур 11728" d="M263.115,6.67h-.272s-.073.448-.081.5a.58.58,0,0,1-.382.426h-.088a.205.205,0,0,1-.11-.125c-.117-.308-.184-.631-.286-.94a2.158,2.158,0,0,0-1.153-1.3s1.733-.389,1.733-1.4c0-.514-.477-.844-.9-1.028a4.4,4.4,0,0,0-1.791-.264h-2.2v.338s.925-.139.925.286V7.316c0,.411-.918.294-.918.294v.345h2.687v-.33h-.316c-.595,0-.595-.426-.595-.426V5.312a2.034,2.034,0,0,1,1.285.272c.389.228.389,1.38.389,1.38s0,1.131,1.05,1.123S263.115,6.67,263.115,6.67Zm-2.562-1.7h-1.2V3.3c0-.213.169-.418.646-.418s1.3.059,1.3,1.042S260.553,4.967,260.553,4.967Z" transform="translate(-68.486 -0.673)" fill="#1a1a18"/>
  </g>
</svg>
