<svg xmlns="http://www.w3.org/2000/svg" width="195.248" height="84.991" viewBox="0 0 195.248 84.991">
  <g id="befaglogo" transform="translate(0 -0.005)">
    <path id="Контур_11755" data-name="Контур 11755" d="M195.248,85.074C68.035,128.983,81.92,69.291,0,76.12,56.924,20.659,142.421,40.259,195.248,85.074Z" transform="translate(0 -16.337)" fill="#231f20" fill-rule="evenodd"/>
    <path id="Контур_11756" data-name="Контур 11756" d="M193.731,84.979C71.644,127.13,84.9,68.987,6.28,75.541,60.914,22.316,143.023,41.952,193.731,84.979Z" transform="translate(-2.434 -16.769)" fill="#005941" fill-rule="evenodd"/>
    <path id="Контур_11757" data-name="Контур 11757" d="M144.9,40.888l.331.276.325.263.337.257.349.239.349.239.355.22.361.208.367.2.374.184.38.171.386.165.392.147.4.135.4.122.4.1.41.1.41.08.416.067.423.049.429.043.423.018.441.006.723-.018.717-.067.71-.1.692-.147.686-.184.668-.227.661-.257.643-.3.619-.331.612-.367.588-.4.57-.429.551-.465.533-.49.508-.514.484-.545.465-.57.441-.6.416-.619.386-.643.368-.661.337-.686.306-.7.282-.723.251-.747.22-.753.184-.778.159-.79.122-.8.086-.815.055-.827.018-.833-.018-.808-.049-.79-.08-.784-.116-.772-.141-.759-.178-.747-.2-.729-.227-.717-.263-.7-.288-.686-.312-.668-.331-.643-.368-.631-.386-.606-.4-.582-.435-.563-.453-.545-.472-.514-.5-.49-.514-.465-.533-.435-.551-.4-.563-.386-.588-.349-.6-.318-.619-.282-.625-.257-.643-.214-.655-.184-.668-.147-.68-.11-.27-.031-.073-.239L154.4,10.6l-.233-.606-.245-.594-.263-.582-.282-.57-.294-.557-.312-.539-.325-.527-.343-.5-.355-.5-.367-.472L151,4.7l-.392-.441-.41-.423-.423-.4-.429-.386-.447-.361-.453-.343-.472-.318-.478-.294-.484-.276-.5-.251L146,.972l-.508-.2L144.96.592l-.527-.153-.539-.122-.551-.1-.551-.067L142.228.1,141.665.09,141.089.1l-.563.043-.563.073-.557.1-.551.129-.539.159-.533.184L137.255,1l-.508.233-.508.263-.49.282-.484.306-.478.331-.459.349-.447.374-.441.392-.423.416-.41.435-.4.453-.386.465-.367.49L131.1,6.3l-.343.521-.325.539-.312.557-.294.57-.276.582-.263.6-.245.612-.227.625-.208.637-.092.312-.251.073-.582.19-.576.227-.557.251-.545.276-.539.306-.521.331-.508.349-.5.374-.478.4-.465.416-.447.447-.429.459-.41.484-.4.5-.38.521-.361.539-.337.557-.325.57-.3.594-.282.6-.251.619-.239.631-.214.649-.19.655-.171.674-.141.68-.116.692-.1.7-.061.717-.043.717-.012.729.012.833.055.827.092.815.122.8.153.79.19.778.22.753.251.747.276.723.312.7.337.686.361.661.392.643.416.619.435.6.465.57.49.545.508.514.527.49.551.465.576.429.588.4.606.367.625.331.643.3.661.257.668.227.68.184.7.147.71.1.717.067.723.018.435-.006.429-.018.423-.043.423-.049.417-.067.416-.08.41-.1.4-.1.4-.122.4-.135.386-.153.386-.159.38-.171.374-.19.374-.2.361-.208.355-.22.349-.239.343-.239.337-.257.331-.263.325-.276.318-.288.306-.294.3-.306.294-.318.288-.325.276-.331.269-.343.245-.331.245.331.27.343.276.331.288.325.294.318.3.306.312.294.312.288Z" transform="translate(-45.645)" fill="#231f20" stroke="#231f20" stroke-miterlimit="2.61" stroke-width="0.17" fill-rule="evenodd"/>
    <path id="Контур_11758" data-name="Контур 11758" d="M142.993,37.658a12.911,12.911,0,0,0,10.749,6.3c7.417,0,13.475-7.093,13.475-15.79,0-8.354-5.58-15.22-12.58-15.759C152.695,5.8,147.789,1.08,142.068,1.08c-5.812,0-10.786,4.9-12.66,11.637C123.357,14.261,118.8,20.6,118.8,28.152c0,8.7,6.045,15.79,13.475,15.79a12.839,12.839,0,0,0,10.743-6.3Z" transform="translate(-46.037 -0.384)" fill="#008457" stroke="#231f20" stroke-miterlimit="2.61" stroke-width="0.17" fill-rule="evenodd"/>
    <path id="Контур_11759" data-name="Контур 11759" d="M88.38,80.482v-1.1a3.265,3.265,0,0,0,1.935-.68,3.1,3.1,0,0,0,.5-2.076V66.609a3.115,3.115,0,0,0-.5-2.089,3.264,3.264,0,0,0-1.935-.68v-1h4.9a36.456,36.456,0,0,1,3.969.147,9.107,9.107,0,0,1,2.046.453,4.287,4.287,0,0,1,2.015,1.4,3.479,3.479,0,0,1,.7,2.168,3.589,3.589,0,0,1-1,2.6A6.217,6.217,0,0,1,98,71.16a7.062,7.062,0,0,1,3.577,1.574A3.8,3.8,0,0,1,102.8,75.65a4.674,4.674,0,0,1-.392,1.893,4.459,4.459,0,0,1-3.363,2.609,25.472,25.472,0,0,1-4.851.306Zm5.182-8.612v5.071a2.548,2.548,0,0,0,.551,1.837,2.621,2.621,0,0,0,1.88.539,3.761,3.761,0,0,0,2.683-.98A3.338,3.338,0,0,0,99.723,75.8a3.5,3.5,0,0,0-1.378-2.94A6.217,6.217,0,0,0,94.486,71.8h-.57a3.158,3.158,0,0,0-.355.037Zm0-1.225c.282.067.545.11.784.147a5.122,5.122,0,0,0,.668.049,4.41,4.41,0,0,0,3-1.023,3.338,3.338,0,0,0,1.164-2.6,2.915,2.915,0,0,0-1.06-2.383,4.367,4.367,0,0,0-2.885-.882,3.418,3.418,0,0,0-1.36.171c-.208.116-.306.41-.306.876v5.659ZM105,80.488v-1.1a3.332,3.332,0,0,0,1.954-.68,3.147,3.147,0,0,0,.49-2.082v-10.1a3.127,3.127,0,0,0-.49-2.076,3.289,3.289,0,0,0-1.954-.68v-.931h14l.122,3.736h-1.047a3.283,3.283,0,0,0-1.537-2.107,7.962,7.962,0,0,0-3.62-.612h-1.788a1.225,1.225,0,0,0-.729.141,1.09,1.09,0,0,0-.147.71V70.56h2a6.214,6.214,0,0,0,3.062-.514,2.119,2.119,0,0,0,.778-1.837h1.066v5.935h-1.066a2.211,2.211,0,0,0-.8-1.886,5.946,5.946,0,0,0-3.007-.521h-2v5.139a2.493,2.493,0,0,0,.655,1.984,4.321,4.321,0,0,0,2.554.551,5.512,5.512,0,0,0,3.105-.851,6.566,6.566,0,0,0,2.174-2.664l1.109.276-1.072,4.287Z" transform="translate(-34.249 -24.313)" fill="#e8c582" stroke="#231f20" stroke-miterlimit="10" stroke-width="0.75"/>
    <path id="Контур_11760" data-name="Контур 11760" d="M150.9,63.316c0,1.972.312,3.283.931,3.92a6.186,6.186,0,0,0,3.675,1.286v2.07H141v-2.07c1.837-.208,3.062-.612,3.675-1.286s.931-1.948.931-3.92V44.366q0-2.964-.931-3.932A6.38,6.38,0,0,0,141,39.147V37.31h27.28L169,44.978H166.89a7.279,7.279,0,0,0-2.811-4.434c-1.3-.845-3.412-1.262-6.3-1.262h-5.751a1.225,1.225,0,0,0-.9.245,1.574,1.574,0,0,0-.227,1.017V51.979h6.125c1.893,0,3.222-.318,3.957-.955a4.925,4.925,0,0,0,1.3-3.454h1.837V59.114h-1.837a4.824,4.824,0,0,0-1.66-3.828c-1.011-.766-2.719-1.151-5.108-1.151h-4.637v9.187Z" transform="translate(-54.64 -14.423)" fill="#e8c582" stroke="#231f20" stroke-miterlimit="10" stroke-width="0.75"/>
    <path id="Контур_11761" data-name="Контур 11761" d="M182.856,71.689h4.612l-2.254-6.627Zm-5.206,8.575V79.136a2.364,2.364,0,0,0,1.335-.692,6.866,6.866,0,0,0,1.109-2.229l4.287-12.152a.877.877,0,0,0,.055-.11,2.365,2.365,0,0,0,.178-.717,1.016,1.016,0,0,0-.061-.331,1.494,1.494,0,0,0-.2-.319h2.695l5.01,13.885a6.014,6.014,0,0,0,1.011,1.972,2.009,2.009,0,0,0,1.28.692v1.1h-6.811v-1.1a3.271,3.271,0,0,0,1.415-.4.968.968,0,0,0,.386-.857,3.718,3.718,0,0,0-.067-.655,3.6,3.6,0,0,0-.19-.68L187.9,73.1h-5.512l-.845,2.946a5.767,5.767,0,0,0-.153.686,4.061,4.061,0,0,0-.055.612,1.482,1.482,0,0,0,.423,1.145,3.063,3.063,0,0,0,1.452.612v1.1Zm28.787-8.869h6.878v.925a2.089,2.089,0,0,0-1.537.778,5.656,5.656,0,0,0-.4,2.67v4.067c-1.188.282-2.272.5-3.258.643a18.778,18.778,0,0,1-2.634.208,10.712,10.712,0,0,1-2.585-.3,9.6,9.6,0,0,1-2.321-.919,8.942,8.942,0,0,1-3.418-3.307,8.752,8.752,0,0,1-1.188-4.557,9.726,9.726,0,0,1,.643-3.534,9.145,9.145,0,0,1,1.9-2.989,8.961,8.961,0,0,1,3.136-2.18,10.412,10.412,0,0,1,3.969-.71,10.976,10.976,0,0,1,2.713.337,13.4,13.4,0,0,1,2.689,1.035l.4,3.712-1.023.049a5.684,5.684,0,0,0-2.021-3.062,6.064,6.064,0,0,0-3.614-.992,4.973,4.973,0,0,0-4.2,1.96,9.122,9.122,0,0,0-1.482,5.567,10.921,10.921,0,0,0,1.543,6.29,4.967,4.967,0,0,0,4.336,2.229,10.822,10.822,0,0,0,1.948-.171,7.644,7.644,0,0,0,1.69-.521V74.947a3.323,3.323,0,0,0-.453-2.131,2.542,2.542,0,0,0-1.715-.551v-.9Z" transform="translate(-68.842 -24.064)" fill="#e8c582" stroke="#231f20" stroke-miterlimit="10" stroke-width="0.75"/>
    <path id="Контур_11762" data-name="Контур 11762" d="M211.85,117.958v-.22l2.523-3.706h-.986a1.176,1.176,0,0,0-.612.135,1.225,1.225,0,0,0-.361.521h-.245l.043-.937h2.971v.214l-2.45,3.675h.919a1.954,1.954,0,0,0,.851-.159,1.837,1.837,0,0,0,.612-.612h.288l-.312,1.035Z" transform="translate(-82.095 -44.045)" fill="#e8c582" fill-rule="evenodd"/>
    <path id="Контур_11763" data-name="Контур 11763" d="M131.309,115.066a1.531,1.531,0,0,1,.71.294.857.857,0,0,1,.331.686.98.98,0,0,1-.214.612,1.256,1.256,0,0,1-.612.41,3.8,3.8,0,0,1-1.151.129H128.21v-.11h.171a.5.5,0,0,0,.41-.165.907.907,0,0,0,.08-.453V113.8a.784.784,0,0,0-.1-.478.527.527,0,0,0-.392-.135h-.171v-.116h1.978a4.355,4.355,0,0,1,.894.073,1.446,1.446,0,0,1,.772.392.87.87,0,0,1,.269.612.833.833,0,0,1-.208.557,1.225,1.225,0,0,1-.612.361Zm-1.776-.165a.843.843,0,0,1,.288.037h.349a2.291,2.291,0,0,0,.747-.092.808.808,0,0,0,.38-.294.79.79,0,0,0,.135-.435.766.766,0,0,0-.331-.612,1.574,1.574,0,0,0-.955-.251,2.376,2.376,0,0,0-.613.067v1.58Zm0,1.972a3.774,3.774,0,0,0,.772.086,1.513,1.513,0,0,0,.937-.251.747.747,0,0,0,.325-.612.815.815,0,0,0-.147-.459.949.949,0,0,0-.478-.355,2.34,2.34,0,0,0-.808-.122h-.361a1.263,1.263,0,0,0-.239,0v1.69Zm6.37-1.084h-1.776l-.312.655a.888.888,0,0,0-.116.355.2.2,0,0,0,.1.165,1,1,0,0,0,.435.1v.11h-1.445v-.11a.956.956,0,0,0,.374-.123,1.936,1.936,0,0,0,.38-.612l1.617-3.393h.116l1.6,3.43a1.611,1.611,0,0,0,.349.539.8.8,0,0,0,.441.141v.11h-1.837v-.11a.772.772,0,0,0,.374-.086.214.214,0,0,0,.092-.171,1.164,1.164,0,0,0-.135-.423l-.276-.612Zm-.1-.22-.778-1.666-.821,1.66Zm4.006-.686,1.69,1.513a2.964,2.964,0,0,0,.71.508,1.654,1.654,0,0,0,.612.159v.11h-2.187v-.11a.533.533,0,0,0,.282-.061.165.165,0,0,0,.086-.135.282.282,0,0,0,0-.129,1.17,1.17,0,0,0-.208-.214l-1.586-1.409v1.329a1.188,1.188,0,0,0,.043.41.3.3,0,0,0,.141.135.772.772,0,0,0,.306.074h.159v.11h-1.978v-.11h.165a.515.515,0,0,0,.41-.153.808.808,0,0,0,.086-.465v-2.67a1.145,1.145,0,0,0-.049-.41.276.276,0,0,0-.135-.129.692.692,0,0,0-.312-.073h-.165v-.116h1.96v.116h-.159a.766.766,0,0,0-.306.067.288.288,0,0,0-.147.147,1.365,1.365,0,0,0-.037.4v1.268q.061-.067.459-.386a9.568,9.568,0,0,0,1.225-1.109.355.355,0,0,0,.092-.208.141.141,0,0,0-.074-.122.392.392,0,0,0-.239-.055h-.1v-.116h1.684v.116a.925.925,0,0,0-.27.037,1.225,1.225,0,0,0-.3.129,2.786,2.786,0,0,0-.429.306c-.055.043-.282.251-.692.612l-.7.612Zm5.469-1.929a2.174,2.174,0,0,1,1.55.612,1.972,1.972,0,0,1,.655,1.519,2.058,2.058,0,0,1-.661,1.562,2.383,2.383,0,0,1-3.191,0,2.04,2.04,0,0,1-.613-1.562,2,2,0,0,1,.747-1.6,2.315,2.315,0,0,1,1.543-.539Zm-.061.22a1.3,1.3,0,0,0-.992.41,2.18,2.18,0,0,0-.459,1.5,2.266,2.266,0,0,0,.478,1.55,1.225,1.225,0,0,0,.974.416,1.409,1.409,0,0,0,1.072-.453,2.046,2.046,0,0,0,.423-1.433,2.309,2.309,0,0,0-.465-1.574,1.323,1.323,0,0,0-1.029-.416Zm2.45-.129h1.225l2.811,3.1v-2.383c0-.251-.031-.41-.1-.472a.521.521,0,0,0-.392-.129h-.159v-.116h1.592v.116h-.159a.484.484,0,0,0-.41.159.766.766,0,0,0-.074.441v3.479h-.122l-3.032-3.326v2.542a.784.784,0,0,0,.092.478.545.545,0,0,0,.4.129h.178v.11h-1.6v-.11h.159a.521.521,0,0,0,.423-.159.864.864,0,0,0,.074-.447V113.59a1.953,1.953,0,0,0-.306-.276,1.182,1.182,0,0,0-.3-.129,1.225,1.225,0,0,0-.3,0v-.116Zm8.4,0h1.6v.116h-.092a.876.876,0,0,0-.257.067,1.108,1.108,0,0,0-.306.2,2.506,2.506,0,0,0-.343.429l-1.109,1.562v1.035a.729.729,0,0,0,.1.478.551.551,0,0,0,.4.129h.147v.11h-1.948v-.11h.147a.5.5,0,0,0,.416-.159.864.864,0,0,0,.073-.447v-.974l-1.262-1.727a3.159,3.159,0,0,0-.3-.38,1.078,1.078,0,0,0-.331-.184.423.423,0,0,0-.2,0v-.116h1.966v.116h-.1a.613.613,0,0,0-.294.067.214.214,0,0,0-.129.2.949.949,0,0,0,.2.392l.962,1.329.9-1.274a.888.888,0,0,0,.2-.423.269.269,0,0,0-.049-.153.312.312,0,0,0-.141-.1.784.784,0,0,0-.276-.037v-.116Zm3.154.227V114.9h1.011a.857.857,0,0,0,.521-.1.613.613,0,0,0,.2-.5h.129v1.439h-.129a1.433,1.433,0,0,0-.092-.386.392.392,0,0,0-.2-.165,1.059,1.059,0,0,0-.423-.061h-1.011v1.36a1.158,1.158,0,0,0,0,.331.214.214,0,0,0,.1.1.747.747,0,0,0,.257.031h.778a2.45,2.45,0,0,0,.563-.049.87.87,0,0,0,.343-.19,2.634,2.634,0,0,0,.429-.57h.135l-.4,1.035H157.9v-.11h.2a.661.661,0,0,0,.306-.074.251.251,0,0,0,.147-.147,1.108,1.108,0,0,0,.043-.4v-2.677a.778.778,0,0,0-.092-.484.533.533,0,0,0-.4-.123h-.159v-.116h3.534l.055.906h-.135a1.225,1.225,0,0,0-.159-.447.527.527,0,0,0-.251-.184,1.679,1.679,0,0,0-.478-.049Zm7.472,3.9h-1.225l-1.556-1.929h-.478v1.225a.808.808,0,0,0,.092.484.527.527,0,0,0,.386.135h.178v.11h-1.966v-.11h.171a.484.484,0,0,0,.416-.172.863.863,0,0,0,.073-.447V113.8a.772.772,0,0,0-.092-.478.533.533,0,0,0-.4-.135h-.171v-.116H163.8a4.477,4.477,0,0,1,1.078.1,1.262,1.262,0,0,1,.612.355.864.864,0,0,1,.239.612.925.925,0,0,1-.276.661,1.648,1.648,0,0,1-.851.392l.943,1.182a2.352,2.352,0,0,0,.557.545,1.733,1.733,0,0,0,.612.171v.11Zm-3.258-2.119h.184a1.641,1.641,0,0,0,.992-.251.79.79,0,0,0,.337-.655.8.8,0,0,0-.269-.612,1.011,1.011,0,0,0-.717-.245,2.885,2.885,0,0,0-.527.061v1.715Zm3.314,2.119v-.11h.178a.478.478,0,0,0,.41-.172.864.864,0,0,0,.074-.447v-2.67a.772.772,0,0,0-.092-.478.514.514,0,0,0-.392-.135h-.178v-.116h1.874a4.428,4.428,0,0,1,1.562.214,1.788,1.788,0,0,1,.864.7,2.089,2.089,0,0,1-.251,2.572,2.75,2.75,0,0,1-1.991.612Zm1.311-.3a3.988,3.988,0,0,0,.723.086,1.8,1.8,0,0,0,1.3-.5,2,2,0,0,0,0-2.689,1.838,1.838,0,0,0-1.329-.5,3.131,3.131,0,0,0-.7.092v3.5Zm6.125-3.92a2.187,2.187,0,0,1,1.55.612,1.991,1.991,0,0,1,.655,1.519,2.058,2.058,0,0,1-.661,1.562,2.383,2.383,0,0,1-3.191,0,2.04,2.04,0,0,1-.612-1.562,2,2,0,0,1,.741-1.6,2.34,2.34,0,0,1,1.55-.539Zm-.067.22a1.274,1.274,0,0,0-.986.41,2.18,2.18,0,0,0-.466,1.5,2.236,2.236,0,0,0,.484,1.55,1.225,1.225,0,0,0,.974.416,1.39,1.39,0,0,0,1.066-.453,2.046,2.046,0,0,0,.423-1.433,2.278,2.278,0,0,0-.465-1.574,1.3,1.3,0,0,0-1.029-.416Zm-.484-1.464h.612l-.747,1.047h-.1l.221-1.047Zm1.06,0h.612l-.741,1.047h-.116l.22-1.047Zm13.652,5.463h-1.225l-1.556-1.929h-.478v1.225a.809.809,0,0,0,.092.484.527.527,0,0,0,.386.135h.184v.11h-1.972v-.11h.178a.478.478,0,0,0,.41-.172.864.864,0,0,0,.074-.447V113.8a.772.772,0,0,0-.092-.478.527.527,0,0,0-.392-.135h-.178v-.116h1.672a4.569,4.569,0,0,1,1.084.1,1.292,1.292,0,0,1,.612.355.864.864,0,0,1,.239.612.925.925,0,0,1-.276.661,1.648,1.648,0,0,1-.851.392l.943,1.182a2.364,2.364,0,0,0,.563.545,1.66,1.66,0,0,0,.612.171v.11Zm-3.258-2.119h.19a1.635,1.635,0,0,0,.986-.251.79.79,0,0,0,.337-.655.8.8,0,0,0-.269-.612,1.035,1.035,0,0,0-.717-.245,2.885,2.885,0,0,0-.527.061v1.715Zm6.792-2.009.055.968h-.159a1.072,1.072,0,0,0-.1-.361.668.668,0,0,0-.276-.263,1.1,1.1,0,0,0-.459-.08h-.631v3.148a.784.784,0,0,0,.092.478.527.527,0,0,0,.4.129h.159v.11h-1.948v-.11h.159a.5.5,0,0,0,.416-.159.863.863,0,0,0,.074-.447v-3.148h-.551a1.641,1.641,0,0,0-.459.043.613.613,0,0,0-.3.22.79.79,0,0,0-.147.441h-.1l.049-.968Z" transform="translate(-49.683 -43.254)" fill="#e8c582"/>
    <path id="Контур_11764" data-name="Контур 11764" d="M88.37,100.095V99.77a5,5,0,0,0,1.421-.2.612.612,0,0,0,.361-.612V96.077a.643.643,0,0,0-.374-.668,3.981,3.981,0,0,0-1.372-.159v-.269h4.9a17.658,17.658,0,0,1,4.012.331c.864.22,1.3.557,1.3,1.023s-.416.759-1.225,1.035a10.6,10.6,0,0,1-3.209.41,6.266,6.266,0,0,1-.986-.049c-.147,0-.22-.086-.22-.172a.11.11,0,0,1,.067-.129,1.041,1.041,0,0,1,.349-.037h.331a5.126,5.126,0,0,0,1.911-.3c.49-.2.735-.459.735-.778s-.257-.576-.778-.759a6.737,6.737,0,0,0-2.162-.276,5.378,5.378,0,0,0-1,.055.239.239,0,0,0-.22.251V98.98a.612.612,0,0,0,.361.612,5.175,5.175,0,0,0,1.445.2v.325ZM102.42,97.6H105.8l-1.66-1.929Zm-3.81,2.493V99.77a3.356,3.356,0,0,0,.98-.2,2.591,2.591,0,0,0,.808-.649l3.154-3.546.037-.031c.092-.092.135-.159.135-.208a.147.147,0,0,0-.049-.1.557.557,0,0,0-.141-.092h1.935L109.145,99a2.235,2.235,0,0,0,.741.576,2.725,2.725,0,0,0,.937.2v.325h-4.961V99.77a5.91,5.91,0,0,0,1.035-.11c.19-.055.282-.141.282-.251a.459.459,0,0,0-.049-.19.711.711,0,0,0-.141-.2l-.87-1.011h-4.036l-.612.864a1.641,1.641,0,0,0-.11.2.545.545,0,0,0-.037.184c0,.147.1.257.306.337a4.643,4.643,0,0,0,1.066.178v.325Zm17.094-2.817h1a6.645,6.645,0,0,0,2.18-.288c.533-.184.8-.441.8-.759s-.276-.545-.827-.729a6.964,6.964,0,0,0-2.168-.276,4.184,4.184,0,0,0-.8.049.221.221,0,0,0-.184.227v1.746Zm-3.742,2.817V99.77a3.859,3.859,0,0,0,1.311-.214.612.612,0,0,0,.367-.612V96.126q0-.557-.331-.7a4.74,4.74,0,0,0-1.347-.184v-.263h4.526a18.528,18.528,0,0,1,4.03.325c.888.214,1.335.539,1.335.968s-.263.612-.8.845a8.734,8.734,0,0,1-2.389.472c.257.08.5.165.723.251s.435.178.612.263l2.615,1.225h.055a3.815,3.815,0,0,0,1.439.441h.037v.325h-2.407l-4.073-1.948a6.224,6.224,0,0,0-1.053-.423,2.952,2.952,0,0,0-.753-.092h-.178v1.292a.649.649,0,0,0,.331.612,3.748,3.748,0,0,0,1.274.2v.325Zm17.192-1.127a.613.613,0,0,0,.361.612,5.01,5.01,0,0,0,1.427.2v.325H125.26v-.325a5.01,5.01,0,0,0,1.427-.2.612.612,0,0,0,.367-.612v-2.9a.613.613,0,0,0-.361-.612,5.151,5.151,0,0,0-1.433-.2v-.276h5.659V95.3a5.176,5.176,0,0,0-1.427.2.613.613,0,0,0-.361.612v1.3l3.246-1.176a5.6,5.6,0,0,0,.894-.374c.147-.086.22-.178.22-.257s-.092-.165-.276-.22a3.6,3.6,0,0,0-.839-.1v-.312h5.09v.3a11.815,11.815,0,0,0-1.513.19,10.876,10.876,0,0,0-1.5.447l-3.3,1.262,4.741,1.954a10.119,10.119,0,0,0,1.556.527,5.646,5.646,0,0,0,1.292.141h.037v.325h-3.216l-5.941-2.45-.5.135V99Zm10.786,1.127V99.77a5.1,5.1,0,0,0,1.433-.2.612.612,0,0,0,.361-.612v-2.94a.612.612,0,0,0-.361-.612,5.279,5.279,0,0,0-1.433-.2v-.227H150.2l.086,1.09h-.766a1.764,1.764,0,0,0-1.127-.612,14.087,14.087,0,0,0-2.652-.178h-1.3a1.887,1.887,0,0,0-.539.043c-.067,0-.1.092-.1.2v1.709h1.458a10.076,10.076,0,0,0,2.223-.153q.551-.147.57-.533h.735v1.727H148q0-.4-.612-.551a9.99,9.99,0,0,0-2.2-.153H143.72v1.494a.612.612,0,0,0,.5.612,6.964,6.964,0,0,0,1.868.165,8.992,8.992,0,0,0,2.272-.251,4.165,4.165,0,0,0,1.592-.778l.815.08-.766,1.2Zm14.969,0V99.77a4.085,4.085,0,0,0,1.4-.171.612.612,0,0,0,.38-.612V95.311h-1.176a7.675,7.675,0,0,0-1.954.171,2.45,2.45,0,0,0-1.109.625h-.8l.367-1.158h11.386l.472,1.158h-.815a4.005,4.005,0,0,0-1.292-.649,6.737,6.737,0,0,0-1.7-.171h-1.292v3.675a.612.612,0,0,0,.355.612,4.011,4.011,0,0,0,1.354.178v.325Zm13.1,0V99.77a4.085,4.085,0,0,0,1.4-.171.612.612,0,0,0,.38-.612V95.311h-1.182a7.674,7.674,0,0,0-1.954.171,2.45,2.45,0,0,0-1.06.655h-.8l.368-1.158h11.362L177,96.138h-.815a4.006,4.006,0,0,0-1.292-.649,6.737,6.737,0,0,0-1.7-.171h-1.292v3.675a.612.612,0,0,0,.355.612,4.012,4.012,0,0,0,1.354.178v.325Z" transform="translate(-34.245 -36.76)" fill="#e8c582"/>
  </g>
</svg>
