<svg id="tilologo" xmlns="http://www.w3.org/2000/svg" width="125.304" height="125.304" viewBox="0 0 125.304 125.304">
  <rect id="Прямоугольник_2220" data-name="Прямоугольник 2220" width="125.304" height="125.304" fill="#ffe162"/>
  <path id="Контур_11765" data-name="Контур 11765" d="M58.821,195.514H53.2V183.841a.51.51,0,0,0-.522-.522H39.336a.51.51,0,0,0-.522.522v11.673H33.571a.513.513,0,0,0-.522.525v8.608a.51.51,0,0,0,.522.522h5.243v16.565c-.757,11.655,5.145,13.02,14.912,13.02,2.028,0,2.1.024,5.157-.177a.5.5,0,0,0,.433-.563v-8.1c0-.433-.256-.436-.368-.421a14.935,14.935,0,0,1-3.027.177c-3.33,0-2.726-4.919-2.726-5.894V205.169h5.626a.513.513,0,0,0,.525-.522v-8.608a.513.513,0,0,0-.525-.525Z" transform="translate(-23.31 -129.295)" fill="#1a1a18"/>
  <path id="Контур_11766" data-name="Контур 11766" d="M149.5,224.69H136.161a.51.51,0,0,0-.522.522v38.175a.513.513,0,0,0,.522.525H149.5a.513.513,0,0,0,.525-.525V225.211a.513.513,0,0,0-.525-.522Z" transform="translate(-95.667 -158.473)" fill="#1a1a18"/>
  <path id="Контур_11767" data-name="Контур 11767" d="M211.669,183.32H198.331a.51.51,0,0,0-.522.522v50.367a.513.513,0,0,0,.522.525h13.338a.513.513,0,0,0,.525-.525V183.841a.513.513,0,0,0-.525-.522Z" transform="translate(-139.515 -129.295)" fill="#1a1a18"/>
  <path id="Контур_11768" data-name="Контур 11768" d="M149.5,183.66H136.161a.51.51,0,0,0-.522.522v7.073a.51.51,0,0,0,.522.522H149.5a.513.513,0,0,0,.525-.522v-7.073a.513.513,0,0,0-.525-.522Z" transform="translate(-95.667 -129.535)" fill="#1a1a18"/>
  <path id="Контур_11769" data-name="Контур 11769" d="M276.514,221.19A19.984,19.984,0,1,0,296.5,241.174,19.984,19.984,0,0,0,276.514,221.19Zm.127,26.853a7,7,0,1,1,7-7A7,7,0,0,1,276.64,248.043Z" transform="translate(-180.93 -156.005)" fill="#1a1a18"/>
</svg>
