<svg width="40" height="40" viewBox="0 0 40 40" fill="none" xmlns="http://www.w3.org/2000/svg">
<circle cx="20" cy="20" r="20" fill="#990511"/>
<path d="M10.8992 15.424C10.8992 14.704 10.9952 14.072 11.1872 13.528C11.3792 12.984 11.6432 12.528 11.9792 12.16C12.3312 11.776 12.7392 11.488 13.2032 11.296C13.6672 11.104 14.1712 11.008 14.7152 11.008C15.2592 11.008 15.7632 11.104 16.2272 11.296C16.6912 11.488 17.0912 11.776 17.4272 12.16C17.7792 12.528 18.0512 12.984 18.2432 13.528C18.4352 14.072 18.5312 14.704 18.5312 15.424C18.5312 16.144 18.4352 16.776 18.2432 17.32C18.0512 17.864 17.7792 18.328 17.4272 18.712C17.0912 19.08 16.6912 19.36 16.2272 19.552C15.7632 19.744 15.2592 19.84 14.7152 19.84C14.1712 19.84 13.6672 19.744 13.2032 19.552C12.7392 19.36 12.3312 19.08 11.9792 18.712C11.6432 18.328 11.3792 17.864 11.1872 17.32C10.9952 16.776 10.8992 16.144 10.8992 15.424ZM16.6592 15.424C16.6592 14.56 16.4912 13.888 16.1552 13.408C15.8192 12.912 15.3392 12.664 14.7152 12.664C14.0912 12.664 13.6112 12.912 13.2752 13.408C12.9392 13.888 12.7712 14.56 12.7712 15.424C12.7712 16.288 12.9392 16.968 13.2752 17.464C13.6112 17.944 14.0912 18.184 14.7152 18.184C15.3392 18.184 15.8192 17.944 16.1552 17.464C16.4912 16.968 16.6592 16.288 16.6592 15.424ZM21.4592 23.944C21.4592 23.224 21.5552 22.592 21.7472 22.048C21.9392 21.504 22.2032 21.048 22.5392 20.68C22.8912 20.296 23.2992 20.008 23.7632 19.816C24.2272 19.624 24.7312 19.528 25.2752 19.528C25.8192 19.528 26.3232 19.624 26.7872 19.816C27.2512 20.008 27.6512 20.296 27.9872 20.68C28.3392 21.048 28.6112 21.504 28.8032 22.048C28.9952 22.592 29.0912 23.224 29.0912 23.944C29.0912 24.664 28.9952 25.296 28.8032 25.84C28.6112 26.384 28.3392 26.848 27.9872 27.232C27.6512 27.6 27.2512 27.88 26.7872 28.072C26.3232 28.264 25.8192 28.36 25.2752 28.36C24.7312 28.36 24.2272 28.264 23.7632 28.072C23.2992 27.88 22.8912 27.6 22.5392 27.232C22.2032 26.848 21.9392 26.384 21.7472 25.84C21.5552 25.296 21.4592 24.664 21.4592 23.944ZM27.2192 23.944C27.2192 23.08 27.0512 22.408 26.7152 21.928C26.3792 21.432 25.8992 21.184 25.2752 21.184C24.6512 21.184 24.1712 21.432 23.8352 21.928C23.4992 22.408 23.3312 23.08 23.3312 23.944C23.3312 24.808 23.4992 25.488 23.8352 25.984C24.1712 26.464 24.6512 26.704 25.2752 26.704C25.8992 26.704 26.3792 26.464 26.7152 25.984C27.0512 25.488 27.2192 24.808 27.2192 23.944ZM25.7792 11.368L16.3952 28H14.2112L23.5952 11.368H25.7792Z" fill="white"/>
</svg>
