<svg xmlns="http://www.w3.org/2000/svg" xmlns:xlink="http://www.w3.org/1999/xlink" width="42" height="42" viewBox="0 0 42 42">
  <defs>
    <clipPath id="clip-path">
      <rect id="Прямоугольник_1968" data-name="Прямоугольник 1968" width="42" height="42" rx="3" transform="translate(-0.046 -0.046)" fill="#707070" stroke="#707070" stroke-width="1" stroke-dasharray="3 3"/>
    </clipPath>
  </defs>
  <g id="Группа_масок_26" data-name="Группа масок 26" transform="translate(0.046 0.046)" clip-path="url(#clip-path)">
    <g id="_001-water-drop" data-name="001-water-drop" transform="translate(6.593 2.684)">
      <g id="Сгруппировать_6045" data-name="Сгруппировать 6045" transform="translate(0 0)">
        <path id="Контур_11591" data-name="Контур 11591" d="M13.9,30.592a8.315,8.315,0,0,1-4.22-12.87.723.723,0,0,0,.064-.105.709.709,0,0,0-1.213-.727,9.733,9.733,0,0,0,.043,11.587,9.812,9.812,0,0,0,4.9,3.471.709.709,0,0,0,.421-1.355Z" transform="translate(-3.677 0.578)" fill="#707070"/>
        <path id="Контур_11592" data-name="Контур 11592" d="M32.179,16.573a6.245,6.245,0,0,0-1.217-3.721l-4.49-6.665a.709.709,0,0,0-1.176,0L23.4,9,17.555.313a.709.709,0,0,0-1.176,0L6.338,15.219A13.19,13.19,0,1,0,30.157,23.03a13.314,13.314,0,0,0-.114-1.735A6.281,6.281,0,0,0,32.179,16.573Zm-6.295-8.72,3.9,5.791.025.036a4.876,4.876,0,1,1-7.851,0l.024-.034,2.009-2.982L24,10.648ZM28.739,23.03A11.772,11.772,0,1,1,7.491,16.045l.025-.036,9.451-14.03,5.583,8.287-1.743,2.587a6.294,6.294,0,0,0,7.9,9.345q.029.415.03.832Z" transform="translate(-3.777 0)" fill="#707070"/>
        <path id="Контур_11593" data-name="Контур 11593" d="M22.771,15.915a2.411,2.411,0,0,1,.208-.986.709.709,0,1,0-1.3-.576,3.852,3.852,0,0,0,1.38,4.762.709.709,0,0,0,.789-1.179A2.428,2.428,0,0,1,22.771,15.915Z" transform="translate(-3.165 0.486)" fill="#707070"/>
        <path id="Контур_11594" data-name="Контур 11594" d="M16.244,31.085a.709.709,0,1,0-.794.967A.715.715,0,0,0,16.244,31.085Z" transform="translate(-3.39 1.068)" fill="#707070"/>
        <path id="Контур_11595" data-name="Контур 11595" d="M24.79,19.609a.709.709,0,1,0,0-1.179A.712.712,0,0,0,24.79,19.609Z" transform="translate(-3.056 0.638)" fill="#707070"/>
      </g>
    </g>
  </g>
</svg>
