<svg xmlns="http://www.w3.org/2000/svg" xmlns:xlink="http://www.w3.org/1999/xlink" width="42" height="42" viewBox="0 0 42 42">
  <defs>
    <clipPath id="clip-path">
      <rect id="Прямоугольник_1968" data-name="Прямоугольник 1968" width="42" height="42" rx="3" transform="translate(0.483 -0.046)" fill="#707070" stroke="#707070" stroke-width="1" stroke-dasharray="3 3"/>
    </clipPath>
  </defs>
  <g id="Группа_масок_28" data-name="Группа масок 28" transform="translate(-0.483 0.046)" clip-path="url(#clip-path)">
    <g id="_001-plant" data-name="001-plant" transform="translate(7.975 -0.307)">
      <circle id="Эллипс_84" data-name="Эллипс 84" cx="0.824" cy="0.824" r="0.824" transform="translate(21.184 36.845)" fill="#707070"/>
      <path id="Контур_11596" data-name="Контур 11596" d="M31.118,35.4a.824.824,0,0,0,1.111-.354,13.186,13.186,0,0,0-9.08-18.951l-.024,0a13.229,13.229,0,0,0-1.8-.236V10.715a1.65,1.65,0,0,1,1.649-1.649A8.252,8.252,0,0,0,31.216.824.824.824,0,0,0,30.392,0H27.919A8.253,8.253,0,0,0,20.5,4.652,8.253,8.253,0,0,0,13.082,0H10.61a.824.824,0,0,0-.824.824,8.252,8.252,0,0,0,8.243,8.243,1.65,1.65,0,0,1,1.649,1.649v5.137a13.188,13.188,0,1,0,7.074,24.773.824.824,0,0,0-.784-1.45A11.531,11.531,0,0,1,21,40.541a.824.824,0,0,0,.433-.608,3.625,3.625,0,0,1,1.586-2.525,10.423,10.423,0,0,0,1.818-1.92,4.36,4.36,0,0,0,.744-3.3l-.31-1.757a.824.824,0,0,0-.955-.669l-1.55.273a2.39,2.39,0,0,1-2.347-.935,4.037,4.037,0,0,0-4.772-1.345l-.015-.01a2.037,2.037,0,0,1-.987-1.637A2.1,2.1,0,0,1,15,24.892a.774.774,0,0,0,.449.37.825.825,0,0,0,.823-.177.917.917,0,0,0,.2-.982c-.026-.338-.256-.76.069-1.225a.955.955,0,0,1,.62-.4l1.061-.186c1.132-.2,3.707-2.852,5.07-4.479a11.483,11.483,0,0,1,4.442,2.216,18.846,18.846,0,0,0-2.181,1.3,2.629,2.629,0,0,0-.771,1.845v1.045A2.617,2.617,0,0,0,27.4,26.833a.961.961,0,0,1,.96.959.824.824,0,0,0,.675.811l3,.552a11.382,11.382,0,0,1-1.275,5.133.825.825,0,0,0,.355,1.11ZM18.028,7.418a6.6,6.6,0,0,1-6.543-5.77h1.6a6.6,6.6,0,0,1,6.583,6.206,3.278,3.278,0,0,0-1.637-.436Zm9.891-5.771h1.6a6.605,6.605,0,0,1-6.543,5.771,3.278,3.278,0,0,0-1.637.436A6.6,6.6,0,0,1,27.919,1.648ZM19.1,30.078a4.03,4.03,0,0,0,3.958,1.576l.738-.13.167.946a2.724,2.724,0,0,1-.465,2.065,8.912,8.912,0,0,1-1.557,1.631,6.51,6.51,0,0,0-1.554,1.742,3.855,3.855,0,0,0-1.182-1.08,2.641,2.641,0,0,1-.162-.644,3.255,3.255,0,0,0-1.349-2.118l-.558-.391a3.279,3.279,0,0,0-.093-3.779l-.519-.7a2.4,2.4,0,0,1,2.576.883Zm-3.381.8a1.632,1.632,0,0,1,.027,1.91l-.432.616a.824.824,0,0,0,.2,1.148l1.234.864a1.619,1.619,0,0,1,.671,1.054c.2,1.146.461,1.474,1,1.814a2.14,2.14,0,0,1,.665.635l.84,1.334a.821.821,0,0,0,.335.3A11.535,11.535,0,0,1,9.223,26.572a2.607,2.607,0,0,0,1.044.83l4.259,1.869Zm2.2-10.2-1.034.182a2.613,2.613,0,0,0-2.09,1.985,1.161,1.161,0,0,0-.227.135A3.861,3.861,0,0,0,13,26.158a3.5,3.5,0,0,0,.09.683l-2.161-.948a.925.925,0,0,1-.533-1.121,2.707,2.707,0,0,0,.078-1.464A11.533,11.533,0,0,1,20.5,17.474q.444,0,.887.034a17.289,17.289,0,0,1-3.475,3.17ZM27.4,25.185a.967.967,0,0,1-.967-.96V23.179a.972.972,0,0,1,.226-.611L29,21.211a11.49,11.49,0,0,1,2.94,6.249l-2.02-.371a2.613,2.613,0,0,0-2.512-1.9Z" transform="translate(-7.313)" fill="#707070"/>
    </g>
  </g>
</svg>
