<svg xmlns="http://www.w3.org/2000/svg" xmlns:xlink="http://www.w3.org/1999/xlink" width="40" height="40" viewBox="0 0 40 40">
  <defs>
    <clipPath id="clip-path">
      <rect id="Прямоугольник_1968" data-name="Прямоугольник 1968" width="40" height="40" rx="3" transform="translate(-0.194 0.041)" fill="#707070" stroke="#707070" stroke-width="1" stroke-dasharray="3 3"/>
    </clipPath>
  </defs>
  <g id="Группа_масок_27" data-name="Группа масок 27" transform="translate(0.194 -0.041)" clip-path="url(#clip-path)">
    <g id="Page-1" transform="translate(0.224 0.039)">
      <g id="_020---Anti-Static-Fabric" data-name="020---Anti-Static-Fabric" transform="translate(0 0)">
        <path id="Shape" d="M39.683,31.085A1.984,1.984,0,0,0,37.7,29.1H33.731V25.133h1.323a.661.661,0,0,0,.509-1.085L32.255,20.08a.685.685,0,0,0-1.017,0l-3.307,3.968a.661.661,0,0,0,.509,1.085h1.323V29.1H16.613L31.926,12.915a.986.986,0,0,0,.19-1.069,1,1,0,0,0-.919-.6H27.733L33.589,1.5A.987.987,0,0,0,33.6.509,1,1,0,0,0,32.731,0H20.717a1.007,1.007,0,0,0-.934.639L13.955,15.851a.986.986,0,0,0,.11.913,1,1,0,0,0,.825.433H19.5L14.632,29.1H9.921V25.133h1.323a.661.661,0,0,0,.509-1.085L8.445,20.08a.685.685,0,0,0-1.017,0L4.121,24.048a.661.661,0,0,0,.509,1.085H5.952V29.1H1.984a1.984,1.984,0,0,0,0,3.968h1.41L1.6,35.753a1.984,1.984,0,0,0,.38,3.93H37.7a1.984,1.984,0,1,0,0-3.968h-1.41l1.79-2.684a1.984,1.984,0,0,0,1.6-1.946ZM20.91,17.238a.987.987,0,0,0-.095-.926,1,1,0,0,0-.831-.438h-4.62l5.573-14.55H32.153L26.3,11.066a.992.992,0,0,0-.013.992,1,1,0,0,0,.872.509h3.279L17.027,26.739Zm9.514,6.572h-.572l1.895-2.274,1.895,2.274h-.572a.661.661,0,0,0-.661.661V29.1H31.085v-4.63A.661.661,0,0,0,30.424,23.81Zm-23.81,0H6.042l1.895-2.274L9.832,23.81H9.259a.661.661,0,0,0-.661.661V29.1H7.275v-4.63A.661.661,0,0,0,6.614,23.81ZM1.323,31.085a.661.661,0,0,1,.661-.661H37.7a.661.661,0,0,1,0,1.323H1.984A.661.661,0,0,1,1.323,31.085Zm28.352,4.63,1.764-2.646h1.72l-1.764,2.646ZM10.008,33.069,8.244,35.715H6.525l1.764-2.646Zm1.587,0h1.72l-1.764,2.646H9.832Zm3.307,0h1.72l-1.764,2.646h-1.72Zm3.307,0h1.72l-1.764,2.646h-1.72Zm3.307,0h1.72l-1.764,2.646h-1.72Zm3.307,0h1.72l-1.764,2.646h-1.72Zm3.307,0h1.72l-1.764,2.646h-1.72Zm-21.429,0L4.937,35.715H3.218l1.764-2.646ZM38.36,37.7a.661.661,0,0,1-.661.661H1.984a.661.661,0,1,1,0-1.323H37.7A.661.661,0,0,1,38.36,37.7Zm-5.378-1.984,1.764-2.646h1.72L34.7,35.715Z" transform="translate(0 0)" fill="#707070"/>
      </g>
    </g>
  </g>
</svg>
