<svg xmlns="http://www.w3.org/2000/svg" xmlns:xlink="http://www.w3.org/1999/xlink" width="75" height="83" viewBox="0 0 75 83">
  <defs>
    <clipPath id="clip-path">
      <rect width="75" height="83" fill="none"/>
    </clipPath>
    <filter id="Эллипс_94" x="0" y="0" width="83" height="83" filterUnits="userSpaceOnUse">
      <feOffset dy="3" input="SourceAlpha"/>
      <feGaussianBlur stdDeviation="3" result="blur"/>
      <feFlood flood-opacity="0.161"/>
      <feComposite operator="in" in2="blur"/>
      <feComposite in="SourceGraphic"/>
    </filter>
  </defs>
  <g id="Повторяющаяся_сетка_3" data-name="Повторяющаяся сетка 3" clip-path="url(#clip-path)">
    <g transform="translate(-19 -900)">
      <g id="Компонент_2_1" data-name="Компонент 2 – 1" transform="translate(28 906)">
        <g id="Сгруппировать_6606" data-name="Сгруппировать 6606" transform="translate(-240.127 -449.127)">
          <g transform="matrix(1, 0, 0, 1, 231.13, 443.13)" filter="url(#Эллипс_94)">
            <circle id="Эллипс_94-2" data-name="Эллипс 94" cx="32.5" cy="32.5" r="32.5" transform="translate(9 6)" fill="#fff"/>
          </g>
        </g>
        <path id="Контур_11337" data-name="Контур 11337" d="M1.432,139.295l23.851.172-4.558-5.013a1.545,1.545,0,0,1,0-2.031,1.214,1.214,0,0,1,1.837,0l6.788,7.467h0a1.546,1.546,0,0,1,0,2.033h0l-6.788,7.467a1.214,1.214,0,0,1-1.837,0,1.545,1.545,0,0,1,0-2.031l4.558-5.013-23.851-.172a1.443,1.443,0,0,1,0-2.872Z" transform="translate(-108 47.729) rotate(-90)" fill="#e82d40"/>
      </g>
    </g>
  </g>
</svg>
