<svg xmlns="http://www.w3.org/2000/svg" xmlns:xlink="http://www.w3.org/1999/xlink" width="80" height="80" viewBox="0 0 80 80">
  <defs>
    <clipPath id="clip-path">
      <rect id="Прямоугольник_2077" data-name="Прямоугольник 2077" width="80" height="80" transform="translate(-0.319 0.136)" fill="#990511" stroke="#707070" stroke-width="1"/>
    </clipPath>
  </defs>
  <g id="Группа_масок_34" data-name="Группа масок 34" transform="translate(0.319 -0.136)" clip-path="url(#clip-path)">
    <g id="_001-consulting" data-name="001-consulting" transform="translate(-0.381 0.079)">
      <path id="Контур_11642" data-name="Контур 11642" d="M32.516,82.065h2.579v2.56H32.516Z" transform="translate(-6.731 -15.503)" fill="#990511"/>
      <path id="Контур_11643" data-name="Контур 11643" d="M32.516,88.258h2.579v2.56H32.516Z" transform="translate(-6.731 -16.576)" fill="#990511"/>
      <path id="Контур_11644" data-name="Контур 11644" d="M57.042,42.51a3.922,3.922,0,0,0,3.014-1.4l5.271-6.279h9.709a6.431,6.431,0,0,0,6.446-6.4v-12.8a6.431,6.431,0,0,0-6.446-6.4H68.59a7.736,7.736,0,0,0-15.471,0H46.673a6.431,6.431,0,0,0-6.446,6.4V22.7A14.178,14.178,0,0,0,31.2,19.469H29.912a14.294,14.294,0,0,0-11.044,5.247,9.127,9.127,0,0,0-7.006,8.834A15.249,15.249,0,0,0,17.089,45.03a11.535,11.535,0,0,0,6.377,9.064v2.762l-9,2.1a16.6,16.6,0,0,0-12.921,16.2v5.755H55.7V75.156a16.568,16.568,0,0,0-1.569-7.045h4.832l5.271,6.277A3.929,3.929,0,0,0,71.169,71.9V68.11h3.868a6.431,6.431,0,0,0,6.446-6.4V51.47a6.431,6.431,0,0,0-6.446-6.4H49.251a6.431,6.431,0,0,0-6.446,6.4v7.5c-.01,0-.019-.006-.028-.008l-9-2.1V54.094a11.537,11.537,0,0,0,6.377-9.064,15.242,15.242,0,0,0,5.156-10.2h7.806v3.785a3.914,3.914,0,0,0,3.923,3.9Zm3.812-38.4A5.12,5.12,0,1,1,55.7,9.229,5.144,5.144,0,0,1,60.854,4.108ZM24.23,59.308l2.781,3.683-3,3.975-2.6-7Zm4.393,5.815,3.553,4.7-3.163,8.525h-.78l-3.163-8.525ZM4.127,75.156A14.048,14.048,0,0,1,15.061,61.449l3.82-.892,6.6,17.794H14.441V70.67H11.862v7.68H4.127ZM45.383,51.47a3.859,3.859,0,0,1,3.868-3.84H75.036A3.859,3.859,0,0,1,78.9,51.47V61.71a3.859,3.859,0,0,1-3.868,3.84H68.59V71.9a1.347,1.347,0,0,1-2.377.855l-6.043-7.2H52.629A16.637,16.637,0,0,0,45.383,59.8Zm7.736,23.686v3.195H45.383V70.67H42.8v7.68H31.761l6.6-17.794,3.82.892A14.049,14.049,0,0,1,53.119,75.156ZM35.835,59.967l-2.6,7-3-3.976,2.781-3.683ZM31.2,57.444l-2.579,3.414-2.579-3.414V55.013a11.343,11.343,0,0,0,5.157,0ZM37.648,43.79a9.025,9.025,0,0,1-18.05,0V37.777A1.682,1.682,0,0,1,22.21,36.39l3.444,2.28H33.78a3.859,3.859,0,0,1,3.868,3.84Zm2.464-2.412a6.436,6.436,0,0,0-6.332-5.269H26.435l-2.8-1.85a4.264,4.264,0,0,0-6.62,3.518v3.436a12.687,12.687,0,0,1-2.579-7.664,6.557,6.557,0,0,1,5.286-6.4l.609-.122.294-.39a11.69,11.69,0,0,1,9.283-4.608H31.2a11.575,11.575,0,0,1,11.6,11.52A12.7,12.7,0,0,1,40.112,41.378Zm5.206-9.109A13.928,13.928,0,0,0,42.8,25.479v-9.85a3.859,3.859,0,0,1,3.868-3.84h6.9a7.7,7.7,0,0,0,2.519,3.478,12.812,12.812,0,0,0-8.128,11.883v2.56H73.747v-2.56A12.812,12.812,0,0,0,65.62,15.267a7.7,7.7,0,0,0,2.519-3.478h6.9a3.859,3.859,0,0,1,3.868,3.84v12.8a3.859,3.859,0,0,1-3.868,3.84H64.118l-6.044,7.2a1.346,1.346,0,0,1-2.376-.855V32.269Zm15.537-15.36a10.289,10.289,0,0,1,10.314,10.24H50.54A10.289,10.289,0,0,1,60.854,16.909Z" transform="translate(-1.548 -1.548)" fill="#990511"/>
      <path id="Контур_11645" data-name="Контур 11645" d="M57.29,60.387H85.654v2.56H57.29Z" transform="translate(-10.877 -11.746)" fill="#990511"/>
      <path id="Контур_11646" data-name="Контур 11646" d="M57.29,66.581H85.654v2.56H57.29Z" transform="translate(-10.877 -12.819)" fill="#990511"/>
      <path id="Контур_11647" data-name="Контур 11647" d="M63.484,72.774h18.05v2.56H63.484Z" transform="translate(-11.913 -13.892)" fill="#990511"/>
      <path id="Контур_11648" data-name="Контур 11648" d="M88.258,72.774h2.579v2.56H88.258Z" transform="translate(-16.059 -13.892)" fill="#990511"/>
    </g>
  </g>
</svg>
