<svg xmlns="http://www.w3.org/2000/svg" xmlns:xlink="http://www.w3.org/1999/xlink" width="80" height="80" viewBox="0 0 80 80">
  <defs>
    <clipPath id="clip-path">
      <rect id="Прямоугольник_148" data-name="Прямоугольник 148" width="80" height="80" transform="translate(1066 1028.446)" fill="#990511"/>
    </clipPath>
  </defs>
  <g id="Группа_масок_15" data-name="Группа масок 15" transform="translate(-1066 -1028.446)" clip-path="url(#clip-path)">
    <g id="_001-package" data-name="001-package" transform="translate(1066.001 1027.992)">
      <path id="Контур_11262" data-name="Контур 11262" d="M84.648,72.406,80.122,51.017a1.184,1.184,0,0,0-1.159-.939H9.927a1.184,1.184,0,0,0-1.159.939L4.247,72.406a1.184,1.184,0,0,0,1.159,1.43H8.746V95.806A1.184,1.184,0,0,0,9.931,96.99H78.964a1.184,1.184,0,0,0,1.184-1.184V73.836h3.341a1.184,1.184,0,0,0,1.159-1.43ZM10.888,52.447h32.1L38.96,71.468H6.863Zm.224,21.389H39.92a1.183,1.183,0,0,0,1.158-.939l2.184-10.318V94.621H11.112ZM77.78,94.621H45.63V62.579L47.814,72.9a1.183,1.183,0,0,0,1.158.939H77.78ZM49.931,71.468,45.907,52.447H78l4.025,19.021Z" transform="translate(-4.221 -16.535)" fill="#990511"/>
      <path id="Контур_11263" data-name="Контур 11263" d="M28.78,102.532H19.762a1.184,1.184,0,0,0,0,2.369H28.78a1.184,1.184,0,0,0,0-2.369Z" transform="translate(-8.077 -30.624)" fill="#990511"/>
      <path id="Контур_11264" data-name="Контур 11264" d="M41.186,102.532H38.513a1.184,1.184,0,0,0,0,2.369h2.673a1.184,1.184,0,0,0,0-2.369Z" transform="translate(-13.113 -30.624)" fill="#990511"/>
      <path id="Контур_11265" data-name="Контур 11265" d="M96.42,58.436H87.4a1.184,1.184,0,1,0,0,2.369H96.42a1.184,1.184,0,1,0,0-2.369Z" transform="translate(-26.245 -18.78)" fill="#990511"/>
      <path id="Контур_11266" data-name="Контур 11266" d="M80,58.436H77.327a1.184,1.184,0,0,0,0,2.369H80a1.184,1.184,0,1,0,0-2.369Z" transform="translate(-23.539 -18.78)" fill="#990511"/>
      <path id="Контур_11267" data-name="Контур 11267" d="M53.794,33.752A14.767,14.767,0,1,0,39.027,18.985,14.767,14.767,0,0,0,53.794,33.752Zm0-27.166a12.4,12.4,0,1,1-12.4,12.4,12.4,12.4,0,0,1,12.4-12.4Z" transform="translate(-13.57 -4.217)" fill="#990511"/>
      <path id="Контур_11268" data-name="Контур 11268" d="M53.74,27.174a1.184,1.184,0,0,0,1.675,0l7.88-7.885a1.184,1.184,0,0,0-1.674-1.674L54.574,24.66l-2.9-2.894A1.184,1.184,0,1,0,50,23.44Z" transform="translate(-16.425 -7.723)" fill="#990511"/>
    </g>
  </g>
</svg>
