<svg xmlns="http://www.w3.org/2000/svg" xmlns:xlink="http://www.w3.org/1999/xlink" width="80" height="80" viewBox="0 0 80 80">
  <defs>
    <clipPath id="clip-path">
      <rect id="Прямоугольник_147" data-name="Прямоугольник 147" width="80" height="80" transform="translate(1445.385 1028.385)" fill="#990511"/>
    </clipPath>
  </defs>
  <g id="Группа_масок_16" data-name="Группа масок 16" transform="translate(-1445.385 -1028.385)" clip-path="url(#clip-path)">
    <g id="_001-parquet" data-name="001-parquet" transform="translate(1450.385 1028)">
      <g id="Сгруппировать_5843" data-name="Сгруппировать 5843" transform="translate(0 0)">
        <g id="Сгруппировать_5842" data-name="Сгруппировать 5842">
          <path id="Контур_11269" data-name="Контур 11269" d="M39.631,76.785a1.346,1.346,0,1,0,1.346,1.346A1.272,1.272,0,0,0,39.631,76.785Z" transform="translate(-15.401 -20.247)" fill="#990511"/>
          <path id="Контур_11270" data-name="Контур 11270" d="M32.3,76.785a1.346,1.346,0,1,0,1.346,1.346A1.272,1.272,0,0,0,32.3,76.785Z" transform="translate(-13.452 -20.247)" fill="#990511"/>
          <path id="Контур_11271" data-name="Контур 11271" d="M32.3,68.478a1.346,1.346,0,1,0,0-2.692,1.448,1.448,0,0,0-1.346,1.346A1.272,1.272,0,0,0,32.3,68.478Z" transform="translate(-13.452 -17.324)" fill="#990511"/>
          <path id="Контур_11272" data-name="Контур 11272" d="M39.631,68.478a1.346,1.346,0,1,0,0-2.692,1.349,1.349,0,0,0-1.346,1.346A1.272,1.272,0,0,0,39.631,68.478Z" transform="translate(-15.401 -17.324)" fill="#990511"/>
          <path id="Контур_11273" data-name="Контур 11273" d="M94.631,59.311a1.346,1.346,0,1,0-1.346-1.346A1.272,1.272,0,0,0,94.631,59.311Z" transform="translate(-30.016 -14.888)" fill="#990511"/>
          <path id="Контур_11274" data-name="Контур 11274" d="M87.3,59.311a1.346,1.346,0,1,0-1.346-1.346A1.272,1.272,0,0,0,87.3,59.311Z" transform="translate(-28.067 -14.888)" fill="#990511"/>
          <path id="Контур_11275" data-name="Контур 11275" d="M87.3,48.311a1.346,1.346,0,0,0,0-2.692,1.448,1.448,0,0,0-1.346,1.346A1.272,1.272,0,0,0,87.3,48.311Z" transform="translate(-28.067 -11.965)" fill="#990511"/>
          <path id="Контур_11276" data-name="Контур 11276" d="M94.631,48.311a1.346,1.346,0,0,0,0-2.692,1.448,1.448,0,0,0-1.346,1.346A1.272,1.272,0,0,0,94.631,48.311Z" transform="translate(-30.016 -11.965)" fill="#990511"/>
          <path id="Контур_11277" data-name="Контур 11277" d="M75.773-.215H8.465A1.272,1.272,0,0,0,7.119,1.131V79.209a1.272,1.272,0,0,0,1.346,1.346H75.773a1.272,1.272,0,0,0,1.346-1.346V1.131A1.272,1.272,0,0,0,75.773-.215ZM74.427,37.478H63.657v-35H74.427ZM47.5,24.016H36.734V2.478H47.5ZM34.042,25.362V52.285H23.272V2.478H34.042ZM9.811,2.478H20.58V77.863H9.811Zm13.462,52.5H34.042V77.863H23.272Zm13.462-1.346V26.708H47.5V77.863H36.734ZM50.2,25.362V2.478H60.965V77.863H50.2Zm24.231,52.5H63.657V40.17H74.427Z" transform="translate(-7.119 0.215)" fill="#990511"/>
          <path id="Контур_11278" data-name="Контур 11278" d="M57.965,38.285a1.346,1.346,0,1,0,1.346,1.346A1.272,1.272,0,0,0,57.965,38.285Z" transform="translate(-20.272 -10.016)" fill="#990511"/>
          <path id="Контур_11279" data-name="Контур 11279" d="M50.631,38.285a1.346,1.346,0,1,0,1.346,1.346A1.272,1.272,0,0,0,50.631,38.285Z" transform="translate(-18.324 -10.016)" fill="#990511"/>
          <path id="Контур_11280" data-name="Контур 11280" d="M50.631,29.978a1.346,1.346,0,0,0,0-2.692,1.349,1.349,0,0,0-1.346,1.346A1.272,1.272,0,0,0,50.631,29.978Z" transform="translate(-18.324 -7.093)" fill="#990511"/>
          <path id="Контур_11281" data-name="Контур 11281" d="M57.965,29.978a1.346,1.346,0,0,0,0-2.692,1.349,1.349,0,0,0-1.346,1.346A1.272,1.272,0,0,0,57.965,29.978Z" transform="translate(-20.272 -7.093)" fill="#990511"/>
          <path id="Контур_11282" data-name="Контур 11282" d="M21.3,5.285a1.346,1.346,0,0,0,0,2.692,1.272,1.272,0,0,0,1.346-1.346A1.272,1.272,0,0,0,21.3,5.285Z" transform="translate(-10.529 -1.247)" fill="#990511"/>
          <path id="Контур_11283" data-name="Контур 11283" d="M13.965,5.285a1.346,1.346,0,1,0,0,2.692,1.272,1.272,0,0,0,1.346-1.346A1.272,1.272,0,0,0,13.965,5.285Z" transform="translate(-8.58 -1.247)" fill="#990511"/>
          <path id="Контур_11284" data-name="Контур 11284" d="M21.3,100.619a1.346,1.346,0,1,0,1.346,1.346A1.272,1.272,0,0,0,21.3,100.619Z" transform="translate(-10.529 -26.58)" fill="#990511"/>
          <path id="Контур_11285" data-name="Контур 11285" d="M13.965,100.619a1.346,1.346,0,1,0,0,2.692,1.346,1.346,0,1,0,0-2.692Z" transform="translate(-8.58 -26.58)" fill="#990511"/>
          <path id="Контур_11286" data-name="Контур 11286" d="M76.3,5.285a1.272,1.272,0,0,0-1.346,1.346,1.346,1.346,0,1,0,2.692,0A1.272,1.272,0,0,0,76.3,5.285Z" transform="translate(-25.144 -1.247)" fill="#990511"/>
          <path id="Контур_11287" data-name="Контур 11287" d="M68.965,5.285a1.272,1.272,0,0,0-1.346,1.346,1.346,1.346,0,1,0,2.692,0A1.272,1.272,0,0,0,68.965,5.285Z" transform="translate(-23.195 -1.247)" fill="#990511"/>
          <path id="Контур_11288" data-name="Контур 11288" d="M76.3,100.619a1.346,1.346,0,1,0,1.346,1.346A1.272,1.272,0,0,0,76.3,100.619Z" transform="translate(-25.144 -26.58)" fill="#990511"/>
          <path id="Контур_11289" data-name="Контур 11289" d="M68.965,100.619a1.346,1.346,0,1,0,1.346,1.346A1.272,1.272,0,0,0,68.965,100.619Z" transform="translate(-23.195 -26.58)" fill="#990511"/>
        </g>
      </g>
    </g>
  </g>
</svg>
