<svg width="30" height="30" viewBox="0 0 30 30" fill="none" xmlns="http://www.w3.org/2000/svg">
<g clip-path="url(#clip0)">
<path d="M27.3159 24.0481L26.1049 23.6277C26.7828 23.0907 27.2189 22.2613 27.2189 21.3313V20.4437C27.2189 18.8287 25.9048 17.5147 24.2899 17.5147C22.6749 17.5147 21.3609 18.8287 21.3609 20.4437V21.3313C21.3609 22.2613 21.7971 23.0907 22.4751 23.6277L21.2638 24.0481C20.487 24.318 19.834 24.8128 19.3664 25.4439H16.0947V24.1527C16.0947 22.4533 15.016 20.937 13.4106 20.3796L12.1994 19.9592C12.8773 19.4222 13.3136 18.5927 13.3136 17.6628V16.7752C13.3136 15.16 11.9996 13.8462 10.3846 13.8462C8.76961 13.8462 7.4556 15.1602 7.4556 16.7752V17.6628C7.4556 18.5927 7.89185 19.4222 8.56956 19.9592L7.35855 20.3796C5.75317 20.937 4.67445 22.4533 4.67445 24.1527V25.4439H0.443802C0.198669 25.4439 0 25.6425 0 25.8877V29.5562C0 29.8013 0.198669 30 0.443802 30H18.9054C18.9253 30 18.945 29.9982 18.9645 29.9956C18.9839 29.9982 19.0036 30 19.0237 30H29.5562C29.8013 30 30 29.8013 30 29.5562V27.8213C30 26.122 28.9215 24.6057 27.3159 24.0481ZM22.2485 20.4437C22.2485 19.3181 23.1642 18.4023 24.2899 18.4023C25.4155 18.4023 26.3313 19.3181 26.3313 20.4437V21.3313C26.3313 22.457 25.4155 23.3727 24.2899 23.3727C23.1642 23.3727 22.2485 22.457 22.2485 21.3313V20.4437ZM8.3432 16.7752C8.3432 15.6496 9.25896 14.7338 10.3846 14.7338C11.5102 14.7338 12.426 15.6496 12.426 16.7752V17.6628C12.426 18.7884 11.5102 19.7042 10.3846 19.7042C9.25896 19.7042 8.3432 18.7884 8.3432 17.6628V16.7752ZM11.3157 20.5918L11.7469 20.7415L10.3846 23.1051L9.02229 20.7415L9.45351 20.5918H11.3157ZM5.56206 24.1527C5.56206 22.8309 6.40114 21.6515 7.64969 21.218L8.16879 21.0379L10.0001 24.2157C10.0793 24.3532 10.226 24.4379 10.3846 24.4379C10.5432 24.4379 10.6899 24.3532 10.7691 24.2157L12.6004 21.0379L13.1195 21.218C14.3681 21.6515 15.2069 22.8309 15.2069 24.1527V25.4439H5.56206V24.1527ZM0.887604 26.3315H18.869C18.6818 26.7959 18.5799 27.2999 18.5799 27.8213V29.1124H0.887604V26.3315ZM29.1124 29.1124H19.4675V27.8213C19.4675 26.4995 20.3064 25.3203 21.5549 24.8865L23.3588 24.2603H25.2209L27.0248 24.8865C28.2735 25.3203 29.1124 26.4995 29.1124 27.8213V29.1124Z" fill="#BA131A"/>
<path d="M27.1893 3.19519H22.6813C22.4361 3.19519 22.2375 3.39409 22.2375 3.63899C22.2375 3.88412 22.4361 4.08279 22.6813 4.08279H27.1893C28.2497 4.08279 29.1124 4.94545 29.1124 6.00609V12.1598C29.1124 13.2202 28.2497 14.0829 27.1893 14.0829H21.0947C20.8495 14.0829 20.6509 14.2815 20.6509 14.5267V16.414L18.4499 14.2129C18.3666 14.1296 18.2538 14.0829 18.1361 14.0829H14.5267C13.4663 14.0829 12.6034 13.2202 12.6034 12.1598V6.00586C12.6034 4.94545 13.466 4.08279 14.5267 4.08279H20.6065C20.8516 4.08279 21.0503 3.88412 21.0503 3.63899C21.0503 3.39386 20.8516 3.19519 20.6065 3.19519H18.284V2.81067C18.284 1.26091 17.0231 0 15.4733 0H2.81067C1.26091 0 0 1.26091 0 2.81067V3.79189C0 4.03702 0.198669 4.23569 0.443802 4.23569C0.688934 4.23569 0.887604 4.03702 0.887604 3.79189V2.81067C0.887604 1.75026 1.75026 0.887604 2.81067 0.887604H15.4733C16.5337 0.887604 17.3964 1.75026 17.3964 2.81067V3.19519H14.5267C12.9769 3.19519 11.716 4.4561 11.716 6.00586V10.8875H7.07108C6.82594 10.8875 6.62727 11.0861 6.62727 11.3313V13.2186L4.42635 11.0175C4.34303 10.9341 4.23019 10.8875 4.11255 10.8875H2.81067C1.75026 10.8875 0.887604 10.0248 0.887604 8.96439V5.85548C0.887604 5.61035 0.688934 5.41168 0.443802 5.41168C0.198669 5.41168 0 5.61035 0 5.85548V8.96439C0 10.5144 1.26091 11.7751 2.81067 11.7751H3.92853L6.75728 14.6038C6.84219 14.6887 6.95572 14.7338 7.07108 14.7336C7.1283 14.7336 7.18597 14.7226 7.24091 14.6999C7.40662 14.6313 7.51488 14.4695 7.51488 14.29V11.7751H11.716V12.1598C11.716 13.7096 12.9769 14.9702 14.5267 14.9702H17.9523L20.7809 17.799C20.8658 17.8839 20.9793 17.929 21.0947 17.929C21.1519 17.929 21.2096 17.918 21.2645 17.8951C21.4302 17.8265 21.5385 17.6646 21.5385 17.4852V14.9702H27.1893C28.7391 14.9702 30 13.7096 30 12.1598V6.00586C30 4.4561 28.7391 3.19519 27.1893 3.19519Z" fill="#BA131A"/>
</g>
<defs>
<clipPath id="clip0">
<rect width="30" height="30" fill="white"/>
</clipPath>
</defs>
</svg>
