<svg width="25" height="25" viewBox="0 0 25 25" fill="none" xmlns="http://www.w3.org/2000/svg">
<g opacity="0.5" clip-path="url(#clip0)">
<path d="M11.7602 18.5005C11.5722 18.3625 11.3076 18.4028 11.1694 18.5909L11.1172 18.662C10.9792 18.8499 11.0194 19.1142 11.2072 19.2525C11.2826 19.3081 11.3705 19.335 11.4575 19.335C11.5871 19.335 11.715 19.2756 11.7978 19.1634L11.8508 19.0914C11.9889 18.9032 11.9484 18.6387 11.7602 18.5005Z" fill="#BA131A"/>
<path d="M11.8969 22.5214L10.8098 20.5447L11.8248 19.1624C11.963 18.9743 11.9224 18.7097 11.7342 18.5715C11.5461 18.4333 11.2816 18.4739 11.1434 18.6621L9.96871 20.2619C9.8713 20.3946 9.85978 20.5716 9.93902 20.7158L11.1562 22.9288V22.9287C11.2332 23.0686 11.3778 23.1477 11.527 23.1477C11.5959 23.1477 11.6657 23.1309 11.7303 23.0954C11.9348 22.9829 12.0094 22.7259 11.8969 22.5214Z" fill="#BA131A"/>
<path d="M15.0338 20.2622L13.8639 18.6688C13.7669 18.5368 13.6025 18.4725 13.4416 18.5044C13.2809 18.536 13.1529 18.6578 13.1131 18.8167C13.0826 18.9388 13.1081 19.068 13.1825 19.1694L14.1925 20.545L13.1128 22.5082C13.0786 22.5706 13.0605 22.6409 13.0605 22.7121C13.0605 22.905 13.1912 23.0735 13.3781 23.1215C13.4131 23.1305 13.4484 23.1349 13.4833 23.1349C13.6346 23.1349 13.778 23.0532 13.8536 22.9159L15.0635 20.7162C15.1428 20.5719 15.1312 20.3948 15.0338 20.2622Z" fill="#BA131A"/>
<path d="M15.7027 13.62C15.5636 13.547 15.3956 13.557 15.2662 13.6462C15.0148 13.8194 14.7815 14.0028 14.5728 14.1915C13.4353 15.2198 12.3546 15.0806 12.3123 15.0746C12.2868 15.0706 12.2609 15.0687 12.2352 15.0695C11.7857 15.0811 10.9751 14.6703 10.1176 13.9968C9.98648 13.8939 9.852 13.7957 9.71773 13.7051C9.58823 13.6176 9.4209 13.6088 9.28291 13.6821C9.14487 13.7555 9.05859 13.899 9.05859 14.0554V15.5054C9.05859 15.6336 9.11694 15.7548 9.21694 15.8351C9.22876 15.8446 9.24106 15.8534 9.25376 15.8615L12.2509 17.8642C12.2514 17.8645 12.2518 17.8649 12.2523 17.8653L12.2602 17.8705C12.3308 17.9172 12.4121 17.9408 12.4937 17.9408C12.5623 17.9408 12.631 17.9241 12.6937 17.8906C12.7069 17.8835 12.7196 17.8758 12.7319 17.8675C12.7333 17.8665 12.7347 17.8656 12.7361 17.8646C12.7378 17.8635 12.7395 17.8624 12.7411 17.8613L15.7312 15.8633C15.7432 15.8557 15.7549 15.8475 15.7662 15.8387C15.8688 15.7586 15.9287 15.6357 15.9287 15.5055V13.9943C15.9287 13.8371 15.8417 13.6931 15.7027 13.62ZM15.0833 15.2793L12.4936 17.0098L9.90396 15.2793V14.8948C10.5345 15.3531 11.4621 15.9152 12.2182 15.9151C12.2198 15.9151 12.2215 15.9151 12.2232 15.9151C12.477 15.9432 13.7716 16.0195 15.0834 14.8687V15.2793H15.0833Z" fill="#BA131A"/>
<path d="M12.9186 17.4483C12.8907 17.2807 12.7651 17.1461 12.5998 17.1066C12.4343 17.0674 12.2616 17.1307 12.161 17.2677L11.1894 18.591C11.0513 18.7792 11.0918 19.0437 11.28 19.1818C11.3554 19.2372 11.443 19.2639 11.5298 19.2639C11.6598 19.2639 11.788 19.2041 11.8709 19.0912L12.8374 17.7749C12.8924 17.703 12.9244 17.6136 12.9244 17.518C12.9244 17.4947 12.9224 17.4713 12.9186 17.4483Z" fill="#BA131A"/>
<path d="M18.9437 3.82185C18.9353 3.75564 18.7373 2.32663 17.3922 1.76291C17.4313 1.51194 17.4272 1.18938 17.2678 0.875557C17.0537 0.453779 16.6311 0.178925 16.0117 0.0585144C15.9851 0.0533386 15.9582 0.0507507 15.9311 0.0507507H10.2579C7.95425 0.0507507 6.08008 1.92488 6.08008 4.22859V6.45472C6.08008 7.0347 6.27778 7.60028 6.63667 8.04715C6.8146 8.26874 7.03374 8.6557 7.0668 9.24076C7.07969 9.46918 7.2709 9.64569 7.50074 9.63934C7.72945 9.6329 7.91148 9.44559 7.91148 9.21683V6.31448C8.19849 5.12752 9.17803 4.89651 9.34644 4.86531H11.1815C11.3974 4.86531 11.6096 4.83235 11.8125 4.76731C12.1614 4.6554 12.715 4.44944 13.118 4.29636C13.3877 4.19387 13.6862 4.19011 13.9585 4.28582L15.9231 4.97547C16.9052 5.33777 17.0805 6.19998 17.1022 6.33543V9.81869C17.1022 10.0399 17.2728 10.2235 17.4934 10.2399C17.5041 10.2407 17.5147 10.2412 17.5252 10.2412C17.7325 10.2411 17.9115 10.0892 17.9429 9.88104C17.9446 9.87016 18.1134 8.77997 18.6576 7.90711C18.8469 7.60326 18.9471 7.25682 18.9471 6.90526V3.87522C18.9471 3.8574 18.946 3.83958 18.9437 3.82185ZM18.1017 6.90506C18.1017 7.09388 18.0484 7.28119 17.9475 7.44774V6.30653C17.9475 6.29124 17.9467 6.27606 17.945 6.26087C17.9384 6.19949 17.7637 4.75096 16.2117 4.18084C16.2098 4.18015 16.2079 4.17947 16.206 4.17879L14.2385 3.48806C14.0167 3.41018 13.7846 3.37131 13.5527 3.37131C13.3032 3.37131 13.054 3.41628 12.8178 3.50613C12.2535 3.72048 11.8166 3.87825 11.5543 3.96233C11.435 4.00056 11.3096 4.02 11.1815 4.02H9.31226C9.29415 4.02 9.27598 4.02117 9.25797 4.02346C9.18643 4.03274 7.50054 4.27249 7.07627 6.1741C7.06953 6.20433 7.06612 6.23519 7.06612 6.26614V7.13607C6.97407 6.92337 6.92534 6.69105 6.92534 6.45477V4.22869C6.92534 2.39118 8.42032 0.896211 10.2578 0.896211H15.8884C16.1215 0.94587 16.4048 1.04777 16.5123 1.2551C16.6439 1.50886 16.494 1.85827 16.4938 1.85857C16.4398 1.97356 16.4404 2.10671 16.4953 2.22121C16.5503 2.33572 16.6539 2.41941 16.7775 2.44914C17.8535 2.70818 18.073 3.74026 18.1016 3.9072V6.90506H18.1017Z" fill="#BA131A"/>
<path d="M17.9591 6.26096C17.9524 6.19958 17.7778 4.75104 16.2258 4.18092C16.2239 4.18024 16.222 4.17956 16.22 4.17887L14.2525 3.48815C13.7921 3.32653 13.2876 3.33297 12.8318 3.50612C12.2675 3.72047 11.8305 3.87824 11.5683 3.96237C11.449 4.0006 11.3235 4.01999 11.1954 4.01999H9.32623C9.30811 4.01999 9.28995 4.02116 9.27193 4.02345C9.2004 4.03273 7.5145 4.27248 7.09023 6.17409C7.0835 6.20432 7.08008 6.23518 7.08008 6.26613V9.89973C7.08008 9.90286 7.08013 9.90598 7.08018 9.90911C7.08296 10.0353 7.17227 13.0161 9.23184 14.3794L9.24249 14.3869C9.25132 14.3932 9.26016 14.3994 9.26939 14.4056C9.38682 14.4849 9.50474 14.571 9.62008 14.6615C10.2201 15.1327 11.3508 15.9149 12.2428 15.9149C12.2444 15.9149 12.246 15.9149 12.2477 15.9149C12.2962 15.9203 12.3826 15.9274 12.4999 15.9274C13.0054 15.9274 14.084 15.7949 15.1642 14.8183C15.3455 14.6545 15.5494 14.4943 15.7704 14.342L15.802 14.3199C15.8123 14.3126 15.8226 14.3053 15.8332 14.2982C16.5202 13.8368 17.7101 12.6461 17.9599 9.85637C17.961 9.84387 17.9616 9.83123 17.9616 9.81863V6.30661C17.9616 6.29138 17.9607 6.27619 17.9591 6.26096ZM17.1161 9.79954C16.8858 12.3172 15.8131 13.2932 15.3618 13.5963C15.3458 13.6071 15.33 13.6182 15.3142 13.6294L15.2907 13.6459C15.0393 13.8191 14.806 14.0026 14.5973 14.1912C13.4641 15.2157 12.3869 15.0813 12.334 15.0739C12.3095 15.0703 12.2846 15.0687 12.2597 15.0694C11.8102 15.0809 10.9996 14.6701 10.1421 13.9967C10.011 13.8936 9.87652 13.7955 9.74244 13.705L9.73204 13.6977C9.72188 13.6905 9.71178 13.6833 9.69986 13.6754C8.03784 12.5753 7.9291 10.0011 7.92544 9.89363V6.31452C8.21348 5.12321 9.19908 4.89484 9.35972 4.86535H11.1955C11.4113 4.86535 11.6236 4.83239 11.8265 4.76735C12.1754 4.65544 12.729 4.44948 13.132 4.2964C13.4016 4.19391 13.7002 4.19015 13.9725 4.28586L15.937 4.97551C16.9192 5.33781 17.0945 6.20002 17.1162 6.33547V9.79954H17.1161Z" fill="#BA131A"/>
<path d="M12.8973 17.3292C12.8314 17.1974 12.7017 17.1095 12.555 17.097C12.4085 17.0849 12.2656 17.1493 12.1785 17.268L11.166 18.6471C11.0279 18.8351 11.0683 19.0995 11.2562 19.2377C11.3316 19.2932 11.4194 19.32 11.5063 19.32C11.636 19.32 11.764 19.2605 11.8469 19.148L12.8594 17.7741C12.913 17.7014 12.9419 17.6086 12.9419 17.5183C12.942 17.4528 12.9266 17.3879 12.8973 17.3292Z" fill="#BA131A"/>
<path d="M12.9087 24.1345C12.7499 23.9685 12.4876 23.9596 12.3181 24.1148L12.2214 24.2031C12.0767 24.3354 12.042 24.5499 12.1376 24.7211L12.1406 24.7264C12.2052 24.8421 12.3203 24.9208 12.4515 24.939C12.4709 24.9417 12.4904 24.943 12.5097 24.943C12.621 24.943 12.7287 24.899 12.8086 24.8192L12.9022 24.7255C13.0646 24.563 13.0676 24.3005 12.9087 24.1345Z" fill="#BA131A"/>
<path d="M12.7909 24.2035L12.6943 24.1151C12.5247 23.96 12.2623 23.9689 12.1036 24.1349C11.9447 24.301 11.9477 24.5636 12.1102 24.726L12.2039 24.8197C12.2837 24.8995 12.3914 24.9434 12.5027 24.9434C12.5226 24.9434 12.5426 24.9421 12.5625 24.9392C12.6942 24.9204 12.8093 24.8407 12.8733 24.7241L12.8763 24.7187C12.97 24.5478 12.9347 24.335 12.7909 24.2035Z" fill="#BA131A"/>
<path d="M12.8004 24.2096L12.7999 24.2091C12.7346 24.1481 12.6502 24.1079 12.5572 24.0977C12.4326 24.0841 12.3113 24.1263 12.223 24.2085L12.2218 24.2096C12.1363 24.2876 12.0866 24.3972 12.0841 24.5128C12.0816 24.6285 12.1266 24.7401 12.2086 24.8216L12.213 24.8261C12.2955 24.9081 12.4033 24.949 12.5111 24.949C12.6193 24.949 12.7274 24.9077 12.8099 24.8253L12.8143 24.8209C12.896 24.7392 12.9407 24.6277 12.938 24.5123C12.9355 24.3968 12.8857 24.2875 12.8004 24.2096Z" fill="#BA131A"/>
<path d="M12.6375 17.109C12.4625 17.053 12.2704 17.118 12.1638 17.2679C12.0445 17.4357 12.0642 17.6645 12.2095 17.8104C12.2912 17.8926 12.3997 17.9347 12.509 17.9347C12.594 17.9347 12.6793 17.9093 12.7529 17.8574C12.8654 17.7783 12.9324 17.6494 12.9324 17.5118V17.5107C12.9324 17.3268 12.8128 17.1649 12.6375 17.109Z" fill="#BA131A"/>
<path d="M12.8502 17.2642L12.8465 17.2594C12.7381 17.1126 12.5477 17.0521 12.3744 17.1092C12.2011 17.1663 12.084 17.3282 12.084 17.5106V17.5179C12.084 17.6735 12.1713 17.8153 12.3085 17.889C12.3706 17.9223 12.4391 17.9388 12.5076 17.9388C12.5901 17.9388 12.6726 17.9148 12.7435 17.8679C12.8401 17.8039 12.9063 17.703 12.9265 17.5889C12.9466 17.4748 12.9191 17.3574 12.8502 17.2642Z" fill="#BA131A"/>
<path d="M17.5369 15.9366C17.4931 15.8208 17.4007 15.7301 17.2842 15.6884L15.6636 15.1074C15.6504 15.1027 15.6368 15.0985 15.6232 15.0952C15.5076 15.0662 15.385 15.0875 15.2859 15.1538L12.2831 17.1603C12.2823 17.1609 12.2814 17.1614 12.2806 17.162L12.5164 17.5126L12.2753 17.1656C12.1872 17.2238 12.1241 17.3131 12.0985 17.4156C12.0845 17.4718 12.0822 17.5306 12.0917 17.5877C12.1026 17.6531 12.1287 17.715 12.1679 17.7685L14.3664 20.7626C14.4463 20.8715 14.573 20.9352 14.707 20.9352C14.7162 20.9352 14.7254 20.9349 14.7347 20.9342C14.8787 20.9248 15.0079 20.8426 15.0774 20.7161L17.5119 16.2899C17.5716 16.1814 17.5807 16.0522 17.5369 15.9366ZM14.6559 19.7285L13.1107 17.624L15.5786 15.9749L16.5323 16.3169L14.6559 19.7285Z" fill="#BA131A"/>
<path d="M12.9174 17.4451C12.8975 17.3316 12.8322 17.2312 12.7365 17.167L9.72366 15.1538C9.62776 15.0896 9.50955 15.0676 9.3969 15.0926C9.37962 15.0964 9.36263 15.1014 9.34598 15.1074L7.72532 15.6883C7.60882 15.7301 7.51648 15.8208 7.47269 15.9365C7.42889 16.0523 7.43797 16.1814 7.49764 16.2899L9.93206 20.7161C10.0016 20.8425 10.1308 20.9247 10.2748 20.9342C10.284 20.9348 10.2932 20.9351 10.3024 20.9351C10.4364 20.9351 10.5631 20.8714 10.6431 20.7625L11.8179 19.1626C11.8188 19.1614 11.8197 19.1601 11.8206 19.1587L12.8417 17.7681C12.9098 17.6752 12.9372 17.5586 12.9174 17.4451ZM11.1365 18.6621C11.1355 18.6635 11.1345 18.6648 11.1335 18.6662L10.3535 19.7285L8.47708 16.3168L9.43089 15.9749L11.8987 17.624L11.1365 18.6621Z" fill="#BA131A"/>
<path d="M24.9817 23.1522L24.4365 19.8596C24.2646 18.8219 23.5435 17.955 22.5544 17.5973L17.2793 15.6888C17.1167 15.63 16.9349 15.6761 16.8199 15.8051C16.705 15.9341 16.6801 16.1202 16.7573 16.2749L17.8587 18.4836L16.7779 18.5002C16.6312 18.5025 16.4961 18.5807 16.4212 18.7068C16.3462 18.833 16.342 18.989 16.41 19.119L16.8533 19.9653L12.317 24.1151C12.3124 24.1193 12.3078 24.1236 12.3034 24.1281L12.2097 24.2217C12.0771 24.3545 12.0477 24.5588 12.1378 24.7234L12.1411 24.7294C12.2153 24.8649 12.3575 24.9492 12.512 24.9492H23.4578C23.9126 24.9492 24.342 24.7504 24.636 24.4036C24.93 24.0568 25.056 23.6006 24.9817 23.1522ZM23.9913 23.8568C23.8581 24.0139 23.6637 24.1039 23.4579 24.1039H13.5816L17.6642 20.3693C17.8058 20.2399 17.8424 20.0314 17.7533 19.8614L17.4776 19.3349L18.5433 19.3185C18.6885 19.3163 18.8224 19.2396 18.8979 19.1155C18.9734 18.9913 18.9799 18.8372 18.9151 18.7072L17.9855 16.8431L22.2671 18.3921C22.969 18.646 23.4807 19.2612 23.6027 19.9976L24.1479 23.2902C24.1479 23.2903 24.1479 23.2903 24.1479 23.2903C24.1815 23.4934 24.1245 23.6998 23.9913 23.8568Z" fill="#BA131A"/>
<path d="M12.8016 24.2135L12.7966 24.209C12.6294 24.0576 12.3724 24.0643 12.2133 24.2244L12.2089 24.2288C12.0885 24.3499 12.0528 24.5315 12.1183 24.6892C12.1839 24.8468 12.3379 24.9495 12.5086 24.9495H12.5179C12.6926 24.9495 12.8494 24.8419 12.9122 24.6789C12.9752 24.5157 12.9312 24.3308 12.8016 24.2135Z" fill="#BA131A"/>
<path d="M12.7924 24.201C12.6964 24.1146 12.5663 24.0768 12.4389 24.0985C12.3116 24.12 12.2011 24.1987 12.139 24.3119L12.1361 24.3172C12.047 24.4796 12.0741 24.6812 12.2029 24.8144L12.2044 24.816C12.2872 24.9016 12.3976 24.9447 12.5082 24.9447C12.6101 24.9447 12.7121 24.9081 12.793 24.8342L12.7975 24.8302C12.8358 24.7953 12.8675 24.7534 12.8907 24.7069C12.9758 24.5368 12.9337 24.3281 12.7924 24.201Z" fill="#BA131A"/>
<path d="M12.798 24.2269L12.7962 24.2251C12.7951 24.224 12.7939 24.2228 12.7929 24.2217L12.6991 24.1281C12.6947 24.1236 12.6902 24.1193 12.6856 24.1151L8.14929 19.9654L8.5926 19.119C8.66072 18.989 8.65647 18.833 8.58152 18.7069C8.50652 18.5807 8.37146 18.5026 8.22473 18.5003L7.14392 18.4836L8.24529 16.2749C8.32244 16.1202 8.29753 15.9341 8.18264 15.8051C8.06775 15.676 7.88572 15.6299 7.72327 15.6888L2.44821 17.5973C1.45914 17.955 0.737951 18.8219 0.566124 19.8596L0.0208594 23.1522C-0.0534083 23.6009 0.0726662 24.0569 0.36671 24.4036C0.660802 24.7504 1.09025 24.9493 1.54484 24.9493H12.5C12.6712 24.9493 12.8255 24.846 12.8907 24.6878C12.956 24.5296 12.9194 24.3475 12.798 24.2269ZM1.54489 24.1039C1.33903 24.1039 1.14459 24.0139 1.01149 23.8569C0.878381 23.6999 0.821349 23.4934 0.854943 23.2903L1.40021 19.9976C1.52213 19.2612 2.0339 18.646 2.73581 18.3921L7.01731 16.8431L6.08781 18.7071C6.02297 18.8371 6.02942 18.9912 6.10495 19.1154C6.18039 19.2395 6.31433 19.3162 6.45959 19.3184L7.52532 19.3348L7.24954 19.8614C7.16052 20.0313 7.19714 20.2399 7.33865 20.3693L11.4212 24.1039H1.54489Z" fill="#BA131A"/>
<path d="M13.9437 19.0214C13.9743 18.8993 13.9488 18.7701 13.8744 18.6687L12.8457 17.2678C12.7376 17.1206 12.547 17.062 12.3735 17.1189C12.2798 17.1497 12.2026 17.2117 12.1512 17.2909L11.1414 18.6611C11.1269 18.6806 11.1141 18.7016 11.1032 18.7234C11.034 18.8618 11.046 19.027 11.1344 19.154L11.5644 19.7715L11.1063 22.659C11.0916 22.7518 11.1082 22.8467 11.1534 22.929L12.1348 24.7132C12.209 24.8483 12.351 24.9322 12.5051 24.9322C12.6593 24.9322 12.8012 24.8483 12.8755 24.7132L13.8642 22.9157C13.8984 22.8533 13.9164 22.7833 13.9164 22.7121V22.7118C13.9164 22.6897 13.9146 22.6675 13.9112 22.6456L13.4552 19.7715L13.8806 19.1608C13.9098 19.1185 13.9313 19.0712 13.9437 19.0214ZM12.5051 23.6325L11.9639 22.6484L12.426 19.7359C12.4431 19.628 12.4178 19.5177 12.3554 19.4281L12.0012 18.9194L12.5063 18.234L13.0142 18.9256L12.6642 19.4281C12.6018 19.5177 12.5765 19.628 12.5936 19.7359L13.0536 22.6352L12.5051 23.6325Z" fill="#BA131A"/>
</g>
<defs>
<clipPath id="clip0">
<rect width="25" height="25" fill="white"/>
</clipPath>
</defs>
</svg>
