<svg width="30" height="30" viewBox="0 0 30 30" fill="none" xmlns="http://www.w3.org/2000/svg">
<path d="M27.8999 13.5564L27.123 10.4489C27.3354 10.4038 27.4948 10.2153 27.4948 9.98956V9.48852C27.4948 8.40067 26.6097 7.51567 25.5219 7.51567H21.9833V6.48219C21.9833 5.94688 21.5479 5.51141 21.0125 5.51141H2.97492C2.43961 5.51141 2.00414 5.94688 2.00414 6.48219V15C2.00414 15.2594 2.21443 15.4697 2.47389 15.4697C2.73328 15.4697 2.94363 15.2594 2.94363 15V6.48219C2.94363 6.46491 2.95764 6.45091 2.97492 6.45091H21.0125C21.0298 6.45091 21.0438 6.46491 21.0438 6.48219V15.0001C21.0438 15.2595 21.2541 15.4698 21.5135 15.4698C21.7729 15.4698 21.9833 15.2595 21.9833 15.0001V14.4676H27.5244C27.5249 14.4676 27.5252 14.4677 27.5256 14.4677C27.5261 14.4677 27.5265 14.4676 27.5269 14.4676C28.2088 14.4681 28.7878 14.9157 28.9866 15.5324H27.526C27.2666 15.5324 27.0563 15.7426 27.0563 16.0021V17.0042C27.0563 17.8157 27.7165 18.476 28.5281 18.476H29.0604V20.5428H27.8322C27.4287 19.3777 26.3212 18.5386 25.0208 18.5386C23.7203 18.5386 22.6127 19.3777 22.2093 20.5428H21.9831V17.0041C21.9831 16.7447 21.7729 16.5344 21.5134 16.5344C21.254 16.5344 21.0437 16.7447 21.0437 17.0041V20.5426H11.2979C10.8944 19.3776 9.78691 18.5384 8.48643 18.5384C7.18594 18.5384 6.0784 19.3776 5.67498 20.5426H2.97492C2.95764 20.5426 2.94363 20.5286 2.94363 20.5114V19.4779H4.97912C5.23852 19.4779 5.44887 19.2676 5.44887 19.0082C5.44887 18.7487 5.23857 18.5384 4.97912 18.5384H0.469746C0.210352 18.5384 0 18.7487 0 19.0082C0 19.2676 0.210293 19.4779 0.469746 19.4779H2.0042V20.5114C2.0042 21.0467 2.43967 21.4821 2.97498 21.4821H5.51232C5.51221 21.4926 5.5115 21.5029 5.5115 21.5134C5.5115 23.1538 6.84609 24.4883 8.48643 24.4883C10.1268 24.4883 11.4613 23.1538 11.4613 21.5134C11.4613 21.5029 11.4606 21.4926 11.4605 21.4821H22.0467C22.0465 21.4926 22.0458 21.5029 22.0458 21.5134C22.0458 23.1538 23.3804 24.4883 25.0208 24.4883C26.6611 24.4883 27.9957 23.1538 27.9957 21.5134C27.9957 21.5029 27.995 21.4926 27.9949 21.4821H29.5302C29.7896 21.4821 29.9999 21.2718 29.9999 21.0124V16.002C30 14.7649 29.0873 13.7372 27.8999 13.5564ZM21.9833 8.4551H25.5219C26.0917 8.4551 26.5553 8.9187 26.5553 9.48852V9.51981H21.9833V8.4551ZM21.9833 13.5282V10.4592H26.1572L26.9245 13.5282H21.9833ZM8.48643 23.549C7.36406 23.549 6.45094 22.636 6.45094 21.5135C6.45094 20.3911 7.36406 19.4781 8.48643 19.4781C9.60879 19.4781 10.5219 20.3911 10.5219 21.5135C10.5219 22.636 9.60879 23.549 8.48643 23.549ZM25.0209 23.549C23.8985 23.549 22.9854 22.636 22.9854 21.5135C22.9854 20.3911 23.8985 19.4781 25.0209 19.4781C26.1432 19.4781 27.0564 20.3911 27.0564 21.5135C27.0564 22.636 26.1432 23.549 25.0209 23.549ZM29.0606 17.5365H28.5282C28.2346 17.5365 27.9958 17.2977 27.9958 17.0041V16.4717H29.0605V17.5365H29.0606Z" fill="#BA131A"/>
<path d="M8.48641 20.5428C7.95109 20.5428 7.51562 20.9783 7.51562 21.5136C7.51562 22.0489 7.95109 22.4844 8.48641 22.4844C9.02172 22.4844 9.45719 22.0489 9.45719 21.5136C9.45719 20.9783 9.02172 20.5428 8.48641 20.5428Z" fill="#BA131A"/>
<path d="M25.0216 20.5428C24.4863 20.5428 24.0508 20.9783 24.0508 21.5136C24.0508 22.0489 24.4863 22.4844 25.0216 22.4844C25.5569 22.4844 25.9923 22.0489 25.9923 21.5136C25.9923 20.9783 25.5569 20.5428 25.0216 20.5428Z" fill="#BA131A"/>
<path d="M19.5097 18.5386H12.4951C12.2357 18.5386 12.0254 18.7489 12.0254 19.0084C12.0254 19.2678 12.2357 19.4781 12.4951 19.4781H19.5097C19.7691 19.4781 19.9795 19.2678 19.9795 19.0084C19.9795 18.7489 19.7692 18.5386 19.5097 18.5386Z" fill="#BA131A"/>
<path d="M7.48423 16.5344H1.4717C1.2123 16.5344 1.00195 16.7447 1.00195 17.0042C1.00195 17.2636 1.21225 17.4739 1.4717 17.4739H7.48423C7.74363 17.4739 7.95398 17.2636 7.95398 17.0042C7.95398 16.7447 7.74363 16.5344 7.48423 16.5344Z" fill="#BA131A"/>
<path d="M16.3341 10.1584C16.1507 9.97496 15.8532 9.97496 15.6698 10.1584L11.4925 14.3356L9.31945 12.1626C9.13599 11.9791 8.83857 11.9791 8.65517 12.1626C8.47171 12.346 8.47171 12.6434 8.65517 12.8268L11.1604 15.3321C11.2521 15.4238 11.3723 15.4696 11.4925 15.4696C11.6127 15.4696 11.733 15.4238 11.8246 15.3321L16.334 10.8227C16.5175 10.6392 16.5175 10.3418 16.3341 10.1584Z" fill="#BA131A"/>
</svg>
