<svg width="30" height="30" viewBox="0 0 30 30" fill="none" xmlns="http://www.w3.org/2000/svg">
<g clip-path="url(#clip0)">
<path d="M28.2151 18.2136L26.1153 14.0892C26.0152 13.8927 25.8134 13.769 25.5928 13.769H15.0008H4.40872C4.18818 13.769 3.98634 13.8927 3.88627 14.0892L1.78646 18.2136C1.69395 18.3954 1.70251 18.6121 1.80908 18.786C1.91566 18.9599 2.10495 19.0658 2.30885 19.0658H3.04058V29.4138C3.04058 29.7375 3.30303 30 3.62681 30H26.3729C26.6967 30 26.9591 29.7375 26.9591 29.4138V19.0659H27.6926C27.8965 19.0659 28.0858 18.9599 28.1923 18.7861C28.299 18.6121 28.3076 18.3954 28.2151 18.2136ZM25.2335 14.9414L26.7364 17.8933H17.46L15.9571 14.9414H25.2335ZM4.76814 14.9414H14.0445L12.5416 17.8933H3.26522L4.76814 14.9414ZM25.7868 28.8275H15.5871V25.5785C15.5871 25.2547 15.3246 24.9922 15.0008 24.9922C14.6771 24.9922 14.4146 25.2547 14.4146 25.5785V28.8275H4.21315V19.0659H12.901C13.1216 19.0659 13.3234 18.9422 13.4235 18.7456L14.4146 16.7988V20.3142C14.4146 20.6379 14.6771 20.9004 15.0008 20.9004C15.3246 20.9004 15.5871 20.6379 15.5871 20.3142V16.7988L16.5782 18.7456C16.6783 18.9422 16.8801 19.0659 17.1006 19.0659H25.7868V28.8275Z" fill="#BA131A"/>
<path d="M9.98683 25.6171H6.64873C6.32495 25.6171 6.0625 25.8796 6.0625 26.2033C6.0625 26.527 6.32495 26.7895 6.64873 26.7895H9.98683C10.3106 26.7895 10.5731 26.527 10.5731 26.2033C10.5731 25.8796 10.3106 25.6171 9.98683 25.6171Z" fill="#BA131A"/>
<path d="M15.0019 12.0451C18.319 12.0451 21.0178 9.34303 21.0178 6.02175C21.0177 2.70135 18.319 0 15.0019 0C11.6838 0 8.98438 2.70135 8.98438 6.02175C8.98438 9.34303 11.6838 12.0451 15.0019 12.0451ZM15.0019 1.17246C17.6726 1.17246 19.8453 3.34784 19.8453 6.02175C19.8453 8.6966 17.6726 10.8727 15.0019 10.8727C12.3303 10.8727 10.1568 8.6966 10.1568 6.02175C10.1568 3.34784 12.3303 1.17246 15.0019 1.17246Z" fill="#BA131A"/>
<path d="M12.3712 6.90098L13.9316 8.22363C14.0379 8.31373 14.1724 8.36268 14.3106 8.36268C14.3273 8.36268 14.344 8.36198 14.3607 8.36057C14.5163 8.34721 14.6601 8.27241 14.7603 8.15264L17.6967 4.64312C17.9045 4.39485 17.8716 4.02512 17.6233 3.8173C17.375 3.60966 17.0053 3.64243 16.7976 3.89076L14.2397 6.94776L13.1294 6.00657C12.8825 5.79723 12.5125 5.8276 12.3032 6.07469C12.0938 6.32173 12.1242 6.69158 12.3712 6.90098Z" fill="#BA131A"/>
<path d="M3.48271 6.60794H6.01909C6.34287 6.60794 6.60532 6.34543 6.60532 6.02172C6.60532 5.698 6.34287 5.43549 6.01909 5.43549H3.48271C3.15894 5.43549 2.89648 5.698 2.89648 6.02172C2.89648 6.34543 3.15894 6.60794 3.48271 6.60794Z" fill="#BA131A"/>
<path d="M3.21129 2.52887L5.74767 3.86658C5.8349 3.9126 5.9284 3.93441 6.02067 3.93441C6.23113 3.93441 6.43467 3.82074 6.53972 3.62154C6.69073 3.33517 6.58105 2.98056 6.29468 2.82954L3.75824 1.49183C3.47198 1.34082 3.11726 1.45044 2.96624 1.73687C2.81523 2.02325 2.92491 2.37786 3.21129 2.52887Z" fill="#BA131A"/>
<path d="M2.96413 10.3063C3.06913 10.5056 3.27267 10.6195 3.4833 10.6195C3.5754 10.6195 3.6689 10.5977 3.75601 10.5518L6.29239 9.21582C6.57882 9.06492 6.68874 8.71037 6.53785 8.42394C6.38695 8.13745 6.0324 8.02759 5.74597 8.17843L3.20959 9.51444C2.92316 9.66534 2.8133 10.0199 2.96413 10.3063Z" fill="#BA131A"/>
<path d="M23.9788 6.60794H26.5152C26.839 6.60794 27.1014 6.34543 27.1014 6.02172C27.1014 5.698 26.839 5.43549 26.5152 5.43549H23.9788C23.655 5.43549 23.3926 5.698 23.3926 6.02172C23.3926 6.34543 23.655 6.60794 23.9788 6.60794Z" fill="#BA131A"/>
<path d="M23.9794 3.93439C24.0716 3.93439 24.1651 3.91258 24.2524 3.86657L26.7887 2.52885C27.0751 2.37784 27.1848 2.02323 27.0338 1.73685C26.8827 1.45048 26.5282 1.34068 26.2418 1.49181L23.7054 2.82953C23.4191 2.98054 23.3094 3.33515 23.4604 3.62152C23.5654 3.82072 23.7689 3.93439 23.9794 3.93439Z" fill="#BA131A"/>
<path d="M23.7057 9.21573L26.2421 10.5518C26.3293 10.5977 26.4227 10.6194 26.5148 10.6194C26.7254 10.6194 26.929 10.5056 27.034 10.3062C27.1849 10.0198 27.0749 9.66525 26.7885 9.51436L24.2521 8.17834C23.9656 8.02745 23.6111 8.13731 23.4603 8.42385C23.3094 8.71029 23.4193 9.06484 23.7057 9.21573Z" fill="#BA131A"/>
<path d="M15.0003 22.3601C14.6765 22.3601 14.4141 22.6226 14.4141 22.9463V22.9497C14.4141 23.2734 14.6765 23.5343 15.0003 23.5343C15.3241 23.5343 15.5865 23.2701 15.5865 22.9464C15.5865 22.6227 15.3241 22.3601 15.0003 22.3601Z" fill="#BA131A"/>
</g>
<defs>
<clipPath id="clip0">
<rect width="30" height="30" fill="white"/>
</clipPath>
</defs>
</svg>
