<svg width="30" height="30" viewBox="0 0 30 30" fill="none" xmlns="http://www.w3.org/2000/svg">
<path d="M22.2461 9.98059C21.9225 9.98059 21.6602 9.71821 21.6602 9.39465V5.38806C21.6602 5.06451 21.9225 4.80212 22.2461 4.80212C22.5696 4.80212 22.832 5.06451 22.832 5.38806V9.39465C22.832 9.71821 22.5697 9.98059 22.2461 9.98059Z" fill="#BA131A"/>
<path d="M22.2441 4.08856C22.5677 4.08856 22.8301 3.82623 22.8301 3.50262C22.8301 3.17902 22.5677 2.91669 22.2441 2.91669C21.9205 2.91669 21.6582 3.17902 21.6582 3.50262C21.6582 3.82623 21.9205 4.08856 22.2441 4.08856Z" fill="#BA131A"/>
<path d="M28.3982 6.15568C28.3982 2.76141 25.6373 0 22.2437 0C20.839 0 19.5428 0.473086 18.5058 1.26832H3.73592C2.56012 1.26832 1.60352 2.22486 1.60352 3.40072V24.7155C1.60352 25.8913 2.56012 26.848 3.73592 26.848H5.59516V27.8675C5.59516 29.0433 6.55176 30 7.72756 30H23.0475C24.2233 30 25.1799 29.0434 25.1799 27.8675V19.7405C25.1799 19.4169 24.9176 19.1545 24.594 19.1545C24.2704 19.1545 24.0081 19.4169 24.0081 19.7405V27.8675C24.0081 28.3972 23.5772 28.8281 23.0475 28.8281H7.72756C7.19793 28.8281 6.76703 28.3972 6.76703 27.8675V26.848H19.056C20.2318 26.848 21.1884 25.8914 21.1884 24.7155V12.2208C21.5314 12.2803 21.884 12.3114 22.2438 12.3114C22.8567 12.3114 23.449 12.2212 24.0081 12.0536V14.4429C24.0081 14.7665 24.2705 15.0289 24.5941 15.0289C24.9176 15.0289 25.18 14.7665 25.18 14.4429V11.5645C27.0955 10.52 28.3982 8.48719 28.3982 6.15568ZM20.0165 24.7156C20.0165 25.2452 19.5856 25.6762 19.056 25.6762H3.73592C3.20629 25.6762 2.77539 25.2453 2.77539 24.7156V3.40072C2.77539 2.87109 3.20629 2.4402 3.73592 2.4402H17.3397C16.6042 3.40893 16.1487 4.60131 16.0947 5.8957H6.1167C5.79314 5.8957 5.53076 6.15809 5.53076 6.48164V8.95629C5.53076 9.27984 5.79314 9.54223 6.1167 9.54223H16.6752C16.8084 9.54223 16.9312 9.49775 17.0296 9.42287C17.7296 10.5364 18.7761 11.411 20.0165 11.8943V24.7156ZM16.0892 7.06758V8.37035H6.70264V7.06758H16.0892ZM22.2437 11.1394C19.4963 11.1394 17.2611 8.90373 17.2611 6.15562C17.2611 3.40758 19.4963 1.17182 22.2437 1.17182C24.9912 1.17182 27.2263 3.40752 27.2263 6.15562C27.2263 8.90373 24.9912 11.1394 22.2437 11.1394Z" fill="#BA131A"/>
<path d="M24.5925 17.6672C24.3511 17.6672 24.1298 17.5127 24.0447 17.2874C23.9573 17.0562 24.0289 16.7843 24.221 16.6279C24.4135 16.4713 24.6906 16.4525 24.9017 16.5835C25.1124 16.7143 25.2202 16.9722 25.1632 17.2142C25.1015 17.4759 24.8617 17.6672 24.5925 17.6672Z" fill="#BA131A"/>
<path d="M16.6757 12.752H6.11719C5.79363 12.752 5.53125 12.4896 5.53125 12.166C5.53125 11.8425 5.79363 11.5801 6.11719 11.5801H16.6757C16.9992 11.5801 17.2616 11.8425 17.2616 12.166C17.2616 12.4896 16.9993 12.752 16.6757 12.752Z" fill="#BA131A"/>
<path d="M16.6757 15.5311H6.11719C5.79363 15.5311 5.53125 15.2687 5.53125 14.9451C5.53125 14.6215 5.79363 14.3592 6.11719 14.3592H16.6757C16.9992 14.3592 17.2616 14.6215 17.2616 14.9451C17.2616 15.2687 16.9993 15.5311 16.6757 15.5311Z" fill="#BA131A"/>
<path d="M16.6757 18.3102H6.11719C5.79363 18.3102 5.53125 18.0478 5.53125 17.7242C5.53125 17.4007 5.79363 17.1383 6.11719 17.1383H16.6757C16.9992 17.1383 17.2616 17.4007 17.2616 17.7242C17.2616 18.0479 16.9993 18.3102 16.6757 18.3102Z" fill="#BA131A"/>
<path d="M16.6757 21.0892H6.11719C5.79363 21.0892 5.53125 20.8269 5.53125 20.5033C5.53125 20.1797 5.79363 19.9174 6.11719 19.9174H16.6757C16.9992 19.9174 17.2616 20.1797 17.2616 20.5033C17.2616 20.8269 16.9993 21.0892 16.6757 21.0892Z" fill="#BA131A"/>
</svg>
