<svg width="30" height="30" viewBox="0 0 30 30" fill="none" xmlns="http://www.w3.org/2000/svg">
<path d="M1.35988 13.1098H3.87646C4.02531 13.6465 4.23972 14.1629 4.51544 14.6468L2.73424 16.4273C2.64918 16.5123 2.60134 16.6277 2.60134 16.7482C2.60134 16.8687 2.64918 16.984 2.73424 17.0691L4.65862 18.994C4.83582 19.1709 5.12288 19.1709 5.30008 18.994L7.08146 17.2125C7.56539 17.488 8.08122 17.7026 8.61796 17.8513V20.3678C8.61796 20.6184 8.82103 20.8215 9.07158 20.8215H11.7934C12.0439 20.8215 12.247 20.6184 12.247 20.3678V17.8513C12.7837 17.7026 13.2996 17.488 13.7835 17.2125L15.5649 18.994C15.7449 19.1641 16.0265 19.1641 16.2063 18.994L18.1311 17.0691C18.2161 16.984 18.264 16.8687 18.264 16.7482C18.264 16.6277 18.2161 16.5123 18.1311 16.4273L16.3495 14.6468C16.6252 14.1629 16.8396 13.6465 16.9885 13.1098H19.5051C19.7556 13.1098 19.9587 12.9067 19.9587 12.6561V9.93437C19.9587 9.68398 19.7556 9.48074 19.5051 9.48074H16.9885C16.8396 8.94418 16.6252 8.42782 16.3495 7.94389L18.1307 6.1634C18.2158 6.07834 18.2636 5.96299 18.2636 5.84249C18.2636 5.72199 18.2158 5.60664 18.1307 5.52158L16.2063 3.59667C16.0291 3.41965 15.7421 3.41965 15.5649 3.59667L13.7835 5.37823C13.2996 5.10286 12.7836 4.88827 12.247 4.73943V2.22267C12.247 1.97229 12.0439 1.76904 11.7934 1.76904H9.07158C8.82103 1.76904 8.61796 1.97229 8.61796 2.22267V4.73943C8.0814 4.88827 7.56539 5.10286 7.08146 5.37823L5.30008 3.59667C5.12004 3.42656 4.83848 3.42656 4.65862 3.59667L2.73388 5.52158C2.64883 5.60664 2.60098 5.72199 2.60098 5.84249C2.60098 5.96299 2.64883 6.07834 2.73388 6.1634L4.51544 7.94389C4.23972 8.42782 4.02531 8.94418 3.87646 9.48074H1.35988C1.10932 9.48074 0.90625 9.68398 0.90625 9.93437V12.6561C0.90625 12.9067 1.10932 13.1098 1.35988 13.1098ZM1.81351 10.388H4.23139C4.44456 10.388 4.62903 10.2397 4.67457 10.0315C4.82341 9.35209 5.09258 8.70461 5.4693 8.11985C5.58431 7.94052 5.55879 7.70503 5.40799 7.55423L3.69607 5.84231L4.97935 4.55886L6.69092 6.27078C6.84171 6.42193 7.07739 6.44745 7.25707 6.33227C7.842 5.95572 8.48931 5.68656 9.16869 5.53753C9.37672 5.49181 9.52521 5.30735 9.52521 5.09418V2.6763H11.3397V5.09418C11.3397 5.30735 11.4882 5.49181 11.6963 5.53753C12.3756 5.68656 13.0229 5.95572 13.6079 6.33227C13.7876 6.44745 14.0232 6.42193 14.174 6.27078L15.8856 4.55886L17.1685 5.84231L15.457 7.5537C15.3058 7.70467 15.2805 7.94035 15.3956 8.11985C15.7724 8.70496 16.0412 9.35227 16.1898 10.0318C16.2356 10.24 16.42 10.3885 16.633 10.3885H19.0514V12.203H16.633C16.42 12.203 16.2356 12.3514 16.1898 12.5596C16.0412 13.2389 15.7722 13.8863 15.3956 14.4707C15.2806 14.6502 15.3062 14.8857 15.457 15.0365L17.1689 16.748L15.8856 18.0318L14.174 16.3197C14.0232 16.1688 13.7876 16.1432 13.6079 16.2584C13.0233 16.6351 12.3762 16.9043 11.6968 17.0532C11.4884 17.0985 11.3397 17.2832 11.3397 17.4963V19.9142H9.52521V17.4963C9.52521 17.2832 9.37654 17.0985 9.16816 17.0532C8.48878 16.9043 7.84165 16.6351 7.25707 16.2584C7.07739 16.1432 6.84171 16.1688 6.69092 16.3197L4.97935 18.0318L3.69643 16.7484L5.40799 15.0368C5.55914 14.886 5.58448 14.6503 5.4693 14.4707C5.09258 13.8857 4.82341 13.2382 4.67457 12.5587C4.62885 12.3505 4.44456 12.2025 4.23139 12.2025H1.81351V10.388Z" fill="#BA131A"/>
<path d="M10.4337 14.9243C12.438 14.9243 14.0628 13.2998 14.0628 11.2953C14.0628 9.29099 12.438 7.66626 10.4337 7.66626C8.42943 7.66626 6.80469 9.29099 6.80469 11.2953C6.80681 13.2985 8.43049 14.9222 10.4337 14.9243ZM10.4337 8.57352C11.9367 8.57352 13.1555 9.79229 13.1555 11.2953C13.1555 12.7985 11.9367 14.0171 10.4337 14.0171C8.93072 14.0171 7.71195 12.7985 7.71195 11.2953C7.71354 9.79264 8.93108 8.57511 10.4337 8.57352Z" fill="#BA131A"/>
<path d="M10.4333 16.2852C13.1891 16.2852 15.4232 14.0513 15.4232 11.2953C15.4232 8.53948 13.1891 6.30536 10.4333 6.30536C7.67748 6.30536 5.44336 8.53948 5.44336 11.2953C5.44673 14.0498 7.67872 16.282 10.4333 16.2852ZM10.4333 7.21262C12.6881 7.21262 14.5159 9.04043 14.5159 11.2953C14.5159 13.5501 12.6881 15.378 10.4333 15.378C8.17842 15.378 6.35062 13.5501 6.35062 11.2953C6.3531 9.04167 8.17948 7.2151 10.4333 7.21262Z" fill="#BA131A"/>
<path d="M26.7631 22.6361V19.007C26.7631 18.7567 26.56 18.5534 26.3095 18.5534H25.4022V14.9244C25.4022 14.674 25.1991 14.4708 24.9486 14.4708H20.8659C20.6154 14.4708 20.4123 14.674 20.4123 14.9244V18.5534H18.1442C17.8936 18.5534 17.6905 18.7567 17.6905 19.007V22.6361H3.1744C1.92231 22.6377 0.907845 23.6521 0.90625 24.9042V25.8115C0.907845 27.0637 1.92231 28.0782 3.1744 28.0796H26.7631C28.0152 28.0782 29.0297 27.0637 29.0312 25.8115V24.9042C29.0297 23.6521 28.0152 22.6377 26.7631 22.6361ZM25.8558 22.6361H22.6804V19.4607H25.8558V22.6361ZM21.3196 15.378H24.495V18.5534H21.3196V15.378ZM18.5978 19.4607H21.7732V22.6361H18.5978V19.4607ZM28.124 25.8115C28.124 26.5631 27.5146 27.1723 26.7631 27.1723H3.1744C2.42289 27.1723 1.81351 26.5631 1.81351 25.8115V24.9042C1.81351 24.1527 2.42289 23.5433 3.1744 23.5433H26.7631C27.5146 23.5433 28.124 24.1527 28.124 24.9042V25.8115Z" fill="#BA131A"/>
<path d="M14.9683 23.9969C14.2168 23.9969 13.6074 24.6063 13.6074 25.3578C13.6074 26.1095 14.2168 26.7187 14.9683 26.7187C15.7198 26.7187 16.3292 26.1095 16.3292 25.3578C16.3292 24.6063 15.7198 23.9969 14.9683 23.9969ZM14.9683 25.8114C14.7178 25.8114 14.5147 25.6083 14.5147 25.3578C14.5147 25.1074 14.7178 24.9041 14.9683 24.9041C15.2189 24.9041 15.422 25.1074 15.422 25.3578C15.422 25.6083 15.2189 25.8114 14.9683 25.8114Z" fill="#BA131A"/>
<path d="M10.4351 23.9969C9.68361 23.9969 9.07422 24.6063 9.07422 25.3578C9.07422 26.1095 9.68361 26.7187 10.4351 26.7187C11.1866 26.7187 11.796 26.1095 11.796 25.3578C11.796 24.6063 11.1866 23.9969 10.4351 23.9969ZM10.4351 25.8114C10.1845 25.8114 9.98148 25.6083 9.98148 25.3578C9.98148 25.1074 10.1845 24.9041 10.4351 24.9041C10.6857 24.9041 10.8887 25.1074 10.8887 25.3578C10.8887 25.6083 10.6857 25.8114 10.4351 25.8114Z" fill="#BA131A"/>
<path d="M19.5054 23.9969C18.7539 23.9969 18.1445 24.6063 18.1445 25.3578C18.1445 26.1095 18.7539 26.7187 19.5054 26.7187C20.2569 26.7187 20.8663 26.1095 20.8663 25.3578C20.8663 24.6063 20.2569 23.9969 19.5054 23.9969ZM19.5054 25.8114C19.2549 25.8114 19.0518 25.6083 19.0518 25.3578C19.0518 25.1074 19.2549 24.9041 19.5054 24.9041C19.756 24.9041 19.959 25.1074 19.959 25.3578C19.959 25.6083 19.756 25.8114 19.5054 25.8114Z" fill="#BA131A"/>
<path d="M5.898 23.9969C5.1465 23.9969 4.53711 24.6063 4.53711 25.3578C4.53711 26.1095 5.1465 26.7187 5.898 26.7187C6.6495 26.7187 7.25888 26.1095 7.25888 25.3578C7.25888 24.6063 6.6495 23.9969 5.898 23.9969ZM5.898 25.8114C5.64744 25.8114 5.44437 25.6083 5.44437 25.3578C5.44437 25.1074 5.64744 24.9041 5.898 24.9041C6.14856 24.9041 6.35163 25.1074 6.35163 25.3578C6.35163 25.6083 6.14856 25.8114 5.898 25.8114Z" fill="#BA131A"/>
<path d="M24.0425 23.9969C23.291 23.9969 22.6816 24.6063 22.6816 25.3578C22.6816 26.1095 23.291 26.7187 24.0425 26.7187C24.7941 26.7187 25.4034 26.1095 25.4034 25.3578C25.4034 24.6063 24.7941 23.9969 24.0425 23.9969ZM24.0425 25.8114C23.792 25.8114 23.5889 25.6083 23.5889 25.3578C23.5889 25.1074 23.792 24.9041 24.0425 24.9041C24.2931 24.9041 24.4962 25.1074 24.4962 25.3578C24.4962 25.6083 24.2931 25.8114 24.0425 25.8114Z" fill="#BA131A"/>
</svg>
