<svg width="25" height="25" viewBox="0 0 25 25" fill="none" xmlns="http://www.w3.org/2000/svg">
<path d="M24.5554 25H0.444552C0.198981 25 0 24.801 0 24.5554V0.444552C0 0.198981 0.198981 0 0.444552 0H24.5554C24.801 0 25 0.198981 25 0.444552V24.5554C25 24.801 24.801 25 24.5554 25ZM18.6922 24.1109H24.1109V18.6922L19.0846 23.7184C19.0839 23.7192 19.0832 23.72 19.0823 23.7208C19.0816 23.7215 19.0807 23.7224 19.08 23.7231L18.6922 24.1109ZM11.7721 24.1109H17.435L18.1395 23.4064L15.3081 20.5749L11.7721 24.1109ZM5.31133 24.1109H10.5147L18.2432 16.3825L15.6415 13.7808L7.43522 21.987L5.31133 24.1109ZM0.889104 24.1109H4.05396L6.49224 21.6726L3.76055 18.9409L0.889104 21.8124V24.1109ZM15.9367 19.9462L18.7681 22.7776L24.1109 17.4348V11.7721L19.1862 16.6968L15.9367 19.9462ZM4.38933 18.3122L7.12083 21.0438L20.7549 7.40979L18.0232 4.67811L12.6781 10.0234C12.6776 10.0238 12.6772 10.0241 12.6768 10.0245L4.38933 18.3122ZM0.889104 14.5829V20.5548L3.44154 18.0022C3.44314 18.0008 3.44457 17.9992 3.44599 17.9978C3.44741 17.9962 3.44901 17.9948 3.45043 17.9933L11.7337 9.7099L8.81013 6.78635L0.889104 14.5829ZM16.2701 13.152L18.8718 15.7537L24.0979 10.5277C24.1022 10.5234 24.1066 10.5192 24.1109 10.5151V5.31115L16.2701 13.152ZM0.889104 7.32764V13.3353L4.4096 9.87012L1.39287 6.85321L0.889104 7.32764ZM2.04032 6.24329L5.04335 9.24632L13.5041 0.918622H7.69342L2.04032 6.24329ZM9.44371 6.16256L12.3625 9.08131L20.5548 0.889104H14.8014L9.44371 6.16256ZM18.6518 4.04951L21.3835 6.78119L24.1109 4.05378V0.889104H21.8122L18.6518 4.04951ZM0.889104 0.889104V6.10637L1.05537 5.94988C1.06479 5.9385 1.07457 5.92766 1.08524 5.91699C1.10231 5.89992 1.12045 5.88444 1.13948 5.87075L6.42787 0.889104H0.889104Z" fill="#BA131A"/>
</svg>
