<svg width="25" height="25" viewBox="0 0 25 25" fill="none" xmlns="http://www.w3.org/2000/svg">
<g clip-path="url(#clip0)">
<path d="M22.1209 17.6427C21.9838 17.5859 21.826 17.6173 21.721 17.7222L17.711 21.7323C17.606 21.8373 17.5747 21.9951 17.6315 22.1322C17.6882 22.2693 17.8221 22.3587 17.9705 22.3587H21.9806C22.1832 22.3587 22.3475 22.1944 22.3475 21.9918V17.9817C22.3475 17.8333 22.258 17.6995 22.1209 17.6427ZM18.8562 21.6249L21.6135 18.8676V21.6249H18.8562Z" fill="#BA131A"/>
<path d="M24.7735 11.7611C24.6364 11.7043 24.4786 11.7357 24.3736 11.8406L23.2747 12.9396V5.46734C23.2747 5.26466 23.1103 5.1004 22.9077 5.1004H20.0883L21.1118 4.07696C21.1119 4.07681 21.1121 4.07662 21.1122 4.07647L22.0983 3.09034C22.3096 2.87906 22.426 2.598 22.426 2.29917C22.426 2.00035 22.3096 1.71939 22.0983 1.50801L20.958 0.367676C20.7467 0.156397 20.4657 0.0400391 20.1668 0.0400391C19.868 0.0400391 19.587 0.156397 19.3757 0.367676L18.3891 1.3543L17.1969 2.54649L14.643 5.10035H3.25294V1.47022C3.25294 1.26753 3.08863 1.10327 2.88599 1.10327C1.29468 1.10337 0 2.39795 0 3.98936V19.5746C0 19.6017 0.00312501 19.6281 0.00869142 19.6535C0.0593751 20.3287 0.351514 20.9561 0.839748 21.4324C1.36162 21.9414 2.05054 22.2217 2.77964 22.2217H13.9925L11.8807 24.3335C11.7758 24.4385 11.7444 24.5962 11.8011 24.7334C11.8579 24.8705 11.9918 24.9599 12.1402 24.9599H24.6331C24.8357 24.9599 25.0001 24.7957 25.0001 24.593V12.1001C25.0001 11.9517 24.9106 11.8179 24.7735 11.7611ZM19.8947 0.886672C20.0447 0.736574 20.2891 0.736574 20.4391 0.886672L21.5795 2.02705C21.7296 2.1771 21.7296 2.42139 21.5795 2.57149L20.8524 3.29864L19.1675 1.61382L19.8947 0.886672ZM18.6486 2.13277L20.3334 3.81754L19.6601 4.49083L17.9754 2.80606L18.6486 2.13277ZM24.2663 16.2233H23.5893C23.3866 16.2233 23.2223 16.3875 23.2223 16.5902C23.2223 16.7929 23.3866 16.9572 23.5893 16.9572H24.2663V18.0629H23.5893C23.3866 18.0629 23.2223 18.2272 23.2223 18.4299C23.2223 18.6326 23.3866 18.7968 23.5893 18.7968H24.2663V19.9025H23.5893C23.3866 19.9025 23.2223 20.0668 23.2223 20.2695C23.2223 20.4722 23.3866 20.6364 23.5893 20.6364H24.2663V21.7422H23.5893C23.3866 21.7422 23.2223 21.9065 23.2223 22.1091C23.2223 22.3118 23.3866 22.4761 23.5893 22.4761H24.2663V24.2262H13.026L16.7325 20.5198C16.8758 20.3764 16.8758 20.1441 16.7325 20.0008C16.716 19.9844 16.6983 19.9701 16.6798 19.9574C16.5369 19.8596 16.3404 19.874 16.2135 20.0008L14.7263 21.4879H2.77969C1.6668 21.4879 0.7709 20.6191 0.735646 19.5082C0.737746 19.4385 0.743166 19.3693 0.751857 19.301C0.751906 19.3006 0.751955 19.3002 0.752003 19.2998C0.756105 19.2673 0.761037 19.235 0.766652 19.2029C0.767287 19.1992 0.76797 19.1955 0.768605 19.1919C0.773732 19.1632 0.779494 19.1347 0.785793 19.1063C0.78755 19.0984 0.789406 19.0905 0.791261 19.0826C0.796828 19.0586 0.802834 19.0347 0.809279 19.0109C0.812795 18.998 0.816457 18.9853 0.820217 18.9724C0.825588 18.9538 0.831154 18.9352 0.837062 18.9168C0.84297 18.8984 0.849269 18.8802 0.855666 18.8619C0.860109 18.8492 0.864504 18.8365 0.869289 18.8238C0.878224 18.7998 0.887697 18.776 0.897463 18.7524C0.900246 18.7456 0.90298 18.7388 0.905861 18.732C0.91841 18.7027 0.931447 18.6737 0.945217 18.6451C0.945803 18.6439 0.94634 18.6427 0.946926 18.6414C1.23394 18.0475 1.78594 17.6047 2.44839 17.4673C2.45025 17.4669 2.4521 17.4664 2.45396 17.466C2.48433 17.4598 2.515 17.4545 2.54585 17.4496C2.55098 17.4488 2.55611 17.4477 2.56133 17.447C2.58921 17.4427 2.61739 17.4394 2.64556 17.4362C2.65347 17.4353 2.66133 17.4341 2.66929 17.4333C2.69649 17.4306 2.72393 17.4288 2.75137 17.4271C2.76006 17.4265 2.76876 17.4256 2.77745 17.4252C2.81338 17.4234 2.84962 17.4224 2.88599 17.4224C3.08863 17.4224 3.25294 17.2582 3.25294 17.0555V14.3949C3.25294 14.1922 3.08863 14.028 2.88599 14.028C2.68336 14.028 2.51905 14.1922 2.51905 14.3949V16.7117C1.89942 16.79 1.32427 17.0664 0.870754 17.5093C0.823049 17.5558 0.777834 17.6043 0.733791 17.6535V3.98936C0.733791 2.92779 1.50655 2.04317 2.519 1.86846V5.46734V12.9272V12.9272C2.519 13.1299 2.68331 13.2942 2.88594 13.2942C3.08858 13.2942 3.25289 13.1299 3.25289 12.9272V12.9272V5.83429H13.9092L11.8806 7.86281C11.7373 8.00617 11.7373 8.23844 11.8806 8.38175C12.024 8.52502 12.2563 8.52502 12.3995 8.38175L15.0545 5.72682C15.0546 5.72672 15.0546 5.72662 15.0547 5.72657L17.4563 3.32496L19.1411 5.00978L18.9434 5.20743C18.9433 5.20758 18.9431 5.20772 18.9429 5.20787L11.5441 12.6068L9.8593 10.922L11.3177 9.46364C11.461 9.32028 11.461 9.08801 11.3177 8.94469C11.1744 8.80143 10.9421 8.80143 10.7988 8.94469L9.08088 10.6626C9.0717 10.6717 9.0631 10.6815 9.05505 10.6914C9.05236 10.6947 9.04997 10.6983 9.04743 10.7018C9.04226 10.7087 9.03718 10.7156 9.03244 10.7228C9.02975 10.727 9.02731 10.7313 9.02477 10.7357C9.02072 10.7425 9.01682 10.7494 9.01325 10.7565C9.01091 10.7611 9.00881 10.7657 9.00666 10.7705C9.00339 10.7777 9.00036 10.785 8.99758 10.7924C8.9966 10.7949 8.99533 10.7974 8.9944 10.8L8.27951 12.8251L7.79211 14.2059C7.78566 14.2243 7.78102 14.2429 7.77755 14.2617H6.55724C6.3546 14.2617 6.1903 14.426 6.1903 14.6287C6.1903 14.8314 6.3546 14.9956 6.55724 14.9956H16.7191C16.9218 14.9956 17.086 14.8314 17.086 14.6287C17.086 14.426 16.9218 14.2617 16.7191 14.2617H9.42839L11.6662 13.4718C11.668 13.4711 11.6698 13.4702 11.6717 13.4695C11.6803 13.4663 11.6889 13.4627 11.6973 13.4588C11.7007 13.4573 11.7041 13.4558 11.7073 13.4542C11.7161 13.4498 11.7248 13.4449 11.7333 13.4398C11.736 13.4381 11.7388 13.4366 11.7415 13.4349C11.7504 13.4292 11.759 13.423 11.7674 13.4165C11.7695 13.4149 11.7717 13.4135 11.7738 13.4118C11.784 13.4036 11.794 13.3948 11.8034 13.3853L19.3544 5.83434H22.5407V13.6735L17.2919 18.9224C17.1486 19.0658 17.1486 19.298 17.2919 19.4413C17.3008 19.4503 17.3101 19.4587 17.3198 19.4665C17.387 19.5214 17.4692 19.5488 17.5514 19.5488C17.6335 19.5488 17.7157 19.5214 17.7829 19.4665C17.7926 19.4587 17.8019 19.4503 17.8108 19.4413C17.811 19.4412 17.8108 19.4413 17.811 19.4412L24.2663 12.9859V16.2233ZM10.8729 12.9735L9.82185 13.3445L9.12155 12.6442L9.4926 11.5931L10.8729 12.9735Z" fill="#BA131A"/>
</g>
<defs>
<clipPath id="clip0">
<rect width="25" height="25" fill="white"/>
</clipPath>
</defs>
</svg>
