<svg width="25" height="25" viewBox="0 0 25 25" fill="none" xmlns="http://www.w3.org/2000/svg">
<g clip-path="url(#clip0)">
<path d="M23.6378 12.8826L23.8722 12.5L23.6378 12.1172C23.5985 12.0533 22.6555 10.5312 20.8235 9.00593C18.3869 6.97746 15.5163 5.90515 12.522 5.90515C9.5284 5.90515 6.65078 6.97689 4.20022 9.0044C2.35772 10.5289 1.40405 12.0499 1.36437 12.114L1.125 12.5L1.36437 12.886C1.40405 12.9501 2.35772 14.4711 4.20022 15.9956C6.65078 18.0231 9.5284 19.0948 12.522 19.0948C15.5163 19.0948 18.3869 18.0225 20.8235 15.9941C22.6555 14.4688 23.5985 12.9467 23.6378 12.8826ZM19.8473 14.9004C17.6554 16.7116 15.1907 17.6298 12.522 17.6298C9.85226 17.6298 7.37958 16.711 5.17278 14.8987C4.03142 13.9614 3.25761 13.0123 2.87862 12.5C3.2578 11.9873 4.03161 11.0384 5.17278 10.1011C7.37958 8.28896 9.85207 7.37 12.522 7.37C15.1907 7.37 17.6552 8.28838 19.8473 10.0994C20.9836 11.0382 21.7507 11.9886 22.1245 12.5C21.7503 13.0116 20.9834 13.962 19.8473 14.9004Z" fill="#BA131A"/>
<path d="M12.5006 8.099C10.0739 8.099 8.09961 10.0733 8.09961 12.5C8.09961 14.9267 10.0739 16.901 12.5006 16.901C14.9273 16.901 16.9016 14.9267 16.9016 12.5C16.9016 10.0733 14.9273 8.099 12.5006 8.099ZM12.5006 15.4362C10.8817 15.4362 9.56445 14.119 9.56445 12.5C9.56445 10.8811 10.8817 9.56384 12.5006 9.56384C14.1196 9.56384 15.4368 10.8811 15.4368 12.5C15.4368 14.119 14.1196 15.4362 12.5006 15.4362Z" fill="#BA131A"/>
<path d="M1.46484 1.46484H4.52271V0H0V4.46777H1.46484V1.46484Z" fill="#BA131A"/>
<path d="M20.4766 0V1.46484H23.5344V4.46777H24.9993V0H20.4766Z" fill="#BA131A"/>
<path d="M1.46484 20.5322H0V25H4.52271V23.5352H1.46484V20.5322Z" fill="#BA131A"/>
<path d="M23.5344 23.5352H20.4766V25H24.9993V20.5322H23.5344V23.5352Z" fill="#BA131A"/>
</g>
<defs>
<clipPath id="clip0">
<rect width="25" height="25" fill="white"/>
</clipPath>
</defs>
</svg>
