<svg width="25" height="25" viewBox="0 0 25 25" fill="none" xmlns="http://www.w3.org/2000/svg">
<path d="M24.7942 7.14069L12.7108 0.0573401C12.5837 -0.0168298 12.4275 -0.01932 12.2988 0.0519202L0.21543 6.71862C0.0825195 6.79152 0 6.93151 0 7.08317V24.5832C0 24.8136 0.18667 24.9998 0.41665 24.9998H2.5C2.72998 24.9998 2.91665 24.8136 2.91665 24.5832V9.99987H22.0833V24.5832C22.0833 24.8136 22.2695 24.9999 22.5 24.9999H24.5833C24.8137 24.9999 25 24.8136 25 24.5832V7.49987C25 7.35192 24.9217 7.21525 24.7942 7.14069ZM24.1667 24.1665H22.9167V9.58317C22.9167 9.35319 22.7304 9.16652 22.5 9.16652H2.5C2.27002 9.16652 2.08335 9.35319 2.08335 9.58317V24.1665H0.83335V7.32902L12.4937 0.89567L24.1667 7.73859V24.1665Z" fill="#BA131A"/>
<path d="M20.8327 19.1666H15.8327C15.6022 19.1666 15.416 19.3528 15.416 19.5832V24.5832C15.416 24.8136 15.6022 24.9999 15.8327 24.9999H20.8327C21.0631 24.9999 21.2493 24.8136 21.2493 24.5832V19.5832C21.2493 19.3528 21.0631 19.1666 20.8327 19.1666ZM20.416 24.1666H16.2493V19.9999H20.416V24.1666Z" fill="#BA131A"/>
<path d="M18.7507 19.5832V20.8332H17.9173V19.5832H17.084V21.2498C17.084 21.4803 17.2702 21.6665 17.5006 21.6665H19.1673C19.3977 21.6665 19.5839 21.4803 19.5839 21.2498V19.5832H18.7507Z" fill="#BA131A"/>
<path d="M15.8327 19.1666H10.8327C10.6027 19.1666 10.416 19.3528 10.416 19.5832V24.5832C10.416 24.8136 10.6027 24.9999 10.8327 24.9999H15.8327C16.0631 24.9999 16.2493 24.8136 16.2493 24.5832V19.5832C16.2493 19.3528 16.0631 19.1666 15.8327 19.1666ZM15.416 24.1666H11.2493V19.9999H15.416V24.1666Z" fill="#BA131A"/>
<path d="M13.7487 19.5832V20.8332H12.9154V19.5832H12.082V21.2498C12.082 21.4803 12.2687 21.6665 12.4987 21.6665H14.1653C14.3958 21.6665 14.582 21.4803 14.582 21.2498V19.5832H13.7487Z" fill="#BA131A"/>
<path d="M20.8327 14.1666H15.8327C15.6022 14.1666 15.416 14.3528 15.416 14.5832V19.5832C15.416 19.8136 15.6022 19.9999 15.8327 19.9999H20.8327C21.0631 19.9999 21.2493 19.8136 21.2493 19.5832V14.5832C21.2493 14.3528 21.0631 14.1666 20.8327 14.1666ZM20.416 19.1666H16.2493V14.9999H20.416V19.1666Z" fill="#BA131A"/>
<path d="M18.7507 14.5832V15.8332H17.9173V14.5832H17.084V16.2498C17.084 16.4803 17.2702 16.6665 17.5006 16.6665H19.1673C19.3977 16.6665 19.5839 16.4803 19.5839 16.2498V14.5832H18.7507Z" fill="#BA131A"/>
<path d="M22.5 12.4999H2.5V13.3333H22.5V12.4999Z" fill="#BA131A"/>
<path d="M22.5 10.8332H2.5V11.6665H22.5V10.8332Z" fill="#BA131A"/>
<path d="M14.5833 5.83319H10.4167C10.1867 5.83319 10 6.01986 10 6.24984V7.91649C10 8.14647 10.1867 8.33314 10.4167 8.33314H14.5833C14.8137 8.33314 15 8.14647 15 7.91649V6.24984C15 6.01986 14.8137 5.83319 14.5833 5.83319ZM14.1666 7.49989H10.8333V6.66654H14.1666V7.49989Z" fill="#BA131A"/>
</svg>
